<svg width="36" height="36" viewBox="0 0 36 36" fill="none" xmlns="http://www.w3.org/2000/svg">
<circle cx="18" cy="18" r="17.5" fill="white" stroke="#F7F7F7"/>
<g clip-path="url(#clip0_564_9162)">
<path d="M15.621 26.8148L12.8732 26.8173L11.3381 22.1416C10.6278 19.6066 10.624 16.918 11.3292 14.3792L12.8543 9.70089L13.5456 7.21754L10.0032 7.22132C10.0032 7.22132 10.0422 7.31577 10.0914 7.49711C10.352 8.37988 10.3533 9.31932 10.1065 10.2021L9.35718 13.7168C8.53233 16.69 8.53611 19.8332 9.36725 22.8039L10.9565 29.3007L25.0645 29.2843L26.6386 22.7851C27.4635 19.8118 27.4597 16.6686 26.6285 13.6979L25.8654 10.153C25.6047 9.21732 25.6123 8.2338 25.9195 7.31451C25.946 7.24021 25.9586 7.20117 25.9586 7.20117L22.561 7.20495C22.9589 8.85212 23.3468 10.4552 23.547 11.1919C23.5659 11.2473 23.5798 11.3052 23.5924 11.3506L24.6615 14.3603C25.3717 16.8953 25.3755 19.5852 24.6703 22.1227L23.1453 26.801L20.3975 26.8048L15.6235 26.8161H15.6197L15.621 26.8148Z" fill="#F3E2D3"/>
<path opacity="0.5" d="M23.697 16.6068C23.697 16.0993 21.1846 15.685 18.0603 15.6699C18.0414 15.6699 18.0238 15.6699 18.0049 15.6699C18.0036 15.6699 18.0011 15.6699 17.9999 15.6699C17.9986 15.6699 17.9961 15.6699 17.9948 15.6699C17.9759 15.6699 17.9583 15.6699 17.9394 15.6699C14.8151 15.685 12.3015 16.0993 12.3028 16.6068C12.3028 16.6068 12.1995 17.5035 12.294 18.9265C12.4161 20.75 12.8191 22.5432 13.4651 24.2533L13.8177 25.189C13.8857 25.3703 14.0595 25.49 14.2534 25.49L17.9999 25.4862L21.7463 25.49C21.9402 25.49 22.114 25.3703 22.182 25.189L22.5346 24.2533C23.1806 22.5432 23.5836 20.75 23.7058 18.9265C23.8002 17.5035 23.697 16.6068 23.697 16.6068Z" fill="#D6690F"/>
</g>
<defs>
<clipPath id="clip0_564_9162">
<rect width="18.5143" height="22.1008" fill="white" transform="translate(8.74268 7.2002)"/>
</clipPath>
</defs>
</svg>
