<svg width="85" height="85" viewBox="0 0 85 85" fill="none" xmlns="http://www.w3.org/2000/svg">
<circle cx="42.5" cy="42.5" r="42" fill="white" stroke="#F7F7F7"/>
<g clip-path="url(#clip0_353_1604)">
<path d="M37.2321 61.4377L31.1471 61.4432L27.7476 51.0886C26.1747 45.4749 26.1664 39.5209 27.7281 33.8988L31.1052 23.5386L32.6363 18.0392L24.7915 18.0475C24.7915 18.0475 24.878 18.2567 24.9867 18.6583C25.564 20.6132 25.5668 22.6936 25.0202 24.6485L23.3609 32.4319C21.5343 39.0161 21.5426 45.9768 23.3832 52.5555L26.9026 66.9426L58.1449 66.9064L61.6309 52.5137C63.4575 45.9294 63.4491 38.9687 61.6086 32.3901L59.9186 24.5398C59.3413 22.4677 59.358 20.2897 60.0385 18.2539C60.0971 18.0894 60.1249 18.0029 60.1249 18.0029L52.6009 18.0113C53.4821 21.659 54.3411 25.2091 54.7845 26.8405C54.8263 26.9632 54.857 27.0915 54.8849 27.1918L57.2525 33.857C58.8254 39.4707 58.8338 45.4275 57.2721 51.0468L53.8949 61.407L47.8098 61.4153L37.2377 61.4404H37.2293L37.2321 61.4377Z" fill="#F3E2D3"/>
<path opacity="0.5" d="M55.1164 38.8321C55.1164 37.7083 49.5528 36.7908 42.6339 36.7573C42.5921 36.7573 42.5531 36.7573 42.5112 36.7573C42.5085 36.7573 42.5029 36.7573 42.5001 36.7573C42.4973 36.7573 42.4917 36.7573 42.4889 36.7573C42.4471 36.7573 42.4081 36.7573 42.3662 36.7573C35.4473 36.7908 29.881 37.7083 29.8838 38.8321C29.8838 38.8321 29.6551 40.8177 29.8643 43.969C30.1348 48.0071 31.0272 51.9783 32.4578 55.7654L33.2387 57.8375C33.3893 58.239 33.7741 58.504 34.2036 58.504L42.5001 58.4956L50.7966 58.504C51.2261 58.504 51.6109 58.239 51.7615 57.8375L52.5424 55.7654C53.973 51.9783 54.8654 48.0071 55.1359 43.969C55.3451 40.8177 55.1164 38.8321 55.1164 38.8321Z" fill="#D6690F"/>
</g>
<defs>
<clipPath id="clip0_353_1604">
<rect width="41.0002" height="48.9425" fill="white" transform="translate(22 18)"/>
</clipPath>
</defs>
</svg>
