<svg width="52" height="52" viewBox="0 0 52 52" fill="none" xmlns="http://www.w3.org/2000/svg">
<circle cx="26" cy="26" r="14" fill="#D6690F"/>
<g clip-path="url(#clip0_365_1867)">
<path d="M31.6409 21.82C30.9024 21.2343 29.9639 20.946 29.0163 21.0136C28.0686 21.0812 27.1827 21.4998 26.5387 22.1842L26.0001 22.7286L25.4614 22.185C24.8175 21.5004 23.9317 21.0818 22.984 21.014C22.0363 20.9462 21.0978 21.2344 20.3592 21.82C19.9565 22.1611 19.6288 22.5788 19.3959 23.0477C19.1631 23.5167 19.03 24.0271 19.0047 24.548C18.9794 25.0689 19.0625 25.5894 19.2489 26.0779C19.4353 26.5663 19.7211 27.0126 20.0889 27.3895L25.3778 32.7412C25.4577 32.8233 25.5538 32.8886 25.6603 32.9333C25.7667 32.978 25.8813 33.001 25.9971 33.001C26.1129 33.001 26.2276 32.978 26.334 32.9333C26.4405 32.8886 26.5365 32.8233 26.6164 32.7412L31.9092 27.3895C32.2777 27.013 32.5641 26.5669 32.751 26.0784C32.9379 25.59 33.0213 25.0694 32.9962 24.5483C32.9711 24.0273 32.838 23.5167 32.605 23.0476C32.372 22.5786 32.044 22.1609 31.6409 21.82Z" fill="#FCECDE"/>
</g>
<defs>
<clipPath id="clip0_365_1867">
<rect width="14" height="12" fill="white" transform="translate(19 21)"/>
</clipPath>
</defs>
</svg>
