<svg width="34" height="30" viewBox="0 0 34 30" fill="none" xmlns="http://www.w3.org/2000/svg">
<path d="M23.0283 11.2824C20.0211 10.4452 20.1349 7.66557 20.2324 6.88532C20.5088 6.80404 20.7119 6.56021 20.7119 6.25949V4.65834C20.7119 4.2926 20.4194 4 20.0536 4H13.901C13.5352 4 13.2426 4.2926 13.2426 4.65834V6.25949C13.2426 6.56021 13.4458 6.80404 13.7222 6.88532C13.8197 7.66557 13.9416 10.4452 10.9263 11.2824C10.9263 11.2824 9 11.5018 9 13.7451L10.146 23.7665C10.2029 24.3679 10.7149 24.823 11.3164 24.823H22.6219C23.2234 24.823 23.7354 24.3679 23.7923 23.7665L24.9383 13.7451C24.9383 11.51 23.0121 11.2824 23.0121 11.2824H23.0283Z" stroke="white" stroke-width="2" stroke-linecap="round" stroke-linejoin="round"/>
<path d="M24.873 14.4118H20.224C19.8013 13.0138 18.5172 11.9897 16.9729 11.9897C15.4287 11.9897 14.1526 13.0138 13.7219 14.4118H9.00781" stroke="white" stroke-width="2" stroke-miterlimit="10"/>
<path d="M9.93457 21.043H16.9812H24.0442" stroke="white" stroke-width="2" stroke-miterlimit="10"/>
</svg>
