<svg width="18" height="18" viewBox="0 0 18 18" fill="none" xmlns="http://www.w3.org/2000/svg">
<mask id="mask0_651_4426" style="mask-type:alpha" maskUnits="userSpaceOnUse" x="0" y="0" width="18" height="18">
<rect width="18" height="18" fill="#D9D9D9"/>
</mask>
<g mask="url(#mask0_651_4426)">
<path d="M8.24888 2.45228L6.54007 5.81406L2.71637 6.35575C2.56178 6.37773 2.4166 6.44121 2.29723 6.53903C2.17786 6.63685 2.08906 6.7651 2.04086 6.9093C1.99266 7.0535 1.98698 7.20791 2.02446 7.35508C2.06195 7.50224 2.14109 7.63631 2.25297 7.74214L5.01923 10.3567L4.366 14.0511C4.33972 14.2004 4.35699 14.3538 4.41586 14.4941C4.47472 14.6344 4.57283 14.7559 4.69912 14.8449C4.8254 14.9339 4.97482 14.9869 5.1305 14.9979C5.28618 15.0088 5.44193 14.9774 5.58015 14.907L9.00075 13.1627L12.4213 14.907C12.5595 14.9768 12.7151 15.0079 12.8704 14.9966C13.0258 14.9854 13.1749 14.9323 13.3009 14.8434C13.4269 14.7545 13.5248 14.6332 13.5836 14.4933C13.6425 14.3533 13.6599 14.2002 13.634 14.0511L12.9808 10.3567L15.747 7.74214C15.8589 7.63631 15.9381 7.50224 15.9755 7.35508C16.013 7.20791 16.0073 7.0535 15.9591 6.9093C15.9109 6.7651 15.8221 6.63685 15.7028 6.53903C15.5834 6.44121 15.4382 6.37773 15.2836 6.35575L11.4599 5.81406L9.75112 2.45228C9.68179 2.31648 9.57472 2.20218 9.44201 2.12226C9.30929 2.04235 9.1562 2 9 2C8.8438 2 8.69071 2.04235 8.55799 2.12226C8.42528 2.20218 8.31821 2.31648 8.24888 2.45228Z" fill="#D6690F"/>
</g>
</svg>
