<svg width="34" height="30" viewBox="0 0 34 30" fill="none" xmlns="http://www.w3.org/2000/svg">
<path d="M7 6.58496H12.9994C14.0602 6.58496 15.0775 7.00635 15.8276 7.75642C16.5776 8.50649 16.999 9.52381 16.999 10.5846V23.8148C16.999 23.4208 16.9214 23.0308 16.7707 22.6668C16.6199 22.3029 16.399 21.9722 16.1204 21.6937C15.8419 21.4151 15.5112 21.1942 15.1473 21.0434C14.7833 20.8927 14.3932 20.8151 13.9993 20.8151H7V6.58496Z" stroke="white" stroke-width="2" stroke-linecap="round" stroke-linejoin="round"/>
<path d="M26.9998 6.58496H20.9996C19.9388 6.58496 18.9215 7.00635 18.1715 7.75642C17.4214 8.50649 17 9.52381 17 10.5846V23.8148C17 23.0192 17.316 22.2562 17.8786 21.6937C18.4411 21.1311 19.2041 20.8151 19.9997 20.8151H26.999L26.9998 6.58496Z" stroke="white" stroke-width="2" stroke-linecap="round" stroke-linejoin="round"/>
</svg>
