<svg width="54" height="54" viewBox="0 0 54 54" fill="none" xmlns="http://www.w3.org/2000/svg">
<g clip-path="url(#clip0_1448_1275)">
<g clip-path="url(#clip1_1448_1275)">
<path d="M27 54C41.9117 54 54 41.9117 54 27C54 12.0883 41.9117 0 27 0C12.0883 0 0 12.0883 0 27C0 41.9117 12.0883 54 27 54Z" fill="#3B77EA"/>
<path d="M33.0829 29.6271L33.809 24.5994H29.2694V21.3366C29.2694 19.9614 29.9033 18.6202 31.9364 18.6202H34V14.3396C32.7886 14.1316 31.5645 14.0181 30.3375 14C26.601 14 24.1555 16.4077 24.1555 20.7671V24.5986H20V29.6271H24.1555V43H29.2694V29.6271H33.0829Z" fill="white"/>
</g>
</g>
<defs>
<clipPath id="clip0_1448_1275">
<rect width="54" height="54" fill="white"/>
</clipPath>
<clipPath id="clip1_1448_1275">
<rect width="54" height="54" fill="white"/>
</clipPath>
</defs>
</svg>
