<svg width="54" height="54" viewBox="0 0 54 54" fill="none" xmlns="http://www.w3.org/2000/svg">
<g clip-path="url(#clip0_342_1418)">
<path d="M27 54C41.9117 54 54 41.9117 54 27C54 12.0883 41.9117 0 27 0C12.0883 0 0 12.0883 0 27C0 41.9117 12.0883 54 27 54Z" fill="#FAE132"/>
<path d="M26.8506 15.8101C19.5291 15.8101 13.5954 20.3389 13.5954 25.9243C13.5954 29.3866 15.8751 32.443 19.3554 34.2664L18.3969 39.1975C18.3889 39.2532 18.3971 39.3101 18.4205 39.3614C18.444 39.4126 18.4817 39.456 18.5291 39.4864C18.5766 39.5168 18.6318 39.5328 18.6882 39.5327C18.7445 39.5325 18.7996 39.5161 18.8469 39.4855L24.5412 35.8855C24.5412 35.8855 26.064 36.0394 26.8524 36.0394C34.173 36.0394 40.1076 31.5106 40.1076 25.9252C40.1076 20.3398 34.1712 15.8101 26.8506 15.8101Z" fill="#3C1E1E"/>
</g>
<defs>
<clipPath id="clip0_342_1418">
<rect width="54" height="54" fill="white"/>
</clipPath>
</defs>
</svg>
