<svg width="54" height="54" viewBox="0 0 54 54" fill="none" xmlns="http://www.w3.org/2000/svg">
<g clip-path="url(#clip0_342_1426)">
<g clip-path="url(#clip1_342_1426)">
<path d="M27 0C32.3401 0 37.5603 1.58352 42.0004 4.55032C46.4405 7.51712 49.9012 11.7339 51.9447 16.6675C53.9883 21.6012 54.523 27.03 53.4812 32.2674C52.4394 37.5049 49.8679 42.3159 46.0919 46.0919C42.3159 49.8679 37.5049 52.4394 32.2674 53.4812C27.03 54.523 21.6012 53.9883 16.6675 51.9447C11.7339 49.9012 7.51712 46.4405 4.55032 42.0004C1.58352 37.5603 0 32.3401 0 27C0 19.8392 2.84463 12.9716 7.90812 7.90812C12.9716 2.84463 19.8392 0 27 0Z" fill="#24C730"/>
<path d="M17.6713 17.7734H23.922L30.1781 27.5979V17.7734H36.45V36.5697H30.1781L23.922 26.3674V36.5697H17.6713V17.7734Z" fill="white"/>
</g>
</g>
<defs>
<clipPath id="clip0_342_1426">
<rect width="54" height="54" fill="white"/>
</clipPath>
<clipPath id="clip1_342_1426">
<rect width="54" height="54" fill="white"/>
</clipPath>
</defs>
</svg>
