<svg width="54" height="54" viewBox="0 0 54 54" fill="none" xmlns="http://www.w3.org/2000/svg">
<g clip-path="url(#clip0_342_1437)">
<g clip-path="url(#clip1_342_1437)">
<path d="M27 54C41.9117 54 54 41.9117 54 27C54 12.0883 41.9117 0 27 0C12.0883 0 0 12.0883 0 27C0 41.9117 12.0883 54 27 54Z" fill="white"/>
<path d="M27 53.5502C41.6632 53.5502 53.55 41.6634 53.55 27.0002C53.55 12.337 41.6632 0.450195 27 0.450195C12.3369 0.450195 0.450012 12.337 0.450012 27.0002C0.450012 41.6634 12.3369 53.5502 27 53.5502Z" stroke="#E3E3E3"/>
<path fill-rule="evenodd" clip-rule="evenodd" d="M39.1788 27.0921C39.1795 26.2232 39.1024 25.3561 38.9484 24.501H27.018V29.4006H33.8355C33.6944 30.1756 33.3976 30.914 32.9631 31.5712C32.5286 32.2283 31.9653 32.7905 31.3074 33.2238V36.4017H35.4015C36.6487 35.2012 37.6297 33.752 38.2809 32.1481C38.932 30.5442 39.2389 28.8213 39.1815 27.0912" fill="#3E82F1"/>
<path fill-rule="evenodd" clip-rule="evenodd" d="M27.018 39.4709C30.1016 39.5545 33.1007 38.4567 35.4015 36.4019L31.3074 33.2231C30.328 33.8518 29.218 34.2485 28.062 34.383C26.906 34.5175 25.7346 34.3862 24.637 33.999C23.5395 33.6119 22.5449 32.9793 21.7291 32.1493C20.9133 31.3193 20.2978 30.314 19.9296 29.21H15.6996V32.4923C16.7538 34.5908 18.3708 36.3548 20.3699 37.5872C22.369 38.8196 24.6714 39.4717 27.0198 39.4709" fill="#32A753"/>
<path fill-rule="evenodd" clip-rule="evenodd" d="M19.9305 29.2107C19.4009 27.65 19.4009 25.9582 19.9305 24.3975V21.1152H15.7005C14.8144 22.8807 14.353 24.8288 14.353 26.8041C14.353 28.7795 14.8144 30.7275 15.7005 32.493L19.9305 29.2107Z" fill="#F9BB00"/>
<path fill-rule="evenodd" clip-rule="evenodd" d="M27.018 19.1756C28.8181 19.1437 30.5583 19.8228 31.8609 21.0656L35.4942 17.4323C33.2008 15.2796 30.1632 14.0982 27.018 14.1356C24.6695 14.1348 22.367 14.7872 20.3679 16.0197C18.3688 17.2522 16.7519 19.0164 15.6978 21.1151L19.9278 24.3974C20.4149 22.8953 21.3608 21.5837 22.6324 20.6473C23.904 19.7109 25.4372 19.1968 27.0162 19.1774" fill="#E74133"/>
</g>
</g>
<defs>
<clipPath id="clip0_342_1437">
<rect width="54" height="54" fill="white"/>
</clipPath>
<clipPath id="clip1_342_1437">
<rect width="54" height="54" fill="white"/>
</clipPath>
</defs>
</svg>
