<svg width="54" height="54" viewBox="0 0 54 54" fill="none" xmlns="http://www.w3.org/2000/svg">
<g clip-path="url(#clip0_1090_2510)">
<g clip-path="url(#clip1_1090_2510)">
<path d="M54 27C54 12.0883 41.9117 0 27 0C12.0883 0 0 12.0883 0 27C0 41.9117 12.0883 54 27 54C41.9117 54 54 41.9117 54 27Z" fill="black"/>
<path d="M27.3745 20.7296C27.806 20.7296 28.5107 20.5618 29.4887 20.2263C30.4667 19.8907 31.3152 19.7229 32.0343 19.7229C33.2136 19.7229 34.2635 20.0393 35.184 20.6721C35.7018 21.0364 36.2147 21.5302 36.7229 22.1535C35.9558 22.8054 35.3949 23.3855 35.0402 23.8937C34.3978 24.8141 34.0766 25.8305 34.0766 26.9427C34.0766 28.1604 34.417 29.2582 35.0977 30.2362C35.7785 31.2142 36.5551 31.8326 37.4276 32.0915C37.0633 33.2708 36.4592 34.5029 35.6155 35.7877C34.3402 37.7149 33.0746 38.6785 31.8186 38.6785C31.32 38.6785 30.6297 38.5203 29.7476 38.2039C28.875 37.8875 28.1368 37.7293 27.5327 37.7293C26.9287 37.7293 26.2239 37.8923 25.4185 38.2183C24.6227 38.5538 23.9755 38.7216 23.477 38.7216C21.9716 38.7216 20.4951 37.4464 19.0473 34.896C17.5995 32.3743 16.8756 29.9006 16.8756 27.4748C16.8756 25.2216 17.4269 23.3855 18.5295 21.9665C19.6417 20.5475 21.0416 19.8379 22.7291 19.8379C23.4482 19.8379 24.3159 19.9866 25.3323 20.2838C26.3582 20.581 27.0389 20.7296 27.3745 20.7296ZM31.8761 14.7898C31.8761 15.4035 31.7323 16.0746 31.4446 16.8033C31.157 17.532 30.7016 18.208 30.0784 18.8312C29.5414 19.3585 29.0093 19.7133 28.4819 19.8955C28.1464 20.0009 27.6382 20.0824 26.9574 20.14C26.9766 18.6826 27.3553 17.4217 28.0936 16.3575C28.8415 15.2932 30.0736 14.5645 31.7898 14.1714C31.8282 14.296 31.8521 14.4063 31.8617 14.5022C31.8713 14.5981 31.8761 14.6939 31.8761 14.7898Z" fill="white"/>
</g>
</g>
<defs>
<clipPath id="clip0_1090_2510">
<rect width="54" height="54" fill="white"/>
</clipPath>
<clipPath id="clip1_1090_2510">
<rect width="54" height="54" fill="white"/>
</clipPath>
</defs>
</svg>
