<svg width="142" height="148" viewBox="0 0 142 148" fill="none" xmlns="http://www.w3.org/2000/svg">
<g opacity="0.1">
<g clip-path="url(#clip0_964_2135)">
<path d="M235.63 34.9978C235.63 34.9978 235.63 35.4433 235.63 35.3319C235.972 37.1137 236.544 39.1183 236.772 40.566C236.887 41.4569 237.801 42.0137 238.715 42.0137C239.629 42.0137 240.429 40.4547 240.543 39.4524C240.543 39.4524 240.543 39.341 240.543 39.2297C240.543 38.0047 240.543 36.7797 240.201 35.5547C240.201 35.2206 240.201 34.8865 240.086 34.5524V34.1069C240.086 32.4365 239.858 30.8774 239.629 29.2069C239.515 27.7592 239.172 26.2001 238.486 24.1956C238.486 23.1933 238.258 22.191 238.144 21.3001C238.144 21.3001 238.144 21.3001 238.144 21.1887C238.372 20.7433 238.486 20.1865 238.258 19.6297C225.459 -16.5635 195.863 -44.9612 159.181 -56.4317C159.181 -56.4317 159.181 -56.4317 159.067 -56.4317L157.924 -56.7658H157.582C146.269 -60.1067 134.499 -61.7772 122.614 -61.7772C55.0793 -61.9999 0 -7.09762 0 60.5001C0 128.098 55.0793 183 122.729 183C186.15 183 239.858 133.666 245 70.5228C245 70.4115 245 70.1887 245 70.0774C245 69.966 245 69.8547 245 69.7433C245 69.1865 244.543 68.6297 244.086 68.2956C243.629 68.0728 243.172 67.8501 242.715 67.516C242.6 67.516 242.486 67.516 242.372 67.4046C241.8 67.2933 241.115 67.1819 240.658 67.1819C239.972 66.7365 239.286 66.6251 238.601 66.8478C238.029 67.0706 237.572 67.516 237.344 68.2956C236.772 68.0728 236.201 68.0728 235.63 68.2956C235.058 68.6297 234.715 69.1865 234.715 69.8547C234.715 70.9683 234.715 72.0819 234.715 72.8615C234.601 73.641 234.487 73.7524 234.258 73.9751C233.458 74.866 233.116 75.7569 233.116 78.541C233.116 78.8751 233.23 79.3206 233.458 79.5433C233.458 79.766 233.573 80.2115 233.573 80.7683C233.573 81.4365 233.573 82.4388 234.03 83.3297C233.573 86.1137 233.116 88.5637 232.544 90.9024C232.201 92.2387 231.973 93.5751 231.744 94.8001C231.173 96.5819 231.059 97.9183 230.83 99.0319C230.716 99.9228 230.602 100.814 230.259 101.705C230.259 101.927 230.259 102.039 230.259 102.261C230.259 102.484 229.916 103.152 229.802 103.486C229.345 104.489 228.888 105.38 229.23 106.271C229.002 107.273 228.659 108.386 228.316 109.389L225.688 115.514C224.774 117.296 223.974 118.966 223.06 120.859C222.831 121.416 222.831 122.084 223.174 122.53C222.831 122.975 222.26 123.755 221.803 124.311C220.66 125.648 219.632 127.096 219.174 128.432C218.603 128.877 218.146 129.323 217.803 129.768C217.232 130.436 216.66 131.216 215.975 132.107C215.061 133.443 214.032 134.891 212.889 135.559C212.661 135.671 212.432 135.893 212.318 136.116C211.404 137.452 210.261 138.566 208.89 139.902L204.89 143.911C204.09 144.802 203.062 145.582 202.034 146.361L196.434 150.705C195.52 151.707 194.263 152.375 193.12 153.266C192.663 153.6 192.206 153.823 191.863 154.157C190.149 155.271 188.435 156.384 186.721 157.386C184.778 158.277 182.836 159.28 180.779 160.171C180.208 160.393 179.636 160.727 178.951 161.061C177.579 161.73 176.094 162.398 174.494 162.955C174.037 163.066 173.694 163.4 173.465 163.734C173.465 163.734 173.351 163.734 173.237 163.846C172.78 164.068 172.323 164.291 171.98 164.736L167.295 166.518C166.152 166.964 165.009 167.186 163.867 167.521C163.181 167.743 162.61 167.855 161.924 168.077L161.01 168.3C158.382 169.08 155.296 169.971 152.097 170.416C151.068 170.639 150.04 170.75 149.011 170.973C146.383 171.418 143.983 171.864 141.812 171.975C141.469 171.975 141.355 171.975 141.012 172.198C140.898 172.198 140.669 172.198 140.441 172.198C139.869 172.198 138.841 172.421 138.041 172.977C136.098 172.755 134.042 172.977 131.756 173.534C131.07 173.423 130.156 173.423 129.356 173.423C129.014 173.423 128.671 173.423 128.328 173.423C127.985 173.089 127.414 172.977 126.957 172.977C126.728 172.977 126.385 172.977 126.042 172.977C125.243 172.977 124.214 172.977 123.414 173.311C122.614 173.423 121.129 173.311 119.872 173.311C118.958 173.311 118.158 173.311 117.243 173.423C116.101 172.755 113.815 172.532 112.558 172.866C112.558 172.866 111.644 172.866 111.187 172.866C110.159 172.866 108.787 172.866 107.645 173.089C105.473 171.864 103.645 171.418 102.274 171.864H102.045C100.674 171.307 99.417 170.973 96.6744 171.307H96.2173C96.2173 171.307 95.7603 170.861 95.5317 170.639C95.3032 170.082 94.7318 169.748 94.1604 169.636C91.9893 169.414 88.9039 168.634 86.1614 167.632C83.3046 166.407 80.1049 165.071 77.7052 164.625C76.5625 164.291 75.534 163.734 74.5056 163.066C74.0485 162.843 73.5914 162.509 73.0201 162.286L71.6488 161.618C69.5919 160.616 67.3064 159.391 65.1353 158.723L64.2211 158.055C63.5354 157.609 62.8498 157.164 62.0499 156.607C60.9072 155.827 59.7645 155.048 58.5075 154.157L55.3078 151.93C54.1651 151.15 53.0224 150.371 51.7654 149.702C51.3083 149.257 50.8512 148.923 50.2799 148.477C49.2514 147.586 48.2229 146.807 47.3088 145.693C45.8232 144.246 44.452 142.798 43.0807 141.573C42.0522 140.571 41.8237 140.014 41.4809 139.234C41.2523 138.566 40.9095 138.009 40.3382 137.118C40.3382 137.118 40.2239 136.896 40.1096 136.784C38.5098 135.225 36.7957 133.443 35.0816 131.661C35.4244 131.661 35.8815 131.439 36.2243 131.105C37.5956 129.768 36.5672 128.432 34.396 125.314C33.5961 124.2 32.3391 122.307 32.1105 121.75C31.9963 121.193 31.5392 120.748 31.0821 120.525C31.0821 120.525 30.8535 120.525 30.7393 120.525C30.7393 120.525 30.625 120.525 30.625 120.414C30.0536 119.968 29.1395 119.189 27.9967 119.523C27.7682 119.523 27.6539 119.746 27.4254 119.857L27.0826 119.3C25.9398 116.627 24.7971 115.959 23.6544 115.402C23.4258 115.402 23.3116 115.291 23.1973 115.18C22.6259 114.734 21.9403 114.734 21.2547 114.957C21.0261 115.068 20.7976 115.291 20.569 115.402L19.1978 113.955C19.1978 113.955 19.1978 113.732 19.0835 113.509L15.8839 106.048C15.3125 104.711 14.7411 103.375 14.284 101.927L11.4272 93.3524C11.1987 92.3501 10.9701 91.3478 10.7416 90.4569C10.7416 90.1228 10.5131 89.7887 10.1702 89.566C9.9417 88.4524 9.59888 87.3387 9.25606 85.3342C9.59888 85.2228 9.82743 85.0001 10.056 84.7774C10.3988 84.4433 10.5131 83.8865 10.5131 83.441C10.5131 82.8842 10.5131 82.216 10.5131 81.6592C10.5131 81.2137 10.5131 80.7683 10.5131 80.3228C10.5131 80.2115 10.5131 79.9887 10.5131 79.8774L10.2845 79.0978C10.056 78.4297 9.9417 77.7615 9.59888 77.2047C9.59888 75.8683 9.37034 74.5319 9.25606 73.0842C9.14179 71.3024 8.91325 69.4092 8.91325 67.4046C8.79897 65.6228 8.57043 63.841 8.34188 62.2819C8.34188 61.5024 8.11334 60.7228 7.99907 60.166V59.6092C7.99907 59.6092 7.77052 58.7183 7.77052 58.6069C7.77052 57.0478 7.77052 55.3774 7.65625 53.9296C7.65625 52.5933 7.77052 51.3683 7.88479 50.1433C8.79897 49.4751 8.91325 48.0274 9.02752 46.4683C9.02752 45.6887 9.14179 44.241 9.37034 43.7956C9.48461 43.5728 9.59888 43.3501 9.71315 43.016C9.82743 42.1251 10.056 41.791 10.2845 41.3456C10.7416 40.4547 11.1987 39.6751 11.313 37.6706C11.313 37.5592 11.313 37.3365 11.313 37.2251C11.313 36.891 11.313 36.5569 11.1987 36.1115V35.5547C11.5415 34.2183 11.7701 33.1047 11.6558 31.4342L11.8843 30.6547C12.1129 30.0978 12.2271 29.4297 12.4557 28.8728C12.6842 27.8706 13.0271 26.9797 13.3699 25.9774L17.0266 16.8456L21.9403 7.49102C22.1688 6.82284 22.6259 6.15466 22.9688 5.48647C23.1973 5.04102 23.4258 4.59557 23.6544 4.26147L24.34 3.2592C25.2542 1.92284 25.9398 0.92057 26.5112 -0.193069C26.9683 -0.861248 27.3111 -1.6408 27.7682 -2.42035C28.111 -3.08852 28.4538 -3.75671 28.7966 -4.31353C29.0252 -4.64762 29.368 -4.9817 29.5965 -5.3158C30.625 -6.54079 31.6535 -7.65443 32.5676 -8.65671L34.0532 -10.3272C34.0532 -10.3272 34.9674 -11.2181 35.4244 -11.7749C36.6814 -12.9999 38.0527 -14.4476 39.3097 -16.0067C39.9953 -16.6749 40.3382 -17.3431 40.681 -17.8999C41.0238 -18.4567 41.1381 -18.6794 41.8237 -19.1249C43.8806 -20.684 45.8232 -22.4658 47.7659 -24.2476C48.1087 -24.5817 48.4515 -24.8044 48.7943 -25.1385C49.3657 -25.6953 50.0513 -26.2522 50.7369 -26.809C51.7654 -27.5885 52.9081 -28.3681 54.0508 -29.0363C56.5648 -30.2612 57.9361 -31.709 59.1931 -32.8226C60.4501 -33.8249 61.7071 -34.8272 64.1068 -35.7181C64.7924 -36.1635 65.4781 -36.4976 66.1637 -36.9431C67.3064 -37.6112 68.4492 -38.2794 69.5919 -38.8363L75.1912 -41.3976C77.591 -42.6226 80.1049 -43.5135 82.6189 -44.2931C83.6474 -44.6272 84.5616 -44.9612 85.59 -45.2953C87.8755 -46.1862 90.1609 -46.6317 92.6749 -47.1885C93.8176 -47.4112 94.9604 -47.634 96.1031 -47.9681C98.3885 -48.6362 100.903 -48.9703 103.531 -49.1931C104.788 -49.3044 106.045 -49.5272 107.645 -49.7499L108.673 -50.084C109.244 -50.3067 109.93 -50.5294 110.501 -50.6408H119.072C119.986 -50.1953 121.357 -50.1953 123.414 -50.084C124.443 -50.084 126.042 -50.084 126.385 -49.9726C127.185 -49.3044 128.214 -49.5272 129.471 -49.4158C131.299 -49.1931 133.013 -49.0817 134.042 -49.8612C134.384 -49.8612 135.07 -49.6385 135.527 -49.5272C136.327 -49.3044 137.241 -48.9703 138.27 -48.9703C139.527 -48.6362 140.669 -48.4135 141.812 -48.1908C143.755 -47.7453 145.583 -47.4112 147.526 -46.8544C148.783 -46.2976 150.725 -45.8522 153.468 -45.6294C154.268 -45.184 155.41 -44.8499 157.01 -44.4044C157.924 -44.1817 159.296 -43.8476 159.524 -43.7362C159.753 -43.4022 160.096 -43.1794 160.553 -42.9567C161.581 -42.6226 162.495 -42.3999 163.524 -42.0658C165.352 -41.509 167.066 -41.0635 168.78 -40.3953C169.123 -40.284 169.237 -40.1726 169.58 -39.9499C170.037 -39.6158 170.723 -39.059 172.323 -38.8363C174.951 -38.8363 175.294 -38.3908 175.865 -37.4999C177.008 -35.9408 178.379 -34.6044 182.379 -33.8249C185.921 -32.5999 188.321 -30.5953 190.492 -28.9249L190.949 -28.5908C192.892 -26.5863 194.606 -26.1408 195.977 -25.6953C196.663 -25.4726 197.234 -25.3613 197.805 -25.0272C198.034 -24.6931 198.263 -24.4703 198.491 -24.1362C198.491 -23.6908 198.834 -23.2453 199.291 -23.0226C199.52 -22.9113 199.748 -22.6885 200.091 -22.4658C200.777 -21.909 201.462 -21.3522 202.262 -21.3522C202.948 -21.0181 203.405 -20.4613 203.862 -19.9044C204.319 -19.3476 204.89 -18.6794 205.919 -17.8999C205.919 -17.3431 206.033 -16.7863 206.49 -16.3408L209.69 -13.4453C210.49 -12.6658 211.175 -11.8862 211.861 -11.1067L212.775 -10.1044C212.775 -10.1044 213.575 -9.10216 214.146 -8.43398C214.375 -8.09989 214.832 -7.7658 215.061 -7.43171C215.061 -6.98625 215.175 -6.65216 215.518 -6.31807L215.861 -5.98397C216.432 -5.42716 216.889 -4.87035 217.689 -3.86807C218.146 -3.42262 218.489 -2.8658 218.946 -2.19762C219.632 -1.30671 220.203 -0.415798 220.889 0.586475C221.346 1.36602 221.917 2.0342 222.26 2.47966C223.174 4.37284 223.974 5.82056 224.774 7.15693C225.688 8.71602 226.488 10.1637 227.402 12.1683C227.173 12.8365 227.402 13.616 227.402 14.1728C226.945 14.5069 226.602 15.0637 226.602 15.6206C226.602 17.291 227.288 18.8501 228.088 20.4092C228.659 21.5228 229.23 22.8592 229.345 23.9728C229.345 24.3069 229.459 24.641 229.688 24.8637C229.916 25.1978 230.259 26.3115 230.373 26.9797C230.83 28.6501 231.173 30.0978 232.316 30.6547C232.773 30.8774 233.573 30.9887 234.03 30.8774C234.03 30.8774 235.287 29.9865 236.772 34.7751" fill="#D6690F"/>
</g>
</g>
<defs>
<clipPath id="clip0_964_2135">
<rect width="142" height="148" fill="white"/>
</clipPath>
</defs>
</svg>
