<svg width="52" height="52" viewBox="0 0 52 52" fill="none" xmlns="http://www.w3.org/2000/svg">
<path d="M18.6912 41.72C18.6978 41.6067 18.7012 41.4933 18.7012 41.38V41.05H13.5712V40H20.0112V40.87C20.0112 41.3233 19.9978 41.7933 19.9712 42.28C19.9512 42.76 19.8778 43.3 19.7512 43.9L18.4512 43.81C18.4912 43.6033 18.5245 43.41 18.5512 43.23C18.5845 43.0433 18.6112 42.8633 18.6312 42.69L13.4812 42.92L13.3312 41.83L18.6912 41.72ZM20.9412 45.41H12.6512V44.37H15.7212V43.25H17.0412V44.37H20.9412V45.41ZM20.1612 47.67V48.73H13.6112V45.99H14.9312V47.67H20.1612ZM28.4304 46.53V39.65H29.6804V46.53H28.4304ZM25.7204 43.21V42.16H26.6204V39.83H27.8504V46.33H26.6204V43.21H25.7204ZM26.0904 45.04C25.8304 45.0867 25.5771 45.1233 25.3304 45.15C25.0837 45.1767 24.8304 45.2 24.5704 45.22C24.3171 45.2333 24.0471 45.2433 23.7604 45.25C23.4737 45.25 23.1604 45.25 22.8204 45.25H22.1904V40.36H25.6504V41.4H23.4604V42.29H25.3304V43.28H23.4604V44.21C23.9404 44.21 24.3771 44.1967 24.7704 44.17C25.1704 44.1433 25.5737 44.09 25.9804 44.01L26.0904 45.04ZM29.9104 48.7H23.5504V45.8H24.8704V47.65H29.9104V48.7ZM31.3096 44.47C31.8296 44.3967 32.2863 44.2767 32.6796 44.11C33.0729 43.9433 33.3996 43.7467 33.6596 43.52C33.9263 43.2933 34.1296 43.0467 34.2696 42.78C34.4163 42.5133 34.4996 42.2433 34.5196 41.97H31.7496V40.92H34.5396V39.79H35.8596V40.92H38.6496V41.97H35.8796C35.8996 42.2433 35.9796 42.5133 36.1196 42.78C36.2663 43.0467 36.4696 43.2933 36.7296 43.52C36.9963 43.7467 37.3229 43.9433 37.7096 44.11C38.1029 44.2767 38.5596 44.3967 39.0796 44.47L38.5996 45.54C37.7396 45.42 37.0329 45.1867 36.4796 44.84C35.9329 44.4933 35.5063 44.07 35.1996 43.57C34.8929 44.07 34.4629 44.4933 33.9096 44.84C33.3629 45.1867 32.6596 45.42 31.7996 45.54L31.3096 44.47ZM39.3696 47.8H31.0296V46.73H39.3696V47.8Z" fill="#D6690F"/>
<path d="M37 8.94727H14V15.2395H37V8.94727Z" stroke="#D6690F" stroke-width="2" stroke-linecap="round" stroke-linejoin="round"/>
<path d="M35.4322 15.2397H15.5676V29.8761H35.4322V15.2397Z" stroke="#D6690F" stroke-width="2" stroke-linecap="round" stroke-linejoin="round"/>
<path d="M21.3181 23.7334H29.6818" stroke="#D6690F" stroke-width="2" stroke-linecap="round" stroke-linejoin="round"/>
</svg>
