<svg width="52" height="52" viewBox="0 0 52 52" fill="none" xmlns="http://www.w3.org/2000/svg">
<path d="M23.6108 39.65H24.9308V46.36H23.6108V43.2H22.3108V42.15H23.6108V39.65ZM22.7708 44.84C22.3174 44.92 21.8541 44.9833 21.3808 45.03C20.9074 45.0767 20.4374 45.11 19.9708 45.13C19.5108 45.15 19.0608 45.1633 18.6208 45.17C18.1808 45.1767 17.7641 45.18 17.3708 45.18L17.2308 44.11H18.1908V41.43H17.4608V40.38H22.3608V41.43H21.6208V43.98C21.8008 43.9667 21.9774 43.9533 22.1508 43.94C22.3308 43.92 22.5074 43.9 22.6808 43.88L22.7708 44.84ZM19.4608 44.09C19.6141 44.0833 19.7641 44.08 19.9108 44.08C20.0574 44.0733 20.2074 44.0633 20.3608 44.05V41.43H19.4608V44.09ZM25.1408 48.7H18.8508V45.81H20.1808V47.65H25.1408V48.7ZM32.75 45.15V39.64H34.08V45.15H32.75ZM32.17 44.31C31.87 44.37 31.5667 44.42 31.26 44.46C30.9533 44.4933 30.6267 44.5233 30.28 44.55C29.9333 44.57 29.5533 44.5833 29.14 44.59C28.7333 44.5967 28.27 44.6 27.75 44.6H26.95V44.14H26.94V40.34H31.31V41.39H28.26V43.54C28.68 43.54 29.0633 43.5367 29.41 43.53C29.7567 43.5233 30.08 43.51 30.38 43.49C30.68 43.4633 30.9633 43.4333 31.23 43.4C31.5033 43.36 31.7733 43.31 32.04 43.25L32.17 44.31ZM30.97 45.24C31.45 45.24 31.8833 45.2833 32.27 45.37C32.6633 45.45 32.9933 45.5667 33.26 45.72C33.5333 45.8733 33.7433 46.0633 33.89 46.29C34.0367 46.5167 34.11 46.7733 34.11 47.06C34.11 47.3467 34.0367 47.6033 33.89 47.83C33.7433 48.05 33.5333 48.2367 33.26 48.39C32.9933 48.55 32.6633 48.67 32.27 48.75C31.8833 48.8367 31.45 48.88 30.97 48.88C30.4833 48.88 30.0467 48.8367 29.66 48.75C29.2733 48.67 28.9433 48.55 28.67 48.39C28.3967 48.2367 28.1867 48.05 28.04 47.83C27.8933 47.6033 27.82 47.3467 27.82 47.06C27.82 46.7733 27.8933 46.5167 28.04 46.29C28.1867 46.0633 28.3967 45.8733 28.67 45.72C28.9433 45.5667 29.2733 45.45 29.66 45.37C30.0467 45.2833 30.4833 45.24 30.97 45.24ZM30.97 47.86C32.19 47.86 32.8 47.5933 32.8 47.06C32.8 46.78 32.6467 46.58 32.34 46.46C32.0333 46.3333 31.5767 46.27 30.97 46.27C30.3633 46.27 29.9033 46.3333 29.59 46.46C29.2833 46.58 29.13 46.78 29.13 47.06C29.13 47.5933 29.7433 47.86 30.97 47.86Z" fill="#BABABA"/>
<path d="M22.3685 10.2651C24.0178 9.38269 26.3499 8.83643 28.9342 8.83643C33.9451 8.83643 38 10.8954 38 13.4481C38 16.0009 33.9451 18.0599 28.9342 18.0599C28.7976 18.0599 28.6716 18.0599 28.535 18.0599" stroke="#BABABA" stroke-width="2" stroke-linecap="round" stroke-linejoin="round"/>
<path d="M25.5831 24.6359C26.7912 24.8775 28.0098 25.0456 28.9237 25.0456C33.9346 25.0456 37.9896 22.9866 37.9896 20.4339V13.8052" stroke="#BABABA" stroke-width="2" stroke-linecap="round" stroke-linejoin="round"/>
<path d="M25.5831 31.9792C26.6231 32.1893 27.7471 32.3049 28.9237 32.3049C33.9346 32.3049 37.9896 30.2459 37.9896 27.6931V21.0645" stroke="#BABABA" stroke-width="2" stroke-linecap="round" stroke-linejoin="round"/>
<path d="M30.3628 20.3605L21.1814 8.77344L12 20.3605H16.7798V31.9791H25.583V20.3605H30.3628Z" stroke="#BABABA" stroke-width="2" stroke-linecap="round" stroke-linejoin="round"/>
</svg>
