<svg width="52" height="52" viewBox="0 0 52 52" fill="none" xmlns="http://www.w3.org/2000/svg">
<path d="M22.2204 41.29V40.3H25.3304V39.58H26.6504V40.3H29.7204V41.29H22.2204ZM30.1604 45.6H21.8204V44.58H25.3304V44.12C24.5437 44.0733 23.9437 43.9433 23.5304 43.73C23.1171 43.5167 22.9104 43.2167 22.9104 42.83C22.9104 41.9567 23.9371 41.52 25.9904 41.52C28.0504 41.52 29.0804 41.9567 29.0804 42.83C29.0804 43.2167 28.8704 43.5167 28.4504 43.73C28.0371 43.9433 27.4371 44.0733 26.6504 44.12V44.58H30.1604V45.6ZM24.3204 42.83C24.3204 42.9833 24.4504 43.0933 24.7104 43.16C24.9771 43.2267 25.4037 43.26 25.9904 43.26C26.5771 43.26 27.0004 43.2267 27.2604 43.16C27.5271 43.0933 27.6604 42.9833 27.6604 42.83C27.6604 42.6767 27.5271 42.57 27.2604 42.51C27.0004 42.4433 26.5771 42.41 25.9904 42.41C25.4037 42.41 24.9771 42.4433 24.7104 42.51C24.4504 42.57 24.3204 42.6767 24.3204 42.83ZM29.1604 46.08V48.75H22.8004V46.08H29.1604ZM27.8604 47.78V47.05H24.0904V47.78H27.8604Z" fill="#BABABA"/>
<path d="M40 20.1403L26.4954 7.67871L13 20.1403" stroke="#BABABA" stroke-width="2" stroke-linecap="round" stroke-linejoin="round"/>
<path d="M17.0522 16.5403V30.82H24.3076V22.4942H28.6922V30.82H35.9476V16.4019" stroke="#BABABA" stroke-width="2" stroke-linecap="round" stroke-linejoin="round"/>
</svg>
