<svg width="52" height="52" viewBox="0 0 52 52" fill="none" xmlns="http://www.w3.org/2000/svg">
<path d="M14 9.86133H21.4994C22.8254 9.86133 24.0971 10.3881 25.0347 11.3257C25.9723 12.2633 26.4991 13.535 26.4991 14.861V31.3991C26.4991 30.9066 26.4021 30.419 26.2136 29.9641C26.0252 29.5092 25.749 29.0958 25.4008 28.7476C25.0526 28.3994 24.6392 28.1232 24.1843 27.9348C23.7294 27.7463 23.2418 27.6493 22.7493 27.6493H14V9.86133Z" stroke="#D6690F" stroke-width="2" stroke-linecap="round" stroke-linejoin="round"/>
<path d="M39 9.86133H31.4996C30.1736 9.86133 28.902 10.3881 27.9644 11.3257C27.0267 12.2633 26.5 13.535 26.5 14.861V31.3991C26.5 30.4046 26.8951 29.4508 27.5983 28.7476C28.3015 28.0444 29.2552 27.6493 30.2497 27.6493H38.9991L39 9.86133Z" stroke="#D6690F" stroke-width="2" stroke-linecap="round" stroke-linejoin="round"/>
<path d="M25.5708 47.83H17.2308V46.76H20.7408V44.66H18.1708V40.35H19.4908V43.61H24.6908V44.66H22.0608V46.76H25.5708V47.83ZM27.41 45.44V40.32H33.81V41.38H28.75V42.35H33.6V43.37H28.75V44.4H33.88V45.44H27.41ZM34.77 47.8H26.43V46.73H34.77V47.8Z" fill="#D6690F"/>
</svg>
