<svg width="52" height="52" viewBox="0 0 52 52" fill="none" xmlns="http://www.w3.org/2000/svg">
<path d="M20.3412 48.85H19.0212V39.65H20.3412V48.85ZM15.6212 43.95C15.2745 43.95 14.9512 43.9033 14.6512 43.81C14.3578 43.71 14.1045 43.5733 13.8912 43.4C13.6778 43.2267 13.5078 43.02 13.3812 42.78C13.2612 42.54 13.2012 42.2767 13.2012 41.99C13.2012 41.6967 13.2612 41.43 13.3812 41.19C13.5078 40.95 13.6778 40.7433 13.8912 40.57C14.1045 40.3967 14.3578 40.2633 14.6512 40.17C14.9512 40.07 15.2745 40.02 15.6212 40.02C15.9678 40.02 16.2878 40.07 16.5812 40.17C16.8745 40.2633 17.1278 40.3967 17.3412 40.57C17.5612 40.7433 17.7312 40.95 17.8512 41.19C17.9712 41.43 18.0312 41.6967 18.0312 41.99C18.0312 42.2767 17.9712 42.54 17.8512 42.78C17.7312 43.02 17.5612 43.2267 17.3412 43.4C17.1278 43.5733 16.8745 43.71 16.5812 43.81C16.2878 43.9033 15.9678 43.95 15.6212 43.95ZM15.6212 41.09C15.2812 41.09 15.0045 41.1667 14.7912 41.32C14.5778 41.4667 14.4712 41.69 14.4712 41.99C14.4712 42.27 14.5778 42.4867 14.7912 42.64C15.0045 42.7933 15.2812 42.87 15.6212 42.87C15.9612 42.87 16.2378 42.7933 16.4512 42.64C16.6645 42.4867 16.7712 42.27 16.7712 41.99C16.7712 41.69 16.6645 41.4667 16.4512 41.32C16.2378 41.1667 15.9612 41.09 15.6212 41.09ZM18.5812 45.14C18.2012 45.2133 17.8245 45.2767 17.4512 45.33C17.0778 45.3767 16.7012 45.4167 16.3212 45.45V48.58H15.0012V45.53C14.6012 45.5433 14.2178 45.5533 13.8512 45.56C13.4845 45.5667 13.1378 45.57 12.8112 45.57L12.6612 44.49C13.0612 44.49 13.4978 44.4867 13.9712 44.48C14.4512 44.4733 14.9445 44.46 15.4512 44.44C15.9578 44.42 16.4712 44.39 16.9912 44.35C17.5112 44.31 18.0145 44.2533 18.5012 44.18L18.5812 45.14ZM29.3204 45.09C28.5137 44.93 27.8237 44.64 27.2504 44.22C26.6837 43.8 26.2504 43.2967 25.9504 42.71C25.6504 43.2967 25.2171 43.8033 24.6504 44.23C24.0837 44.65 23.3971 44.9367 22.5904 45.09L22.0304 43.99C22.5504 43.9033 23.0104 43.7533 23.4104 43.54C23.8104 43.32 24.1471 43.0667 24.4204 42.78C24.6937 42.4933 24.9004 42.1833 25.0404 41.85C25.1804 41.51 25.2504 41.1767 25.2504 40.85V40.19H26.6604V40.85C26.6604 41.1833 26.7304 41.52 26.8704 41.86C27.0104 42.1933 27.2171 42.5033 27.4904 42.79C27.7637 43.0767 28.1004 43.3267 28.5004 43.54C28.9004 43.7533 29.3604 43.9033 29.8804 43.99L29.3204 45.09ZM30.1704 47.74H21.8304V46.67H30.1704V47.74ZM38.6996 48.85H37.3696V39.64H38.6996V48.85ZM36.0196 40.53C36.0196 41.2433 35.9596 41.9267 35.8396 42.58C35.7263 43.2333 35.5129 43.8533 35.1996 44.44C34.8929 45.0267 34.4629 45.5767 33.9096 46.09C33.3629 46.6033 32.6596 47.0767 31.7996 47.51L31.0996 46.47C31.8596 46.09 32.4763 45.69 32.9496 45.27C33.4296 44.8433 33.8096 44.37 34.0896 43.85L31.3496 44.1L31.1796 42.99L34.5096 42.8C34.5563 42.6067 34.5963 42.41 34.6296 42.21C34.6629 42.01 34.6896 41.8 34.7096 41.58H31.6496V40.53H36.0196Z" fill="#D6690F"/>
<path d="M32.7231 16.6813C29.1382 15.6833 29.2738 12.3697 29.3901 11.4396C29.7195 11.3427 29.9618 11.052 29.9618 10.6935V8.7848C29.9618 8.3488 29.613 8 29.177 8H21.8424C21.4064 8 21.0576 8.3488 21.0576 8.7848V10.6935C21.0576 11.052 21.2998 11.3427 21.6293 11.4396C21.7455 12.3697 21.8909 15.6833 18.2963 16.6813C18.2963 16.6813 16 16.9429 16 19.617L17.3661 31.5635C17.434 32.2805 18.0444 32.823 18.7613 32.823H32.2387C32.9556 32.823 33.566 32.2805 33.6339 31.5635L35 19.617C35 16.9526 32.7037 16.6813 32.7037 16.6813H32.7231Z" stroke="#D6690F" stroke-width="2" stroke-linecap="round" stroke-linejoin="round"/>
<path d="M34.9225 20.4117H29.3805C28.8766 18.7452 27.3458 17.5244 25.5049 17.5244C23.664 17.5244 22.1428 18.7452 21.6293 20.4117H16.0097" stroke="#D6690F" stroke-width="2" stroke-miterlimit="10"/>
<path d="M17.1142 28.3174H25.5145H33.9342" stroke="#D6690F" stroke-width="2" stroke-miterlimit="10"/>
</svg>
