<svg width="85" height="35" viewBox="0 0 85 35" fill="none" xmlns="http://www.w3.org/2000/svg">
<g clip-path="url(#clip0_651_4286)">
<path d="M46.73 0.429766L46.67 0.599766C46.61 0.909766 46.55 1.15977 46.48 1.54977C46.4 1.71977 46.38 1.91977 46.36 2.12977L46.3 2.37977C46.2467 2.59977 46.2067 2.84977 46.18 3.12977C46.18 3.12977 46.16 3.20977 46.16 3.24977C46.16 3.30977 46.14 3.34977 46.12 3.37977C46.08 3.74977 46 4.09977 45.93 4.43977C45.93 4.51977 45.95 4.59977 45.95 4.66977C45.87 4.97977 45.83 5.28977 45.8 5.59977C45.8 5.69977 45.8 5.80977 45.76 5.92977C45.74 6.06977 45.72 6.21977 45.74 6.37977C45.7 6.62977 45.74 6.87977 45.68 7.11977V7.19977C45.66 7.31977 45.66 7.40977 45.64 7.52977C45.64 7.66977 45.6 7.77977 45.6 7.89977C45.6 7.95977 45.64 8.03977 45.6 8.08977C45.5 8.24977 45.5 8.39977 45.48 8.54977C45.46 8.62977 45.46 8.69977 45.44 8.77977C45.38 8.89977 45.4 9.00976 45.4 9.14977L45.42 9.28977C45.38 9.38977 45.36 9.47977 45.38 9.59977C45.36 9.69977 45.32 9.78977 45.3 9.88977C45.3 10.0598 45.26 10.2198 45.22 10.3898C45.2 10.5298 45.18 10.6398 45.18 10.7598C45.18 10.8898 45.16 11.0098 45.12 11.1298C45.1 11.2998 45.1 11.4598 45.08 11.6098C45.08 11.6898 45.04 11.7598 45.04 11.8398V12.2298C45.02 12.3298 45.02 12.4198 45 12.5398C44.96 12.7298 44.96 12.9498 44.9 13.1598C44.86 13.4498 44.82 13.7198 44.8 14.0098C44.82 14.2398 44.78 14.4698 44.8 14.7298L44.78 14.7698C44.74 14.8698 44.74 14.9798 44.74 15.0998C44.68 15.3098 44.7 15.9498 44.6 15.9298C44.52 15.9498 44.48 15.9298 44.44 15.9498C44.36 15.9498 44.25 15.9498 44.17 15.9698H43.8C43.74 15.9898 43.66 15.9898 43.59 15.9898C43.51 15.9698 43.4 15.9698 43.3 15.9698H43.13C43.07 15.9698 43.01 15.9898 42.96 15.9898C42.92 15.9698 42.92 15.9498 42.88 15.9298C42.84 15.8698 42.8 15.8098 42.8 15.7398C42.76 15.5698 42.78 15.3698 42.74 15.1998C42.72 15.0398 42.72 14.8498 42.68 14.6998C42.66 14.6598 42.66 14.5998 42.66 14.5598C42.66 14.4198 42.66 14.2698 42.64 14.1298C42.58 13.7998 42.5 13.4898 42.47 13.1598L42.35 12.3498C42.33 12.1798 42.33 12.0198 42.29 11.8898C42.25 11.7398 42.25 11.5798 42.23 11.4098C42.19 11.2498 42.15 11.0798 42.15 10.8898L42.03 10.3098C41.99 10.0398 41.95 9.78977 41.95 9.53977C41.95 9.47976 41.95 9.43976 41.93 9.40977C41.89 9.26976 41.87 9.15977 41.85 9.01977C41.81 8.84977 41.85 8.68976 41.81 8.53977C41.77 8.34977 41.75 8.14977 41.71 7.93977C41.71 7.87977 41.71 7.81977 41.69 7.76977C41.61 7.51977 41.57 7.26977 41.54 7.00977C41.48 6.77977 41.46 6.54977 41.44 6.30977C41.42 6.09977 41.38 5.89977 41.36 5.70977C41.34 5.58977 41.32 5.49977 41.32 5.41977C41.26 5.20977 41.22 4.98977 41.18 4.79977C41.16 4.54977 41.14 4.29977 41.1 4.01977C41.08 3.86977 41.06 3.68977 41.02 3.55977L40.88 3.51977L40.86 3.53977C40.82 3.63977 40.78 3.70977 40.8 3.80977C40.78 4.05977 40.68 4.30977 40.68 4.54977C40.62 4.81977 40.55 5.08977 40.53 5.35977C40.45 5.66977 40.41 5.95977 40.4 6.26977C40.38 6.51977 40.36 6.78977 40.3 7.03977C40.26 7.15977 40.24 7.28977 40.22 7.42977C40.24 7.59977 40.2 7.75977 40.18 7.90977C40.16 8.00977 40.14 8.09977 40.14 8.19977C40.12 8.31977 40.12 8.42977 40.08 8.54977C40 8.77977 39.96 9.02977 39.92 9.28977C39.88 9.71977 39.78 10.1598 39.71 10.5698C39.69 10.5898 39.69 10.6098 39.69 10.6498C39.69 10.7698 39.65 10.8798 39.63 10.9998C39.61 11.1198 39.61 11.2498 39.59 11.3698C39.55 11.5798 39.51 11.7598 39.53 11.9298C39.53 12.0498 39.51 12.1598 39.49 12.2798C39.45 12.4398 39.41 12.6098 39.39 12.7598C39.37 12.8198 39.37 12.8898 39.37 12.9498C39.35 13.1998 39.31 13.4498 39.27 13.6898C39.25 13.7898 39.23 13.8598 39.23 13.9598C39.25 14.1698 39.23 14.3998 39.19 14.5998C39.15 14.7398 39.13 14.8498 39.13 14.9898C39.13 15.1098 39.11 15.1998 39.05 15.3398C39.07 15.5298 39.03 15.7298 39.01 15.8798C39.01 15.9398 38.97 15.9798 38.95 15.9798C38.91 15.9798 38.85 15.9998 38.79 15.9798C38.69 15.9598 38.5 15.9798 38.36 15.9798L38.13 15.9598C37.88 15.9798 37.84 15.9598 37.67 15.9598L37.32 15.9798C37.2 15.9798 37.19 15.7498 37.17 15.4998C37.15 15.3798 37.07 14.1598 37.05 14.0498C37.03 13.7998 36.99 13.5498 36.99 13.2898L36.93 12.7498C36.87 12.5198 36.89 12.2898 36.85 12.0498C36.83 11.9698 36.81 11.8998 36.81 11.8198C36.77 11.6298 36.73 11.4298 36.75 11.2398L36.69 10.9698C36.65 10.8398 36.63 10.6798 36.63 10.5398L36.57 10.0198C36.55 9.82977 36.51 9.62976 36.49 9.43976C36.45 9.28977 36.43 9.12977 36.41 8.99977C36.37 8.87977 36.35 8.78977 36.33 8.66977C36.35 8.41977 36.31 8.18977 36.27 7.92977C36.19 7.61977 36.15 7.30977 36.13 6.99977C36.13 6.83977 36.13 6.68977 36.09 6.53977C36.05 6.30977 36.05 6.08977 36.01 5.85977C35.97 5.62977 35.95 5.39977 35.95 5.15977C35.91 4.98977 35.87 4.78977 35.82 4.61977C35.82 4.57977 35.82 4.51977 35.8 4.45977C35.8 4.35977 35.8 4.26977 35.78 4.16977C35.8 4.01977 35.78 3.83977 35.74 3.68977C35.72 3.53977 35.7 3.37977 35.66 3.22977C35.64 3.10977 35.62 2.99977 35.62 2.87977C35.56 2.62977 35.54 2.37977 35.5 2.11977C35.44 1.78977 35.31 1.34977 35.23 1.01977C35.21 0.919766 35.19 0.809766 35.15 0.709766C35.11 0.629766 35.09 0.559766 35.07 0.479766C35.05 0.439766 35.07 0.379766 35.09 0.379766C35.17 0.359766 35.23 0.339766 35.28 0.339766C35.45 0.319766 35.59 0.359766 35.98 0.339766C36.02 0.339766 36.1 0.359766 36.15 0.339766C36.34 0.319766 36.63 0.339766 36.83 0.319766C36.85 0.319766 36.89 0.339766 36.89 0.359766C36.91 0.439766 36.91 0.459766 36.91 0.479766C36.91 0.669766 36.89 0.869766 36.89 1.03977C36.91 1.20977 36.87 1.30977 36.89 1.46977L36.93 2.18977C36.95 2.26977 36.95 2.35977 36.95 2.45977L37.01 2.90977C36.99 3.13977 37.01 3.38977 37.05 3.64977C37.07 3.68977 37.09 3.74977 37.09 3.77977C37.09 3.94977 37.11 4.10977 37.15 4.27977C37.15 4.42977 37.19 4.60977 37.19 4.75977C37.19 4.90977 37.21 5.08977 37.21 5.35977C37.21 5.39977 37.23 5.33977 37.23 5.35977C37.23 5.58977 37.25 5.76977 37.29 5.97977C37.35 6.26977 37.39 6.53977 37.39 6.80977C37.39 6.82977 37.37 6.86977 37.39 6.88977C37.43 7.00977 37.41 7.15977 37.47 7.27977C37.49 7.41977 37.47 7.54977 37.55 7.66977C37.57 7.80977 37.59 7.93977 37.57 8.07977C37.61 8.22977 37.61 8.36977 37.67 8.50977C37.67 8.64977 37.71 8.79976 37.73 8.93976C37.73 9.10977 37.73 9.26976 37.79 9.39977V9.47976C37.79 9.72976 37.85 9.95977 37.85 10.2098C37.87 10.2898 37.87 10.3798 37.89 10.4998C37.91 10.5998 37.93 10.6698 37.93 10.7898C37.95 10.9298 37.95 11.0798 37.97 11.2198C37.99 11.4298 38.01 11.6698 38.09 11.8598C38.11 12.0498 38.17 12.2898 38.17 12.4998L38.23 12.5598L38.29 12.0798C38.31 11.9298 38.33 11.7698 38.37 11.5798C38.39 11.3698 38.41 11.1398 38.45 10.9198C38.53 10.5898 38.57 10.2798 38.61 9.98977C38.61 9.92976 38.61 9.88977 38.63 9.86977C38.69 9.42977 38.75 9.03977 38.82 8.62977L38.86 8.19977C38.88 8.05977 38.92 7.92977 38.94 7.78977C38.96 7.74977 38.96 7.66977 38.98 7.62977C38.98 7.43977 39 7.25977 39.04 7.06977C39.1 6.89977 39.12 6.71977 39.12 6.54977C39.14 6.31977 39.18 6.09977 39.22 5.88977C39.26 5.76977 39.26 5.61977 39.3 5.47977C39.32 5.41977 39.3 5.35977 39.34 5.39977C39.36 5.29977 39.32 5.10977 39.34 5.00977C39.48 4.59977 39.55 4.15977 39.57 3.74977C39.59 3.60977 39.59 3.45977 39.63 3.31977C39.67 3.19977 39.69 3.08977 39.69 2.98977C39.73 2.77977 39.75 2.57977 39.75 2.36977C39.77 2.32977 39.75 2.24977 39.75 2.21977C39.81 1.73977 39.81 1.61977 39.77 1.11977C39.79 0.909766 39.77 0.709766 39.71 0.499766C39.73 0.479766 39.73 0.419766 39.75 0.399766C39.77 0.339766 39.81 0.339766 39.87 0.339766C39.99 0.339766 40.06 0.399766 40.16 0.339766C40.18 0.319766 40.22 0.319766 40.24 0.339766C40.3 0.339766 40.37 0.339766 40.43 0.319766C40.57 0.299766 40.72 0.299766 40.86 0.319766L41.36 0.339766C41.52 0.339766 41.71 0.319766 41.88 0.319766C41.96 0.319766 42.04 0.319766 42.07 0.439766C42.07 0.479766 42.01 0.579766 42.03 0.609766C42.03 0.649766 41.99 0.729766 41.99 0.759766C41.97 1.00977 41.93 1.29977 41.95 1.52977C41.97 1.66977 41.99 1.77977 41.99 1.93977C42.01 2.01977 42.03 2.10977 42.01 2.20977C42.01 2.47977 42.07 2.74977 42.13 2.99977C42.17 3.30977 42.21 3.65977 42.27 3.96977C42.27 4.13977 42.37 4.27977 42.35 4.42977L42.41 5.00977C42.43 5.06977 42.43 5.14977 42.45 5.21977C42.45 5.31977 42.47 5.42977 42.47 5.52977C42.51 5.64977 42.51 5.73977 42.53 5.83977C42.53 5.95977 42.59 6.04977 42.59 6.16977C42.61 6.30977 42.61 6.43977 42.63 6.55977C42.65 6.74977 42.69 6.94977 42.71 7.15977C42.71 7.19977 42.75 7.27977 42.79 7.34977C42.85 7.53977 42.85 7.69977 42.87 7.90977C42.89 8.04977 42.89 8.17977 42.95 8.29977C42.97 8.56977 43.01 8.83977 43.05 9.12977C43.05 9.20977 43.07 9.27977 43.07 9.35977C43.09 9.41977 43.13 9.49977 43.13 9.54977C43.13 9.73977 43.17 9.91977 43.19 10.0698L43.31 10.5698C43.33 10.6498 43.33 10.6898 43.35 10.7598C43.35 10.8198 43.37 10.8898 43.39 10.9698C43.45 11.1398 43.45 11.3798 43.51 11.6098L43.57 11.9398C43.57 12.0598 43.61 12.3098 43.69 12.5798C43.77 12.1698 43.85 11.7498 43.86 11.5298L43.88 11.4498C43.86 11.3098 43.88 11.1798 43.94 11.0598C43.98 10.9598 44 10.8498 44 10.7298C44 10.5998 44.04 10.4398 44.04 10.2898C44.08 10.0798 44.12 9.85977 44.12 9.62977C44.12 9.60977 44.12 9.58977 44.1 9.54977C44.16 9.31977 44.2 9.08977 44.22 8.84977C44.24 8.74977 44.26 8.65977 44.26 8.55977C44.3 8.22977 44.32 7.85977 44.41 7.50977C44.43 7.48977 44.43 7.46977 44.43 7.42977C44.39 7.32977 44.43 7.23977 44.41 7.13977C44.47 6.90977 44.51 6.67977 44.51 6.45977C44.49 6.18977 44.53 5.93976 44.61 5.69977C44.59 5.65977 44.59 5.57977 44.59 5.52977C44.63 5.33977 44.65 5.13977 44.67 4.94977C44.71 4.75977 44.69 4.53977 44.75 4.34977C44.77 4.30977 44.77 4.26977 44.77 4.22977C44.77 4.03977 44.79 3.85977 44.77 3.66977C44.79 3.56977 44.77 3.45977 44.81 3.37977C44.87 3.12977 44.89 2.89977 44.91 2.65977C44.91 2.46977 44.89 2.26977 44.93 2.07977C44.95 2.01977 44.95 1.95977 44.95 1.90977C44.95 1.85977 44.91 1.76977 44.91 1.71977C44.95 1.38977 44.95 1.03977 44.95 0.709766C44.93 0.589766 44.91 0.479766 44.87 0.379766C44.85 0.339766 44.89 0.299766 44.91 0.279766C44.95 0.259766 44.99 0.259766 45.05 0.259766C45.11 0.259766 45.21 0.279766 45.28 0.299766C45.38 0.299766 45.55 0.259766 45.65 0.279766C45.84 0.299766 46 0.299766 46.13 0.299766C46.25 0.279766 46.38 0.279766 46.54 0.279766C46.58 0.299766 46.62 0.299766 46.66 0.299766C46.68 0.319766 46.72 0.379766 46.72 0.399766" fill="#FBF8F2"/>
<path d="M54.15 15.9298C54.09 15.9098 54.03 15.9498 54 15.9498C53.77 15.9498 53.44 15.9298 53.21 15.9498C53.13 15.9698 53.04 15.9298 52.96 15.9298C52.86 15.9298 52.79 15.9298 52.69 15.9498H52.61C52.55 15.9498 52.49 15.8498 52.51 15.7898C52.51 15.7498 52.51 15.7298 52.53 15.7098C52.61 15.5798 52.63 15.4398 52.65 15.2798C52.67 15.1098 52.73 14.9698 52.73 14.8198L52.79 14.3898C52.79 14.2298 52.79 14.0798 52.81 13.9498V13.5998C52.85 13.3498 52.87 13.0798 52.87 12.8298C52.89 12.6598 52.89 12.4798 52.89 12.3098C52.91 12.1398 52.89 11.9798 52.89 11.8098V10.9398C52.87 10.8198 52.93 10.7298 52.91 10.6098C52.91 10.4898 52.89 10.3798 52.89 10.2598V9.6798C52.93 9.5398 52.93 8.8498 52.89 8.7098C52.85 8.5898 52.97 8.1298 52.81 8.1898L52.5 8.3098C52.11 8.4698 51.96 8.4998 51.78 8.5598L50.93 8.8898C50.85 8.9298 50.77 8.9498 50.7 8.9898C50.47 9.0498 50.26 9.1298 50.06 9.2198C50.02 9.2198 50 9.2398 49.98 9.2398C49.84 9.2998 49.67 9.3598 49.55 9.4898C49.55 9.6098 49.55 9.6998 49.57 9.8398C49.57 9.9698 49.55 10.0898 49.57 10.2298C49.59 10.2698 49.57 10.3098 49.57 10.3498C49.55 10.6198 49.53 10.9098 49.55 11.1998C49.57 11.3598 49.59 11.4898 49.57 11.6498C49.57 11.6898 49.57 11.7298 49.59 11.7698C49.61 12.0198 49.61 12.2698 49.61 12.5398C49.61 12.6398 49.63 12.7298 49.63 12.8298C49.67 13.0798 49.69 13.3298 49.69 13.5798C49.69 13.6598 49.69 13.7498 49.71 13.8298C49.71 13.9098 49.71 13.9798 49.73 14.0598C49.75 14.0998 49.77 14.1598 49.77 14.1998C49.75 14.4098 49.77 14.6098 49.81 14.7798C49.85 14.8998 49.85 15.0098 49.87 15.1098C49.87 15.2098 49.89 15.2798 49.91 15.3798C49.93 15.4598 49.93 15.5498 49.93 15.6298L49.99 15.7598C50.01 15.8398 49.93 15.9198 49.87 15.9298C49.79 15.9498 49.73 15.9498 49.68 15.9298C49.54 15.8898 49.41 15.9298 49.27 15.9298C49.08 15.9298 48.86 15.9498 48.67 15.9298C48.59 15.9298 48.52 15.9098 48.46 15.9498C48.4 15.9698 48.36 15.9698 48.31 15.9498C48.23 15.9098 48.17 15.9298 48.1 15.9498C48.04 15.9698 48 15.9498 47.97 15.9298C47.93 15.8898 47.89 15.8298 47.91 15.7898L47.97 15.6898C48.01 15.6298 48.05 15.5698 48.05 15.5198C48.05 15.3598 48.09 15.1898 48.11 15.0398C48.13 14.9598 48.13 14.8898 48.13 14.8098C48.15 14.6598 48.15 14.4798 48.19 14.3298C48.23 14.1398 48.21 13.9398 48.21 13.7698C48.21 13.7298 48.19 13.6898 48.21 13.6498C48.23 13.4898 48.21 13.3198 48.25 13.1698C48.27 12.9398 48.29 12.7198 48.29 12.4898C48.29 12.4098 48.29 12.3198 48.31 12.2398V12.1598C48.29 11.8698 48.35 11.5798 48.35 11.2698C48.35 10.9398 48.37 10.6098 48.35 10.2598C48.35 10.1098 48.37 9.9698 48.33 9.8198C48.35 9.7398 48.35 9.6498 48.35 9.5698C48.33 9.3598 48.35 9.1198 48.35 8.8898C48.37 8.7198 48.33 8.5598 48.35 8.4098C48.35 8.2398 48.37 8.0798 48.37 7.9098V6.1498C48.39 5.9598 48.39 5.7598 48.37 5.5698C48.35 5.3998 48.35 5.1998 48.37 5.0298C48.39 4.8398 48.37 4.6398 48.35 4.4698C48.33 4.4098 48.33 4.3698 48.35 4.3098V4.0998C48.37 3.9298 48.35 3.7298 48.33 3.5398C48.29 3.4098 48.31 3.2298 48.27 3.0798V2.9798C48.29 2.8098 48.27 2.6298 48.25 2.4598C48.23 2.2898 48.21 2.1298 48.21 1.9798C48.23 1.8998 48.21 1.8198 48.19 1.7498L48.13 1.3998C48.09 1.2998 48.09 1.1498 48.11 1.0698C48.07 0.909805 48.05 0.779805 48.03 0.639805L47.93 0.519805C47.89 0.459805 47.93 0.359805 48.01 0.349805C48.11 0.329805 48.2 0.309805 48.3 0.329805C48.53 0.349805 48.76 0.349805 48.98 0.349805C49.23 0.329805 49.5 0.329805 49.75 0.309805C49.79 0.309805 49.85 0.349805 49.87 0.389805C49.93 0.449805 49.95 0.529805 49.93 0.599805C49.91 0.809805 49.87 1.0498 49.87 1.3198C49.87 1.3798 49.85 1.4398 49.83 1.4698C49.83 1.5498 49.81 1.6098 49.79 1.6598C49.75 1.8298 49.81 2.0098 49.75 2.1798C49.71 2.3298 49.71 2.5098 49.69 2.6598C49.69 2.8298 49.67 3.0098 49.65 3.1798C49.63 3.2598 49.63 3.3398 49.65 3.4298C49.67 3.4698 49.67 3.5098 49.65 3.5298C49.61 3.6698 49.61 3.7998 49.61 3.9598V4.3098C49.59 4.7198 49.57 5.1198 49.57 5.5498C49.55 5.7198 49.57 5.8998 49.57 6.0698C49.57 6.1698 49.53 6.4398 49.55 6.5298C49.53 6.8798 49.57 7.0298 49.55 7.0498C49.55 7.4598 49.49 7.6298 49.61 7.9198C49.61 7.9598 49.69 7.9998 49.73 7.9998C49.79 7.9798 49.85 7.9798 49.92 7.9598C50.19 7.8598 50.25 7.8598 50.52 7.7498C50.66 7.7098 50.81 7.6498 50.93 7.6098C51.08 7.5298 51.24 7.4698 51.39 7.4198C51.55 7.3598 51.51 7.3998 51.68 7.3398C51.87 7.2598 52.09 7.1898 52.32 7.1098C52.38 7.0898 52.42 7.0498 52.48 7.0298C52.52 7.0098 52.64 6.9698 52.69 6.9298C52.84 6.8498 52.9 6.7398 52.9 6.6198C52.92 6.4798 52.94 6.3298 52.9 6.1898V6.0898C52.92 5.9698 52.88 5.8598 52.9 5.7398C52.92 5.6398 52.88 5.5498 52.9 5.4498C52.9 5.1398 52.86 4.8498 52.88 4.5398C52.88 4.4398 52.9 4.3498 52.88 4.2498C52.86 4.1098 52.88 3.9798 52.88 3.8198V3.0098C52.88 2.8498 52.84 2.6798 52.86 2.5298V2.4498C52.8 2.2398 52.8 2.0398 52.78 1.8298C52.78 1.6898 52.78 1.5798 52.74 1.4398V1.2698C52.72 1.1298 52.72 0.979805 52.68 0.859805C52.62 0.709805 52.58 0.549805 52.58 0.399805C52.58 0.359805 52.68 0.299805 52.71 0.299805C52.85 0.319805 53 0.299805 53.14 0.299805H53.84C53.9 0.319805 53.98 0.319805 54.05 0.319805C54.2 0.319805 54.34 0.299805 54.49 0.339805C54.53 0.299805 54.55 0.439805 54.55 0.459805L54.49 0.749805C54.37 1.0198 54.34 1.3098 54.32 1.5798C54.28 1.8098 54.26 2.0198 54.24 2.2598C54.2 2.5698 54.2 2.8598 54.2 3.1698C54.22 3.4798 54.2 3.7898 54.18 4.0798C54.16 4.4498 54.14 4.8098 54.14 5.1798C54.14 5.4898 54.14 5.7998 54.12 6.1298C54.1 6.2998 54.12 6.4998 54.1 6.6898V6.7498C54.14 6.8498 54.1 6.9398 54.12 7.0398C54.06 7.3498 54.08 7.6598 54.08 7.9698V8.9398C54.06 9.1098 54.06 9.2698 54.1 9.4398V9.4798C54.08 9.7498 54.14 9.9998 54.14 10.2498C54.14 10.4598 54.14 10.6798 54.12 10.8898V11.2198C54.14 11.4698 54.12 11.6998 54.14 11.9398V12.6398C54.16 12.8298 54.16 13.0498 54.16 13.2398C54.16 13.3598 54.18 13.4498 54.2 13.5698C54.22 13.6698 54.26 13.7598 54.22 13.8598C54.22 13.9998 54.22 14.1498 54.26 14.2698C54.32 14.4798 54.34 14.6998 54.38 14.8898C54.42 15.0398 54.44 15.1798 54.46 15.3498C54.5 15.5098 54.54 15.6598 54.6 15.8098C54.62 15.8498 54.58 15.9098 54.52 15.9298C54.46 15.9498 54.4 15.9498 54.35 15.9898C54.29 15.9498 54.23 15.9298 54.18 15.9298" fill="#FBF8F2"/>
<path d="M55.98 15.9295C55.98 15.9295 55.9 15.8695 55.92 15.8495V15.7295C55.98 15.5395 56 15.3395 56.04 15.1495C56.06 15.0695 56.08 14.9995 56.08 14.9195C56.1 14.7995 56.1 14.6895 56.14 14.5495C56.18 14.4295 56.18 14.3395 56.18 14.1995C56.2 13.8495 56.22 13.4995 56.26 13.1495C56.28 13.0895 56.28 13.0295 56.28 12.9795C56.3 12.7295 56.34 12.4795 56.32 12.2295C56.32 12.0595 56.34 11.8595 56.34 11.6895C56.34 11.5895 56.36 11.4995 56.34 11.3995C56.34 11.1695 56.34 10.9195 56.36 10.6695V10.3595C56.36 10.2395 56.36 10.1295 56.38 9.98954C56.4 9.73954 56.38 9.46954 56.38 9.19954C56.36 9.09954 56.36 8.98954 56.38 8.86954C56.4 8.69954 56.36 8.51954 56.4 8.34954V8.22954C56.36 7.78954 56.34 7.29954 56.36 6.83954C56.38 6.52954 56.36 6.23954 56.38 5.92954C56.38 5.67954 56.36 5.42954 56.36 5.19954C56.36 5.11954 56.34 5.05954 56.36 5.02954C56.36 4.81954 56.36 4.59954 56.34 4.38954V3.08954C56.32 2.96954 56.32 2.83954 56.3 2.71954C56.3 2.54954 56.28 2.36954 56.28 2.19954C56.24 1.92954 56.18 1.69954 56.18 1.44954C56.18 1.40954 56.18 1.36954 56.16 1.32954C56.16 1.28954 56.14 1.24954 56.14 1.20954C56.1 0.979543 56.04 0.749543 55.97 0.529543C55.97 0.489543 55.97 0.469543 55.99 0.449543C55.99 0.409543 56.03 0.369543 56.07 0.369543C56.2 0.369543 56.34 0.329543 56.48 0.349543C56.63 0.369543 56.81 0.329543 56.96 0.369543C57.08 0.329543 57.21 0.349543 57.33 0.369543C57.39 0.369543 57.43 0.369543 57.48 0.349543C57.58 0.309543 57.69 0.309543 57.81 0.329543C57.87 0.349543 57.91 0.369543 57.93 0.409543C57.95 0.429543 57.95 0.449543 57.97 0.489543V0.529543C57.91 0.719543 57.91 0.939543 57.85 1.14954C57.83 1.20954 57.83 1.26954 57.83 1.33954C57.81 1.39954 57.81 1.47954 57.79 1.54954C57.79 1.58954 57.79 1.62954 57.77 1.66954C57.75 2.05954 57.69 2.45954 57.69 2.86954V2.94954C57.65 3.23954 57.67 3.52954 57.69 3.81954C57.69 3.91954 57.69 4.00954 57.67 4.10954C57.67 4.27954 57.67 4.43954 57.69 4.56954C57.71 4.70954 57.71 4.85954 57.69 4.99954C57.69 5.20954 57.69 5.43954 57.71 5.67954C57.71 6.04954 57.71 6.41954 57.67 6.75954C57.67 6.81954 57.65 6.87954 57.65 6.91954C57.65 7.01954 57.67 7.10954 57.65 7.22954C57.65 7.30954 57.65 7.39954 57.63 7.47954C57.63 7.55954 57.63 7.63954 57.65 7.70954C57.67 7.97954 57.65 8.24954 57.65 8.53954V8.69954C57.65 9.14954 57.63 9.58954 57.61 10.0495V10.5295C57.61 10.7995 57.59 11.0695 57.57 11.3195V11.5095C57.61 11.8995 57.61 12.2995 57.59 12.6895C57.57 12.8395 57.59 13.0195 57.59 13.1695C57.61 13.2095 57.61 13.2495 57.61 13.2895C57.65 13.4595 57.65 13.6595 57.67 13.8495C57.69 13.9295 57.69 14.0195 57.71 14.0995C57.71 14.1195 57.73 14.1395 57.73 14.1795C57.73 14.4095 57.81 14.6595 57.85 14.9295L57.97 15.6295C57.97 15.6295 57.99 15.7095 57.99 15.7495C57.99 15.8295 57.89 15.9195 57.82 15.9195C57.68 15.9195 57.55 15.9395 57.41 15.9395C57.25 15.9195 57.08 15.9195 56.95 15.9195C56.74 15.9195 56.52 15.9395 56.33 15.9395H56.06C56.06 15.9395 56.02 15.9395 56 15.9195" fill="#FBF8F2"/>
<path d="M61.42 16.1797C61.15 16.1397 60.88 16.0597 60.61 16.0297C60.4 16.0097 60.13 15.9097 59.93 15.7797C59.85 15.6997 59.68 15.6397 59.7 15.5097L59.68 15.0497L59.7 14.4897L59.72 13.6797C59.76 13.5097 60.03 13.8497 60.11 13.9097C60.21 13.9897 60.71 14.3597 60.77 14.4097C61.06 14.6197 61.93 14.7997 62.53 14.6597C62.59 14.6597 62.63 14.6397 62.69 14.6397C62.73 14.6197 62.75 14.5997 62.79 14.5997C62.93 14.5597 63.02 14.4997 63.14 14.4097C63.18 14.3897 63.22 14.3697 63.26 14.3297C63.3 14.3097 63.34 14.1397 63.36 14.0997C63.38 14.0597 63.4 14.0197 63.42 13.9997C63.46 13.9197 63.5 13.8597 63.5 13.7697C63.56 13.5597 63.56 13.3197 63.56 13.1097V12.6797C63.56 12.5797 63.54 12.4897 63.52 12.3897C63.46 12.1997 63.4 11.9997 63.31 11.8297C63.29 11.7897 63.29 11.7497 63.27 11.7297C63.21 11.5697 63.17 11.4397 63.11 11.2997C63.03 11.1797 62.99 11.0497 62.94 10.9297C62.94 10.8897 62.92 10.8697 62.92 10.8497C62.8333 10.6031 62.7433 10.3964 62.65 10.2297C62.65 10.2297 62.61 10.1697 62.59 10.1297C62.55 9.98973 62.49 9.85973 62.42 9.71973C62.27 9.46973 62.17 9.19973 61.99 8.96973L61.93 8.82973C61.91 8.76973 61.89 8.72973 61.87 8.68973C61.71 8.47973 61.62 8.22973 61.48 8.00973C61.44 7.90973 61.36 7.83973 61.33 7.73973L61.21 7.46973C61.15 7.36973 61.09 7.27973 61.04 7.17973C60.94 7.02973 60.87 6.86973 60.79 6.71973L60.62 6.34973C60.5 6.13973 60.41 5.91973 60.33 5.70973L60.21 5.37973C60.07 5.06973 59.96 4.73973 59.86 4.38973C59.8 4.09973 59.74 3.80973 59.74 3.49973C59.74 3.37973 59.72 3.24973 59.72 3.12973C59.72 2.83973 59.72 2.71973 59.74 2.62973C59.76 2.48973 59.76 2.33973 59.76 2.17973V2.00973C59.76 1.88973 59.76 1.79973 59.8 1.69973L59.92 1.34973C60 1.05973 60.17 0.849726 60.38 0.649727C60.61 0.439727 60.88 0.299727 61.15 0.189727C61.17 0.169727 61.21 0.149727 61.25 0.149727C61.38 0.0897266 61.52 0.0497266 61.66 0.0497266C61.83 0.00972656 61.99 -0.0302734 62.18 -0.0302734H62.78C62.86 -0.0302734 62.99 0.00972656 63.05 0.00972656C63.18 0.0297266 63.32 0.0697266 63.46 0.0697266C63.52 0.0697266 63.58 0.0897266 63.62 0.0897266C63.68 0.109727 64.1 0.279727 64.32 0.279727C64.71 0.279727 64.9 0.239727 64.9 0.419727C64.9 0.729727 65.02 2.35973 64.84 2.38973C64.65 2.44973 64.55 2.22973 64.41 2.05973C64.24 1.82973 63.97 1.72973 63.71 1.59973C63.44 1.45973 62.98 1.34973 62.88 1.36973C62.78 1.38973 62.69 1.34973 62.59 1.34973C62.47 1.30973 62.03 1.38973 61.8 1.48973C61.74 1.50973 61.7 1.52973 61.67 1.56973C61.61 1.60973 61.57 1.62973 61.5 1.64973C61.44 1.66973 61.36 1.70973 61.33 1.78973L61.18 2.07973C61.18 2.07973 61.14 2.13973 61.14 2.17973C61.12 2.34973 61.06 2.50973 61.04 2.65973C61.02 2.96973 61.06 3.44973 61.14 3.73973C61.2 3.88973 61.24 4.04973 61.29 4.19973C61.35 4.38973 61.43 4.60973 61.5 4.79973C61.62 5.06973 61.73 5.33973 61.87 5.60973C62.04 6.01973 62.24 6.39973 62.43 6.78973L62.76 7.42973C62.86 7.63973 62.97 7.85973 63.07 8.06973C63.19 8.25973 63.28 8.47973 63.38 8.66973C63.44 8.78973 63.51 8.89973 63.59 9.01973C63.72 9.24973 63.84 9.47973 63.96 9.71973C64.02 9.81973 64.06 9.92973 64.11 10.0297C64.21 10.1797 64.3 10.3597 64.4 10.5497L64.69 11.1097C64.69 11.1097 64.73 11.2097 64.75 11.2497C64.81 11.4597 64.85 11.7297 64.9 11.9897C64.98 12.3197 64.98 12.5497 65 12.6897C65 12.8797 65.04 13.1897 65 13.3097C65 13.4797 65 13.6397 64.96 13.7897C64.94 13.8497 64.94 13.9097 64.94 13.9797C64.94 14.1897 64.88 14.4397 64.8 14.6597C64.76 14.8097 64.67 14.9297 64.57 15.0497C64.51 15.1097 64.44 15.1997 64.34 15.2797C64.28 15.3397 64.22 15.4397 64.17 15.5097C64.09 15.6097 63.98 15.6497 63.88 15.6997C63.72 15.7197 63.61 15.8197 63.45 15.8697C63.32 15.9497 63.16 15.9697 63.02 16.0797C62.9 16.1397 62.81 16.1397 62.69 16.1597C62.38 16.2397 61.94 16.2197 61.86 16.2197C61.72 16.2197 61.59 16.1997 61.45 16.1597" fill="#FBF8F2"/>
<path d="M73.35 15.8899C73.35 15.8899 73.25 15.9499 73.21 15.9499C73 15.9099 72.8 15.9099 72.61 15.9299C72.45 15.9499 72.3 15.9699 72.16 15.9299C72.12 15.9299 72.08 15.9099 72.04 15.9099C71.96 15.9099 71.79 15.9699 71.59 15.9499C71.51 15.9299 71.42 15.9299 71.32 15.9299C71.3 15.9299 71.28 15.9099 71.26 15.8899C71.22 15.8699 71.22 15.8299 71.22 15.8099C71.22 15.7099 71.26 15.6399 71.28 15.5399C71.3 15.3799 71.26 15.2499 71.28 15.1299C71.24 14.9399 71.18 14.7399 71.16 14.5499C71.08 14.1399 71.01 13.7599 70.89 13.3699C70.87 13.2699 70.83 13.1799 70.83 13.0799C70.75 12.7699 70.58 12.0699 70.48 11.7599C70.46 11.5999 70.38 11.4499 70.34 11.2999C70.3 11.1099 70.24 10.9099 70.22 10.6999L70.16 10.5299C70.1 10.3399 70.03 10.1599 70.03 9.94986L69.86 9.30986L69.84 9.28986C69.84 9.28986 69.72 8.87986 69.67 8.76986C69.17 8.93986 68.62 9.11986 68.14 9.22986C68.14 9.45986 68.12 9.76986 68.14 9.90986C68.16 10.1599 68.16 10.7799 68.18 11.0299V11.1999C68.16 11.3499 68.14 11.5099 68.16 11.6599C68.16 11.6799 68.18 11.6999 68.16 11.7199C68.14 11.9499 68.18 12.1799 68.22 12.3999V12.8499C68.22 13.1399 68.24 13.4099 68.26 13.6799C68.26 13.9299 68.28 14.1799 68.32 14.4399C68.36 14.8099 68.46 15.1799 68.55 15.5399C68.55 15.5799 68.55 15.6199 68.57 15.6599C68.59 15.7399 68.63 15.7799 68.59 15.8499C68.57 15.8699 68.55 15.8899 68.51 15.9099C68.49 15.9499 68.43 15.9299 68.34 15.9299C68.2 15.8899 68.07 15.9299 67.93 15.9299C67.79 15.9099 67.76 15.9099 67.62 15.9099C67.39 15.9099 67.16 15.9299 66.92 15.9299H66.73C66.73 15.9299 66.69 15.9099 66.67 15.9099C66.63 15.8899 66.59 15.8099 66.59 15.7899C66.65 15.5599 66.69 15.3399 66.71 15.1299L66.77 14.7399C66.81 14.4899 66.81 14.2199 66.81 13.9699L66.83 13.7799C66.83 13.6399 66.85 13.5099 66.85 13.3699C66.83 13.1799 66.83 12.9999 66.83 12.8099C66.85 12.6199 66.87 12.3999 66.85 12.2099C66.85 11.8799 66.87 11.5299 66.87 11.1999V10.2099C66.87 9.97986 66.85 9.74986 66.87 9.50986V9.44986C66.87 9.32986 66.85 9.21986 66.87 9.09986C66.87 8.95986 66.85 8.82986 66.83 8.66986C66.83 8.60986 66.85 8.56986 66.85 8.50986H66.87C66.87 8.35986 66.85 8.19986 66.85 8.13986C66.83 8.07986 66.83 7.99986 66.85 7.92986C66.87 7.82986 66.87 7.73986 66.87 7.63986C66.85 7.51986 66.85 7.40986 66.85 7.26986V6.91986C66.87 6.77986 66.89 6.64986 66.89 6.50986C66.87 6.33986 66.89 6.17986 66.89 6.00986V3.74986C66.89 3.49986 66.95 3.37986 66.91 3.12986L66.89 2.96986V2.84986C66.93 2.57986 66.91 2.32986 66.87 2.05986C66.87 1.95986 66.85 1.86986 66.83 1.76986C66.81 1.53986 66.75 1.30986 66.71 1.04986C66.71 0.859863 66.63 0.659863 66.57 0.469863C66.55 0.409863 66.57 0.349863 66.61 0.299863C66.63 0.279863 66.63 0.259863 66.67 0.259863C66.82 0.259863 66.96 0.239863 67.12 0.279863C67.27 0.259863 67.51 0.299863 67.66 0.279863C67.7133 0.279863 67.7666 0.28653 67.82 0.299863C67.88 0.299863 67.94 0.299863 67.99 0.279863C68.07 0.219863 68.16 0.219863 68.24 0.279863C68.28 0.299863 68.32 0.319863 68.36 0.359863C68.38 0.379863 68.4 0.399863 68.38 0.419863C68.4 0.519863 68.4 0.589863 68.36 0.669863C68.32 0.769863 68.32 0.839863 68.3 0.939863C68.28 1.16986 68.26 1.43986 68.22 1.68986C68.22 1.80986 68.18 1.91986 68.16 2.01986C68.16 2.13986 68.14 2.22986 68.18 2.32986V2.44986C68.14 2.61986 68.14 2.81986 68.14 3.00986C68.16 3.06986 68.14 3.12986 68.14 3.17986C68.12 3.34986 68.12 3.52986 68.12 3.69986C68.14 3.81986 68.14 4.02986 68.14 4.13986C68.12 4.36986 68.16 4.59986 68.16 4.83986V5.06986C68.16 5.06986 68.12 5.27986 68.12 5.39986V5.87986C68.18 6.06986 68.16 6.28986 68.16 6.49986C68.16 6.94986 68.18 7.21986 68.16 7.48986C68.14 7.52986 68.16 7.56986 68.16 7.60986V7.68986C68.16 7.68986 68.2 7.78986 68.24 7.78986C68.43 7.78986 68.9 7.63986 69.25 7.61986C69.27 7.59986 69.39 7.57986 69.39 7.55986C69.43 7.51986 69.45 7.53986 69.51 7.49986C69.59 7.45986 69.68 7.41986 69.82 7.39986C69.86 7.39986 69.9 7.39986 69.92 7.37986C70.19 7.22986 70.33 7.08986 70.52 7.06986C70.6 7.02986 70.68 6.98986 70.69 6.92986C70.81 6.78986 70.85 6.65986 70.94 6.40986C70.94 6.34986 70.98 6.28986 70.98 6.23986C71 5.78986 71.04 5.73986 71.04 5.55986V5.18986C71.04 5.12986 71.04 4.99986 71.02 4.81986C71.02 4.62986 71.04 4.42986 71.04 4.52986V4.40986C71.02 4.32986 71.04 4.26986 71.04 4.21986L71.06 3.90986C71.04 3.78986 71.04 3.59986 71.06 3.49986C71.08 3.41986 71.06 3.39986 71.06 3.28986C71.04 3.18986 71.08 3.14986 71.08 3.09986V2.94986C71.08 2.80986 71.06 2.67986 71.1 2.53986V2.41986C71.1 2.06986 71.06 1.73986 71.04 1.40986C71.04 1.28986 71.04 1.19986 71 1.09986C70.98 1.07986 70.98 1.05986 70.98 1.03986C70.96 0.809863 70.9 0.609863 70.85 0.419863C70.83 0.379863 70.87 0.279863 70.93 0.279863C71.08 0.259863 71.26 0.239863 71.41 0.239863H71.49C71.59 0.279863 71.84 0.219863 71.99 0.259863C72.09 0.279863 72.18 0.259863 72.28 0.259863H72.47C72.55 0.279863 72.63 0.359863 72.61 0.429863C72.57 0.589863 72.55 0.739863 72.55 0.889863C72.55 0.929863 72.55 0.949863 72.53 0.969863C72.47 1.06986 72.51 1.15986 72.49 1.25986C72.47 1.35986 72.47 1.44986 72.47 1.56986C72.49 1.60986 72.47 1.66986 72.47 1.69986C72.45 1.86986 72.43 2.02986 72.43 2.17986C72.45 2.34986 72.41 2.50986 72.43 2.65986L72.37 3.23986C72.37 3.73986 72.39 4.33986 72.39 4.72986V4.76986L72.37 5.22986C72.35 5.28986 72.33 5.32986 72.33 5.38986C72.31 5.50986 72.29 5.61986 72.29 5.73986C72.23 5.90986 72.27 6.50986 72.21 6.66986L72.15 6.80986C72.03 7.34986 71.8 7.53986 71.61 7.73986L71.47 7.87986C71.35 7.97986 71.2 8.04986 71.03 8.14986C71.07 8.39986 71.22 9.11986 71.2 9.13986C71.22 9.17986 71.22 9.19986 71.22 9.21986C71.24 9.27986 71.26 9.31986 71.26 9.35986C71.26 9.60986 71.34 9.81986 71.38 10.0599C71.42 10.1599 71.46 10.2299 71.48 10.3299C71.5 10.4299 71.52 10.4999 71.56 10.5799C71.6 10.6799 71.62 10.7699 71.66 10.8899C71.72 11.1799 71.8 11.4899 71.89 11.7799C72.12 12.4999 72.22 12.8399 72.3 13.1899C72.32 13.3599 72.4 13.5199 72.46 13.6699C72.52 13.8299 72.59 13.9799 72.63 14.1499C72.69 14.3199 72.77 14.4999 72.82 14.6899L72.88 14.7899C72.96 14.9099 73.03 15.0399 73.07 15.1799C73.13 15.3899 73.24 15.5499 73.38 15.7199C73.42 15.7599 73.38 15.8199 73.34 15.8399" fill="#FBF8F2"/>
<path d="M76.3 15.7498C76.3 15.6498 76.36 15.3998 76.4 15.3198C76.46 15.0498 76.52 14.7798 76.55 14.4898C76.59 14.2598 76.59 14.0098 76.63 13.7698C76.65 13.6698 76.63 13.5798 76.67 13.4798C76.69 13.4398 76.69 13.3798 76.67 13.3298C76.65 13.1898 76.65 13.0798 76.65 12.9398V12.2998C76.67 12.2398 76.67 11.8898 76.67 11.8398C76.65 11.7998 76.65 11.7398 76.65 11.6898C76.55 11.6498 76.53 11.6098 76.48 11.5698C76.44 11.5498 76.38 11.5298 76.34 11.5298C76.17 11.5098 76.03 11.4298 75.88 11.3598C75.78 11.2998 75.67 11.2398 75.55 11.1898C75.49 11.1498 75.43 11.1098 75.38 11.0498L74.99 10.6398C74.93 10.4998 74.91 10.3498 74.84 10.2298C74.74 10.0398 74.7 9.83982 74.63 9.64982V9.54982C74.61 9.48982 74.61 9.42982 74.61 9.38982C74.57 9.26982 74.57 9.17982 74.57 9.05982C74.55 8.89983 74.55 8.74982 74.53 8.60982C74.49 8.43982 74.49 8.25982 74.49 8.08982C74.51 7.98982 74.51 7.91982 74.51 7.81982C74.53 7.58982 74.51 7.35982 74.53 7.09982C74.53 7.03982 74.53 6.95982 74.51 6.88982C74.51 6.51982 74.49 6.14982 74.51 5.80982C74.51 5.51982 74.53 5.22982 74.51 4.93982C74.51 4.85982 74.49 4.80982 74.49 4.72982C74.51 4.51982 74.47 4.29982 74.49 4.08982C74.49 3.85982 74.47 3.63982 74.45 3.40982C74.45 3.24982 74.43 3.11982 74.45 2.96982C74.45 2.79982 74.41 2.63982 74.41 2.48982C74.45 2.15982 74.43 1.82982 74.37 1.51982C74.37 1.30982 74.33 1.10982 74.29 0.919824C74.27 0.859824 74.27 0.799824 74.25 0.749824L74.21 0.479824V0.399824C74.21 0.399824 74.27 0.319824 74.31 0.319824H75.9C75.96 0.319824 76 0.359824 76.04 0.399824C76.08 0.439824 76.1 0.519824 76.08 0.569824C76.02 0.759824 76.02 0.959824 75.98 1.14982L75.96 1.33982C75.94 1.45982 75.92 1.58982 75.9 1.70982L75.84 2.26982C75.84 2.26982 75.86 2.36982 75.86 2.40982C75.8 2.57982 75.78 2.73982 75.78 2.88982V3.15982C75.78 3.27982 75.78 3.38982 75.76 3.48982C75.74 3.60982 75.78 3.71982 75.76 3.83982C75.76 3.87982 75.74 3.91982 75.74 3.93982C75.74 4.01982 75.72 4.07982 75.72 4.12982C75.74 4.28982 75.72 4.41982 75.72 4.57982C75.72 4.63982 75.72 4.70982 75.74 4.76982C75.78 4.90982 75.78 5.03982 75.76 5.17982C75.74 5.29982 75.74 5.42982 75.74 5.54982C75.76 5.60982 75.76 5.64982 75.76 5.70982V6.63982C75.78 6.77982 75.76 6.88982 75.76 7.02982C75.8 7.21982 75.8 7.41982 75.8 7.60982C75.8 7.77982 75.82 7.93982 75.82 8.10982V8.24982C75.8 8.47982 75.78 8.72983 75.84 8.96982C75.86 9.02983 75.86 9.08982 75.88 9.13982V9.30982C75.92 9.38982 75.96 9.42982 75.98 9.47982C76.08 9.66982 76.21 9.80982 76.37 9.93982C76.47 10.0198 76.58 10.0798 76.7 10.1298C76.78 10.1898 76.87 10.2098 76.97 10.2098L77.49 10.2698C77.55 10.2698 77.59 10.2498 77.64 10.2498C77.83 10.2298 78.01 10.1898 78.18 10.0998C78.2 10.0798 78.24 10.0598 78.26 10.0598C78.49 9.86983 78.63 9.64982 78.76 9.41982C78.76 9.39982 78.78 9.37982 78.78 9.35982C78.8 9.21982 78.86 9.12982 78.9 8.98982C78.96 8.71982 79.03 8.42982 79.03 8.13982C79.03 8.07982 79.03 7.99982 79.07 7.92982C79.09 7.84982 79.07 7.75982 79.07 7.67982C79.07 7.50982 79.05 7.34982 79.05 7.17982C79.07 7.04982 79.09 6.88982 79.09 6.73982C79.07 6.57982 79.09 6.44982 79.09 6.28982C79.09 6.16982 79.11 6.03982 79.11 5.91982C79.09 5.75982 79.09 5.60982 79.07 5.45982C79.09 5.35982 79.09 5.24982 79.09 5.12982C79.09 4.97982 79.09 4.83982 79.11 4.67982C79.11 4.50982 79.09 4.32982 79.11 4.15982C79.11 4.05982 79.09 3.98982 79.07 3.88982V3.67982C79.09 3.36982 79.11 3.07982 79.05 2.76982C79.03 2.70982 79.03 2.62982 79.03 2.55982C79.01 2.47982 79.01 2.39982 79.01 2.32982C79.01 2.15982 78.99 1.95982 78.99 1.76982C78.99 1.64982 78.97 1.51982 78.97 1.39982C78.93 1.22982 78.93 1.02982 78.93 0.839824C78.93 0.759824 78.85 0.629824 78.81 0.549824C78.77 0.489824 78.75 0.339824 78.87 0.339824H78.95C79.09 0.339824 79.22 0.359824 79.34 0.319824H79.4C79.57 0.339824 79.69 0.339824 79.86 0.339824H80.54C80.54 0.339824 80.62 0.379824 80.62 0.419824C80.64 0.569824 80.6 0.769824 80.54 0.919824C80.52 0.959824 80.5 1.01982 80.52 1.05982C80.52 1.21982 80.5 1.36982 80.48 1.50982C80.44 1.67982 80.42 1.85982 80.44 2.02982C80.44 2.18982 80.4 2.33982 80.42 2.47982V2.78982C80.42 2.90982 80.38 2.99982 80.4 3.11982C80.42 3.25982 80.38 3.36982 80.4 3.48982C80.42 3.60982 80.42 3.71982 80.42 3.83982C80.4 4.02982 80.42 4.22982 80.4 4.43982C80.38 4.47982 80.4 4.53982 80.4 4.59982V4.84982C80.38 4.96982 80.36 5.07982 80.38 5.17982C80.38 5.21982 80.38 5.25982 80.36 5.29982V5.44982C80.38 5.63982 80.4 5.83982 80.36 6.04982V6.74982C80.34 6.99982 80.32 7.24982 80.34 7.50982C80.34 7.60982 80.3 7.67982 80.28 7.75982C80.3 7.92982 80.3 8.10982 80.3 8.27982C80.28 8.44982 80.26 8.60983 80.26 8.75982C80.26 9.00982 80.22 9.25982 80.16 9.50982C80.12 9.73982 80.04 9.98982 79.93 10.2098C79.91 10.2698 79.87 10.3298 79.85 10.3798C79.77 10.5198 79.68 10.6298 79.56 10.7498L79.35 10.9598C79.27 11.0398 79.18 11.1098 79.06 11.1898C78.93 11.2898 78.77 11.3598 78.61 11.4398L78.53 11.4598C78.43 11.4998 78.32 11.5398 78.2 11.5598L78.06 11.6198C78.06 11.6198 77.98 11.6798 78.06 11.7398C78.06 11.7598 78.04 11.7798 78.04 11.7998C78.06 12.1298 78.04 12.4398 78.04 12.7498C78.04 12.8098 78.02 12.8698 78.04 12.9398C78.06 13.2498 78.04 13.5998 78.06 13.9298C78.06 14.0698 78.06 14.1998 78.1 14.3598C78.1 14.3998 78.12 14.4598 78.12 14.5198C78.1 14.6598 78.14 14.8098 78.16 14.9298C78.2 15.1398 78.28 15.3798 78.29 15.6098C78.29 15.6298 78.35 15.7698 78.35 15.7798C78.37 15.8398 78.35 15.9698 78.23 15.9698C78.1 15.9698 77.94 15.9898 77.8 15.9698C77.61 15.9898 77.41 15.9698 77.18 15.9698H77.02C76.88 15.9898 76.54 15.9898 76.42 15.9898C76.28 15.9898 76.25 15.8398 76.26 15.7998" fill="#FBF8F2"/>
<path d="M37.21 34.9497C37.21 34.9497 37.13 34.8897 37.15 34.8497C37.15 34.7897 37.25 34.3897 37.25 34.3697C37.27 34.2097 37.31 34.0797 37.31 33.9197C37.31 33.8797 37.31 33.8197 37.33 33.7797C37.39 33.6297 37.41 33.4897 37.39 33.3397C37.39 33.2397 37.39 33.1697 37.41 33.0697C37.45 33.0097 37.45 32.9097 37.45 32.8397C37.47 32.7397 37.45 32.6497 37.47 32.5297C37.47 32.4497 37.51 32.3697 37.51 32.2797C37.53 32.2197 37.53 32.1597 37.53 32.1097C37.55 31.8397 37.55 31.5697 37.55 31.3197C37.55 31.1297 37.53 30.9097 37.53 30.7197V30.4097C37.55 30.1597 37.55 29.9297 37.55 29.6897C37.53 29.6297 37.55 29.5897 37.55 29.5297C37.57 29.2397 37.55 28.9297 37.55 28.6397C37.57 28.4697 37.55 28.3097 37.59 28.1397C37.59 28.0797 37.59 28.0197 37.57 27.9897C37.57 27.8497 37.55 27.7397 37.57 27.5997V27.4597C37.55 27.0897 37.57 26.7297 37.55 26.3797C37.55 26.2997 37.53 26.2197 37.55 26.1497C37.57 25.7997 37.53 25.4697 37.53 25.1197V24.2497C37.53 24.1697 37.53 24.0797 37.51 23.9997V23.6897C37.53 23.5897 37.51 23.4797 37.47 23.3597C37.45 23.2997 37.45 23.2197 37.45 23.1497C37.47 23.0497 37.47 22.9797 37.47 22.8597V22.2197C37.47 21.9097 37.47 21.5797 37.45 21.2497V21.0797C37.39 20.8897 37.39 20.6897 37.37 20.5397C37.33 20.2097 37.29 19.8997 37.23 19.5697L37.11 19.4497C37.11 19.4497 37.09 19.4097 37.11 19.3897C37.13 19.3697 37.15 19.3497 37.17 19.3497C37.21 19.3297 37.27 19.3297 37.3 19.3297C37.38 19.3297 37.46 19.3097 37.53 19.2897C37.59 19.2497 37.65 19.2697 37.7 19.2897C37.76 19.3097 37.82 19.3297 37.87 19.3297H38.14C38.31 19.3097 38.49 19.3097 38.66 19.3097C38.97 19.3297 39.26 19.3497 39.57 19.3497H39.69C39.81 19.3497 39.9 19.3497 40.02 19.3697C40.12 19.3897 40.21 19.3897 40.31 19.4097C40.39 19.4297 40.21 19.4097 40.62 19.3697C40.64 19.3697 40.66 19.3697 40.68 19.3497C40.8 19.3497 40.91 19.3897 41.03 19.3697H41.13C41.13 19.3697 41.21 19.4097 41.25 19.4497C41.27 19.4497 41.31 19.4497 41.35 19.4697C41.54 19.4897 41.74 19.5297 41.93 19.6197C41.99 19.6397 42.05 19.6597 42.08 19.6597C42.22 19.7797 42.33 19.9097 42.43 20.0297C42.49 20.0897 42.55 20.1697 42.57 20.2397C42.63 20.3997 42.69 20.5297 42.73 20.6897C42.75 20.7497 42.75 20.8297 42.77 20.8797C42.85 21.0697 42.85 21.2697 42.89 21.4597C42.91 21.5597 42.91 21.6497 42.91 21.7497C42.93 21.8697 42.93 21.9597 42.95 22.0597C42.97 22.1597 42.99 22.2697 42.99 22.3897V23.0897C42.99 23.3597 42.97 23.6297 42.97 23.8097C42.97 23.9897 42.95 24.1597 42.99 24.3297C43.01 24.4497 42.99 24.5797 42.99 24.6997C42.99 24.8497 42.99 24.9897 43.01 25.1397C43.01 25.1797 43.03 25.2197 43.01 25.2597C42.99 25.5697 42.99 25.8997 42.99 26.2297C42.97 26.3697 42.95 26.4997 42.95 26.6397C42.95 26.8097 42.95 26.9897 42.99 27.1597C42.91 27.4097 42.87 27.6397 42.85 27.8797C42.83 27.9597 42.83 28.0497 42.77 28.1497C42.75 28.1897 42.75 28.2297 42.75 28.2897C42.73 28.4397 42.67 28.5797 42.58 28.7197C42.52 28.7997 42.46 28.8897 42.39 28.9697C42.37 29.0297 42.33 29.0697 42.31 29.0897L42.06 29.3597C41.93 29.4397 41.81 29.5297 41.69 29.6097C41.53 29.7397 41.38 29.8397 41.21 29.9197C41.17 29.9597 41.11 29.9797 41.06 29.9997C40.85 30.0597 40.63 30.0997 40.4 30.1597C40.3 30.1797 40.21 30.1797 40.11 30.1797C39.94 30.1797 39.72 30.1797 39.53 30.1997C39.41 30.1797 39.28 30.1997 39.12 30.1997C39.04 30.1997 38.95 30.1997 38.85 30.2197C38.81 30.2197 38.75 30.2597 38.75 30.3197C38.73 30.5297 38.73 30.6297 38.73 30.7497C38.73 31.3697 38.73 31.9697 38.75 32.5897V32.7097C38.81 33.1697 38.85 33.6597 38.92 34.1397C38.94 34.2397 38.96 34.3497 38.96 34.4697C38.98 34.5997 39.02 34.7397 39.1 34.8597C39.12 34.8797 39.12 34.8997 39.12 34.9197C39.12 34.9597 39.1 34.9797 39.08 34.9997C39.06 35.0197 39.02 35.0397 38.98 35.0397H38.79C38.66 35.0397 38.5 35.0197 38.34 35.0397H37.78C37.78 35.0397 37.68 35.0197 37.62 35.0397C37.49 35.0797 37.35 35.0397 37.21 34.9997M39.82 28.8497C39.94 28.8297 40.05 28.7897 40.17 28.7297C40.29 28.6697 40.4 28.6497 40.56 28.5897C40.64 28.5697 40.71 28.5497 40.77 28.5097L41 28.3697C41.1 28.2897 41.19 28.2097 41.23 28.0797C41.27 27.9997 41.33 27.9097 41.36 27.7897C41.44 27.6497 41.48 27.4997 41.48 27.3297C41.5 26.9597 41.48 26.5897 41.48 26.2097C41.48 25.9997 41.5 25.7797 41.52 25.5697C41.56 25.4297 41.56 25.2797 41.56 25.1097C41.54 24.8797 41.58 24.6497 41.56 24.4097C41.6 24.2397 41.58 24.0797 41.58 23.9097C41.58 23.8097 41.56 23.6997 41.58 23.5797C41.6 23.5397 41.58 23.4997 41.58 23.4597C41.56 23.2997 41.58 23.1297 41.5 23.0197V22.9397C41.52 22.7297 41.5 22.5097 41.48 22.2997C41.48 22.1097 41.44 21.9097 41.4 21.6997C41.38 21.6797 41.38 21.6397 41.36 21.5997C41.32 21.4797 41.32 21.3897 41.32 21.2697C41.32 21.2297 41.3 21.1897 41.28 21.1497C41.26 21.0897 41.22 21.0097 41.16 20.9797L41.04 20.8597C40.92 20.7997 40.85 20.7597 40.75 20.7197C40.63 20.6597 40.46 20.6197 40.34 20.6197C40.3 20.6197 40.24 20.6197 40.21 20.5997C40.09 20.5597 39.98 20.5997 39.86 20.5997C39.65 20.6197 39.43 20.5997 39.22 20.6197H38.83C38.77 20.6197 38.71 20.6797 38.71 20.7397V23.7997C38.73 24.0097 38.73 24.2097 38.71 24.4197C38.71 24.6497 38.71 24.8797 38.73 25.0997C38.73 25.2897 38.73 25.4897 38.71 25.6397V26.0297C38.71 26.1497 38.73 26.2797 38.73 26.3997C38.73 26.5397 38.71 26.6697 38.71 26.8097V28.2997C38.71 28.2997 38.71 28.3797 38.73 28.4197C38.75 28.5197 38.73 28.6097 38.71 28.7097V28.7897C38.71 28.7897 38.77 28.8897 38.81 28.8897C38.89 28.8897 38.93 28.9097 39 28.9097C39.25 28.8897 39.52 28.8497 39.79 28.8497" fill="#FBF8F2"/>
<path d="M50.06 34.7497C50.06 34.7497 50.04 34.7897 50.02 34.8097C49.86 34.8697 49.71 34.9097 49.54 34.9097C49.39 34.8897 49.21 34.9097 49.06 34.9097C48.85 34.8897 48.71 34.9297 48.6 34.9697C48.48 34.9497 48.39 34.9097 48.27 34.8897C48.23 34.8497 48.21 34.8097 48.23 34.7497C48.29 34.5197 48.33 34.2897 48.35 34.0497C48.37 33.9297 48.37 33.8397 48.31 33.7597C48.29 33.7397 48.29 33.6997 48.31 33.6797C48.37 33.5797 48.35 33.4497 48.39 33.3497C48.41 33.3097 48.41 33.2697 48.41 33.2297C48.41 33.0897 48.45 32.9397 48.47 32.7897V32.6897C48.49 32.5697 48.45 32.4797 48.47 32.3797C48.49 32.2997 48.47 32.2097 48.47 32.1297C48.45 32.0697 48.49 30.8497 48.49 30.7197V30.6997C47.89 30.8397 46.5 31.3597 46.21 31.4697C46.13 31.5097 46.05 31.5297 45.98 31.5697L45.59 31.6897V32.2497C45.59 32.3897 45.59 32.5397 45.61 32.6897C45.63 32.7897 45.63 32.8797 45.63 32.9797C45.65 33.3297 45.69 33.6597 45.73 33.9897C45.73 34.0497 45.75 34.0897 45.77 34.1497C45.83 34.4197 45.89 34.6697 45.94 34.8297C45.94 34.8897 45.88 34.9697 45.82 34.9497C45.74 34.9297 45.66 34.9297 45.59 34.9697H45.49C45.35 34.9897 45.14 34.9697 45.01 34.9897C44.99 34.9897 44.95 35.0097 44.91 34.9897C44.79 34.9697 44.68 34.9697 44.56 34.9897C44.39 35.0097 44.21 34.9897 44.04 34.9897C44.04 34.9897 44.02 34.9697 44.02 34.9497C43.98 34.9297 43.96 34.8897 43.98 34.8497C43.98 34.7897 44 34.7297 44.02 34.6797C44.04 34.5797 44.06 34.4897 44.06 34.3897C44.04 34.2897 44.06 34.1797 44.1 34.0997C44.12 34.0597 44.12 34.0197 44.12 33.9797C44.14 33.8997 44.14 33.8097 44.14 33.7097C44.16 33.6497 44.14 33.5897 44.16 33.5397C44.2 33.0897 44.2 32.6297 44.22 32.1897C44.22 32.0697 44.26 31.9397 44.24 31.8197C44.24 31.7997 44.24 31.7597 44.26 31.7397C44.3 31.6397 44.3 31.5297 44.3 31.4097C44.28 31.1197 44.32 30.8097 44.32 30.5197V30.3997C44.36 30.2397 44.36 30.0697 44.36 29.9197C44.36 29.3397 44.36 28.7597 44.34 28.1997C44.32 28.0097 44.3 27.8297 44.3 27.6397C44.3 27.5797 44.28 27.4997 44.3 27.4497C44.34 27.3097 44.32 27.1597 44.32 26.9997C44.3 26.8597 44.3 26.5897 44.32 26.4597C44.34 26.3397 44.34 26.2097 44.32 26.0897V25.7797C44.36 25.5297 44.36 25.2597 44.34 25.0097C44.32 24.9497 44.34 24.9097 44.34 24.8497C44.36 24.6197 44.38 24.4097 44.34 24.1697V24.0497C44.34 23.8197 44.36 23.5897 44.36 23.3497C44.36 23.2297 44.36 23.1197 44.34 22.9997C44.32 22.9197 44.32 22.8597 44.34 22.7897C44.36 22.5997 44.36 22.3797 44.34 22.1897V22.1097C44.36 21.8597 44.3 21.6297 44.3 21.3697C44.32 21.3097 44.34 21.2497 44.32 21.1997C44.26 21.0297 44.3 20.8297 44.34 20.6597C44.36 20.6197 44.36 20.5797 44.38 20.5397C44.48 20.3897 44.55 20.2097 44.67 20.0597C44.83 19.8697 45 19.6897 45.21 19.5397C45.25 19.5197 45.29 19.4997 45.31 19.4797L45.44 19.4197C45.54 19.3597 45.63 19.2997 45.75 19.2597C45.91 19.1997 46.08 19.1397 46.25 19.0997C46.29 19.0797 46.35 19.0797 46.38 19.0797L46.75 19.0197C47.02 18.9797 47.1 18.9997 47.37 19.0197C47.5 19.0397 47.64 19.0797 47.78 19.0797C47.82 19.0797 47.86 19.0997 47.88 19.1197C48 19.1597 48.11 19.1797 48.21 19.1597C48.25 19.1597 48.27 19.1797 48.29 19.1797C48.52 19.2597 48.72 19.3897 48.93 19.5097C49.05 19.5897 49.12 19.6797 49.22 19.7797C49.28 19.8797 49.36 19.9497 49.41 20.0497C49.49 20.1497 49.56 20.2597 49.6 20.3597C49.62 20.4597 49.66 20.5497 49.7 20.6497L49.78 20.7697C49.8 20.8697 49.78 20.9297 49.8 20.9797C49.82 21.1297 49.78 21.2097 49.8 21.3497C49.82 21.4897 49.82 21.6197 49.84 21.7597C49.88 22.1097 49.88 22.4597 49.88 22.7997V24.4097C49.88 24.6397 49.9 24.8597 49.9 25.0897C49.9 25.2297 49.9 25.3597 49.88 25.4997C49.86 25.6697 49.86 25.8497 49.88 26.0197C49.9 26.3097 49.88 26.7397 49.88 27.0297V28.2297C49.88 28.5997 49.86 28.9797 49.88 29.3497C49.9 29.5097 49.88 29.6797 49.88 29.8297C49.86 29.9497 49.86 30.0597 49.88 30.1597C49.88 30.3097 49.88 30.4697 49.86 30.6197C49.84 30.6797 49.86 30.7397 49.86 30.7897C49.86 30.8297 49.88 30.8697 49.86 30.9097C49.8 31.1197 49.82 31.3397 49.86 31.5497C49.86 31.5897 49.88 31.6497 49.86 31.6897C49.84 31.8097 49.84 31.9197 49.86 32.0397V32.0997C49.84 32.5097 49.86 32.9097 49.86 33.2997C49.88 33.4697 49.88 33.6297 49.92 33.7797C49.94 33.8597 49.94 33.9397 49.96 34.0097C49.98 34.2197 50.02 34.4197 50.08 34.6297C50.08 34.6697 50.08 34.7097 50.1 34.7497M48.36 29.2697C48.42 29.2497 48.46 29.2097 48.51 29.1897C48.49 29.1497 48.49 29.0897 48.49 29.0497C48.49 28.9497 48.49 28.8797 48.51 28.7797L48.53 27.3097V26.1497C48.51 25.7797 48.51 25.6297 48.51 25.4697C48.53 25.2597 48.51 25.0397 48.51 24.8297C48.51 24.6597 48.49 24.4797 48.51 24.3097C48.53 24.1897 48.53 24.0597 48.49 23.9397C48.47 23.8997 48.49 23.8397 48.49 23.7897C48.51 23.5997 48.51 23.3797 48.47 23.1697C48.45 23.0197 48.45 22.8597 48.47 22.7097V22.1497C48.45 22.0097 48.47 21.8797 48.43 21.7397C48.39 21.5097 48.37 21.2797 48.3 21.0597C48.24 20.9597 48.18 20.8897 48.11 20.8097C47.97 20.7097 47.78 20.5197 47.63 20.4197C47.46 20.3797 47.34 20.3397 47.2 20.3197C47.14 20.2997 47.08 20.2997 47.03 20.2997C46.91 20.2797 46.95 20.2997 46.78 20.2997C46.74 20.2997 46.7 20.2997 46.66 20.3197C46.54 20.3597 46.39 20.3997 46.25 20.4597C46.04 20.5797 45.88 20.7097 45.79 20.9197C45.71 21.1097 45.6 21.2897 45.66 21.4997V22.3097C45.62 22.4297 45.64 22.5397 45.66 22.6597C45.68 22.8697 45.7 23.0897 45.68 23.2997V25.5997C45.68 25.8097 45.66 26.0597 45.66 26.2797C45.66 26.5097 45.68 26.7597 45.66 27.0197L45.64 27.3697C45.62 27.5197 45.64 27.7197 45.64 27.8697C45.66 28.3197 45.66 28.7197 45.62 29.1497V30.3297L46.22 30.1197C46.37 30.0397 46.53 29.9797 46.68 29.9297C46.83 29.8697 46.8 29.9097 46.97 29.7997C47.16 29.7197 47.38 29.6397 47.61 29.5697L48.37 29.2797L48.36 29.2697Z" fill="#FBF8F2"/>
<path d="M56.02 34.9299C56.02 34.9299 55.94 35.0099 55.92 34.9899H54.91C54.77 34.9499 54.52 34.9899 54.37 34.9699H53.89C53.83 34.9499 53.73 34.9699 53.66 34.9499H53.31C52.79 34.9299 52.17 34.9299 51.65 34.9499C51.59 34.9699 51.51 34.9499 51.46 34.9499C51.42 34.9499 51.38 34.8699 51.4 34.8299L51.57 34.3499C51.61 34.2499 51.63 34.1799 51.61 34.0799C51.61 33.9299 51.65 33.7899 51.69 33.6399C51.73 33.4799 51.73 33.3299 51.75 33.1599C51.75 32.9899 51.75 32.8099 51.81 32.6199C51.83 32.5399 51.81 32.4499 51.83 32.3699C51.83 32.1399 51.83 31.8899 51.85 31.6499V31.4899C51.83 31.3199 51.83 31.1199 51.83 30.9299C51.83 30.5399 51.85 30.1599 51.85 29.7699C51.83 29.5799 51.85 29.3799 51.85 29.1699V28.4699C51.85 27.9499 51.83 27.4599 51.85 26.9799V26.0899C51.87 25.8799 51.85 25.6599 51.87 25.4499C51.89 25.3499 51.89 25.2399 51.89 25.1399C51.87 24.6799 51.89 24.2099 51.91 23.7699C51.89 23.5199 51.87 23.2699 51.87 23.0299C51.89 22.6799 51.89 22.3499 51.89 22.0199V21.6699C51.93 21.4799 51.91 21.2799 51.91 21.0699C51.89 20.9699 51.89 20.8799 51.89 20.7799C51.87 20.5899 51.87 20.3699 51.81 20.1799C51.81 20.1399 51.79 20.0999 51.79 20.0599C51.79 19.8899 51.73 19.7299 51.66 19.5799C51.64 19.5399 51.68 19.4399 51.7 19.4299C51.83 19.3699 52.05 19.3099 52.2 19.3499C52.61 19.3699 53.03 19.3499 53.44 19.3499H53.52C53.58 19.3499 53.66 19.4499 53.64 19.4999C53.58 19.6599 53.58 19.8099 53.52 19.9599C53.46 20.3699 53.37 20.7699 53.31 21.1799C53.31 21.2599 53.29 21.3499 53.29 21.4299L53.23 22.4399V22.5899C53.23 22.8599 53.23 23.1099 53.21 23.3999C53.21 23.6499 53.19 23.8999 53.19 24.1599C53.19 24.4699 53.17 24.7799 53.19 25.0899C53.21 25.3199 53.21 25.5699 53.19 25.8099C53.17 25.9499 53.17 26.0999 53.17 26.2499C53.19 26.4799 53.19 26.6999 53.17 26.9299C53.15 27.0999 53.15 27.2799 53.17 27.4499C53.17 27.6099 53.17 27.7399 53.15 27.8899C53.13 28.0099 53.13 28.0799 53.15 28.1599C53.19 28.2999 53.19 28.4099 53.17 28.5499C53.13 28.8399 53.15 29.1499 53.15 29.4399C53.17 29.5399 53.17 29.6299 53.15 29.7499V31.0499C53.13 31.2399 53.13 31.4399 53.17 31.6099C53.21 31.7699 53.21 31.9199 53.19 32.0599C53.19 32.3299 53.19 32.5999 53.21 32.8699C53.21 32.9499 53.23 33.0199 53.23 33.0999V33.6799C53.29 33.6799 53.37 33.6999 53.42 33.6999C53.65 33.6999 53.9 33.6999 54.14 33.6799C54.22 33.6799 54.28 33.6599 54.35 33.6599C54.6 33.6199 54.85 33.5599 55.11 33.5199C55.17 33.4999 55.26 33.4799 55.32 33.4799C55.47 33.4399 55.61 33.3799 55.77 33.3599C55.83 33.3599 55.89 33.3199 55.94 33.2999C55.96 33.2999 56.02 33.3399 56.02 33.3799C56.04 33.4399 56.04 33.4799 56.04 33.5299C56.02 34.0499 56.02 34.1899 56.04 34.7099C56.06 34.7699 56.04 34.8499 56.04 34.8999" fill="#FBF8F2"/>
<path d="M63.27 34.2695C63.29 34.4995 63.27 34.6995 63.21 34.9095C63.19 34.9495 63.09 35.0095 63.04 34.9895C63 34.9695 62.98 34.9695 62.96 34.9495C62.92 34.9095 62.88 34.8895 62.82 34.9095C62.63 34.9495 62.45 34.9495 62.28 34.9295C62.16 34.9295 62.05 34.9295 61.95 34.9095C61.83 34.9095 61.76 34.9295 61.66 34.9295H61.33C61.21 34.9295 61.14 34.9095 61.02 34.9295H60.73C60.05 34.9495 59.34 34.9495 58.6 34.9495H57.44C57.44 34.9495 57.36 34.9295 57.32 34.9295C57.3 34.9295 57.26 34.8695 57.26 34.8495V34.7695C57.32 34.5995 57.36 34.4395 57.4 34.2695C57.42 34.0995 57.46 33.9195 57.5 33.7495C57.54 33.5795 57.58 33.4195 57.58 33.2295C57.64 33.0395 57.68 32.8195 57.66 32.6095C57.7 32.4195 57.7 32.1995 57.72 32.0095C57.72 31.8895 57.74 31.7595 57.7 31.6395C57.68 31.4795 57.7 31.3095 57.7 31.1595C57.7 31.0595 57.7 30.9495 57.72 30.8495C57.72 30.7495 57.72 30.6595 57.7 30.5595C57.7 30.3895 57.7 30.2095 57.72 30.0395C57.72 29.8695 57.72 29.7095 57.74 29.5595C57.74 29.3695 57.72 29.1895 57.74 29.0195V26.9695C57.74 26.3495 57.74 25.7495 57.76 25.1295C57.76 24.7995 57.76 24.4695 57.78 24.1595C57.8 23.9095 57.8 23.6595 57.82 23.3995C57.82 22.6995 57.82 21.9695 57.8 21.2695C57.8 21.0395 57.76 20.8095 57.72 20.5695C57.7 20.4495 57.68 20.3395 57.68 20.2395C57.66 20.0295 57.6 19.8295 57.56 19.6395L57.5 19.3895C57.5 19.3295 57.58 19.2695 57.64 19.2695C57.68 19.2695 57.72 19.2695 57.76 19.2895C58.15 19.3495 58.55 19.3695 58.94 19.3495C59.02 19.3495 59.07 19.3295 59.13 19.3295C59.19 19.3295 59.23 19.3495 59.28 19.3495C59.36 19.3495 59.45 19.3695 59.53 19.3495H60.05C60.3 19.3695 60.55 19.3695 60.81 19.3495C60.87 19.3495 60.91 19.3495 60.98 19.3695C61.1 19.3695 61.19 19.3695 61.33 19.3495H61.41C61.7 19.3695 61.99 19.3295 62.28 19.3495C62.34 19.3495 62.4 19.3495 62.45 19.3295C62.64 19.3095 62.86 19.3095 63.03 19.2895C63.07 19.2895 63.09 19.2895 63.11 19.3095C63.15 19.3095 63.21 19.3495 63.21 19.4095C63.23 19.4695 63.25 19.5495 63.23 19.6195C63.21 19.8095 63.23 20.0295 63.25 20.2195V20.3695C63.29 20.5595 63.29 20.7595 63.29 20.9695C63.29 21.0895 63.21 21.1595 63.12 21.2195H63.08C63.08 21.2195 63.02 21.2195 63 21.1995C62.85 21.0795 62.65 21.0095 62.46 20.9695C62.4 20.9695 62.34 20.9495 62.29 20.9295C62.13 20.8695 62 20.8495 61.84 20.8495C61.72 20.8495 61.59 20.8295 61.45 20.8095C61.39 20.7895 61.32 20.7895 61.24 20.7895H60.89C60.72 20.8095 60.54 20.7895 60.37 20.8095C60.21 20.8295 59.94 20.8095 59.77 20.8095C59.62 20.8095 59.46 20.8295 59.31 20.8495C59.27 20.8495 59.23 20.9095 59.23 20.9695C59.21 21.1095 59.21 21.2395 59.21 21.3795V24.1295C59.15 24.3195 59.17 24.4995 59.17 24.6895C59.17 24.6495 59.17 24.8095 59.19 24.9395C59.15 25.0795 59.17 25.2095 59.15 25.3495V26.2195C59.15 26.2795 59.15 26.5695 59.13 26.9595L59.75 26.7495C59.9 26.6695 60.06 26.6095 60.21 26.5595C60.37 26.4995 60.33 26.5395 60.5 26.4195C60.69 26.3395 60.91 26.2595 61.14 26.1895C61.2 26.1695 61.24 26.1295 61.3 26.1095C61.94 25.7795 62.29 25.4695 62.35 25.7195C62.35 26.3395 62.37 27.1095 62.37 27.6595C62.39 27.9095 61.94 27.6595 61.42 27.7195C60.94 27.7795 60.07 27.9895 59.78 28.1095C59.7 28.1495 59.63 28.1695 59.55 28.2095C59.39 28.2495 59.26 28.2895 59.11 28.3495V29.6095C59.11 29.6895 59.09 29.7695 59.09 29.8195C59.09 30.0695 59.07 30.2995 59.09 30.5395C59.11 30.6395 59.11 30.7495 59.11 30.8495C59.11 31.1595 59.11 31.6595 59.09 31.8195V32.6495C59.11 32.9195 59.09 33.1895 59.09 33.4595C59.09 33.4795 59.09 33.5195 59.11 33.5395C59.11 33.5595 59.13 33.5795 59.15 33.5995H59.23C59.62 33.6195 60 33.6395 60.47 33.6195L60.72 33.5795C60.85 33.5795 60.97 33.5395 61.11 33.5395C61.3 33.5395 61.5 33.5195 61.65 33.4795C61.71 33.4595 61.77 33.4595 61.79 33.4595C62.08 33.4395 62.33 33.3795 62.56 33.3295L62.75 33.2695C62.85 33.2295 62.94 33.2095 63.02 33.1895C63.08 33.1895 63.12 33.2095 63.17 33.2095C63.21 33.2095 63.25 33.2695 63.27 33.3295C63.27 33.3695 63.29 33.4095 63.29 33.4495C63.29 33.5995 63.29 33.7395 63.27 33.8895C63.27 34.0295 63.27 34.1595 63.29 34.2995" fill="#FBF8F2"/>
<path d="M67.21 34.8698H67.09C66.82 34.7898 66.59 34.8498 66.36 34.8498C66.3 34.8698 66.26 34.8698 66.2 34.8498C66.16 34.8498 66.12 34.8298 66.08 34.8298C66.02 34.8098 65.96 34.7098 66 34.6398C66.13 34.3298 66.15 34.3898 66.21 34.0198C66.21 33.9198 66.23 33.8498 66.25 33.7498L66.29 33.5398C66.31 33.4198 66.31 33.3098 66.33 33.2098C66.39 32.9198 66.41 32.6298 66.43 32.3398C66.43 31.9098 66.45 31.4698 66.43 31.0398V30.9598C66.47 30.5698 66.47 30.1998 66.47 29.8398V29.6798C66.51 29.4898 66.51 29.2698 66.51 29.0798C66.51 28.9298 66.51 28.7498 66.53 28.5998V27.5898C66.51 27.4198 66.51 27.2398 66.51 27.0698C66.53 26.8998 66.51 26.7198 66.51 26.5498C66.51 26.3898 66.51 26.2398 66.49 26.0898C66.49 25.6298 66.53 25.1398 66.51 24.6798V24.5298C66.55 24.1598 66.53 23.7698 66.51 23.4098V23.2198C66.53 22.9098 66.53 22.5798 66.53 22.2498C66.53 22.0998 66.53 21.9198 66.55 21.7698C66.55 21.4398 66.55 21.0898 66.53 20.7498C66.49 20.7098 66.47 20.6898 66.43 20.6898C66.39 20.6898 66.35 20.6698 66.31 20.6898H66.02C65.87 20.6698 65.87 20.6898 65.75 20.7298C65.6 20.7898 65.5 20.7498 65.38 20.7898C65.15 20.8498 64.94 20.8498 64.7 20.8898C64.64 20.9098 64.56 20.9698 64.53 21.0098C64.43 21.0298 64.36 21.0698 64.3 21.0898C64.26 21.1098 64.18 21.0498 64.17 21.0298V20.9898C64.19 20.7198 64.21 20.5298 64.21 20.3098C64.21 20.2298 64.21 20.1698 64.19 20.1198C64.17 19.9298 64.19 19.6598 64.19 19.4598C64.19 19.4198 64.25 19.3598 64.29 19.3598C64.33 19.3598 64.37 19.3398 64.39 19.3398C64.47 19.3598 64.55 19.3598 64.58 19.3798C64.7 19.3598 64.79 19.3798 64.91 19.3598C65.03 19.3598 65.16 19.3398 65.28 19.3798C65.32 19.3998 65.38 19.3798 65.41 19.3798C65.6 19.3798 65.78 19.3998 65.97 19.3798C66.1 19.4198 66.28 19.3998 66.43 19.3998C66.45 19.3998 66.49 19.3998 66.53 19.4198H66.65C66.73 19.4198 66.79 19.3798 66.86 19.3798C66.94 19.3998 67.02 19.3798 67.09 19.3798C67.16 19.3798 67.25 19.3998 67.32 19.3998C67.36 19.3998 67.42 19.3998 67.45 19.3798C67.59 19.3798 67.7 19.3598 67.82 19.3998L68.21 19.3598C68.27 19.3598 68.31 19.3598 68.36 19.3798H68.53C68.7 19.3598 68.94 19.3998 69.11 19.3398H69.19C69.35 19.3798 69.56 19.3798 69.73 19.3598H70.14C70.22 19.3398 70.28 19.3198 70.35 19.3398C70.45 19.3398 70.52 19.3998 70.54 19.4998V19.8898C70.54 20.1198 70.52 20.3498 70.56 20.5898C70.58 20.6098 70.58 20.5898 70.56 20.6298C70.56 20.7298 70.54 20.8598 70.54 20.9798C70.5 20.9998 70.44 21.0198 70.42 21.0398C70.25 21.0198 70.11 20.9998 69.94 20.9198C69.92 20.8998 69.88 20.8798 69.86 20.8798C69.69 20.8198 69.51 20.7798 69.32 20.7398C69.24 20.7198 69.18 20.6998 69.11 20.6998C69.03 20.6798 68.9 20.6998 68.78 20.6998H68.2C68.2 20.6998 68.12 20.6998 68.08 20.7198C68.06 20.7198 68 20.7598 68 20.7798C68 20.8398 68 20.8998 67.98 20.9398C67.98 21.0798 67.98 21.1898 67.96 21.3098V21.7898C67.96 21.9598 67.96 22.1598 67.94 22.3498C67.92 22.4098 67.92 22.4898 67.94 22.5598V23.4898C67.98 23.6598 67.94 23.8398 67.96 24.0098C67.98 24.1698 67.96 24.2998 67.94 24.4398C67.94 24.5398 67.94 24.6298 67.96 24.7298V24.8098C67.94 25.0398 67.94 25.2598 67.92 25.4898C67.9 25.6198 67.9 25.7598 67.92 25.8998C67.94 26.1298 67.92 26.3398 67.92 26.5798C67.92 26.8498 67.9 27.1198 67.9 27.4098C67.9 27.6398 67.88 27.8698 67.9 28.1098L67.88 28.2998C67.86 28.5098 67.86 28.7298 67.86 28.9398C67.88 29.0598 67.88 29.1498 67.86 29.2698C67.86 29.6398 67.86 30.0098 67.9 30.3498C67.92 30.6598 67.92 30.9898 67.92 31.2998V31.5098C67.98 31.9398 67.96 32.3598 68.04 32.7898C68.06 32.8898 68.08 32.9798 68.08 33.0798C68.08 33.2898 68.12 33.5098 68.16 33.7198C68.22 34.0698 68.28 34.4398 68.39 34.7798C68.39 34.8198 68.37 34.8798 68.33 34.8998C68.33 34.8998 68.3167 34.9065 68.29 34.9198C68.29 34.9198 68.25 34.9398 68.23 34.9398C67.94 34.9398 67.51 34.9198 67.18 34.9198" fill="#FBF8F2"/>
<path d="M74.46 34.8698H74.34C74.07 34.7898 73.84 34.8498 73.61 34.8498C73.55 34.8698 73.51 34.8698 73.45 34.8498C73.41 34.8498 73.37 34.8298 73.33 34.8298C73.27 34.8098 73.21 34.7098 73.25 34.6398C73.38 34.3298 73.4 34.3898 73.46 34.0198C73.46 33.9198 73.48 33.8498 73.5 33.7498L73.54 33.5398C73.56 33.4198 73.56 33.3098 73.58 33.2098C73.64 32.9198 73.66 32.6298 73.68 32.3398C73.68 31.9098 73.7 31.4698 73.68 31.0398V30.9598C73.72 30.5698 73.72 30.1998 73.72 29.8398V29.6798C73.76 29.4898 73.76 29.2698 73.76 29.0798C73.76 28.9298 73.76 28.7498 73.78 28.5998V27.5898C73.76 27.4198 73.76 27.2398 73.76 27.0698C73.78 26.8998 73.76 26.7198 73.76 26.5498C73.76 26.3898 73.76 26.2398 73.74 26.0898C73.74 25.6298 73.78 25.1398 73.76 24.6798V24.5298C73.8 24.1598 73.78 23.7698 73.76 23.4098V23.2198C73.78 22.9098 73.78 22.5798 73.78 22.2498C73.78 22.0998 73.78 21.9198 73.8 21.7698C73.8 21.4398 73.8 21.0898 73.78 20.7498C73.74 20.7098 73.72 20.6898 73.68 20.6898C73.64 20.6898 73.6 20.6698 73.56 20.6898H73.27C73.12 20.6698 73.12 20.6898 73 20.7298C72.85 20.7898 72.75 20.7498 72.63 20.7898C72.4 20.8498 72.19 20.8498 71.95 20.8898C71.89 20.9098 71.81 20.9698 71.78 21.0098C71.68 21.0298 71.61 21.0698 71.55 21.0898C71.51 21.1098 71.43 21.0498 71.42 21.0298V20.9898C71.44 20.7198 71.46 20.5298 71.46 20.3098C71.46 20.2298 71.46 20.1698 71.44 20.1198C71.42 19.9298 71.44 19.6598 71.44 19.4598C71.44 19.4198 71.5 19.3598 71.54 19.3598C71.58 19.3598 71.62 19.3398 71.64 19.3398C71.72 19.3598 71.8 19.3598 71.83 19.3798C71.95 19.3598 72.04 19.3798 72.16 19.3598C72.28 19.3598 72.41 19.3398 72.53 19.3798C72.57 19.3998 72.63 19.3798 72.66 19.3798C72.85 19.3798 73.03 19.3998 73.22 19.3798C73.35 19.4198 73.53 19.3998 73.68 19.3998C73.7 19.3998 73.74 19.3998 73.78 19.4198H73.9C73.98 19.4198 74.04 19.3798 74.11 19.3798C74.19 19.3998 74.27 19.3798 74.34 19.3798C74.41 19.3798 74.5 19.3998 74.57 19.3998C74.61 19.3998 74.67 19.3998 74.7 19.3798C74.84 19.3798 74.95 19.3598 75.07 19.3998L75.46 19.3598C75.52 19.3598 75.56 19.3598 75.61 19.3798H75.78C75.95 19.3598 76.19 19.3998 76.36 19.3398H76.44C76.59 19.3798 76.81 19.3798 76.98 19.3598H77.39C77.47 19.3398 77.53 19.3198 77.6 19.3398C77.7 19.3398 77.77 19.3998 77.79 19.4998V19.8898C77.79 20.1198 77.77 20.3498 77.81 20.5898C77.83 20.6098 77.83 20.5898 77.81 20.6298C77.81 20.7298 77.79 20.8598 77.79 20.9798C77.75 20.9998 77.69 21.0198 77.67 21.0398C77.5 21.0198 77.36 20.9998 77.19 20.9198C77.17 20.8998 77.13 20.8798 77.11 20.8798C76.94 20.8198 76.76 20.7798 76.57 20.7398C76.49 20.7198 76.43 20.6998 76.36 20.6998C76.28 20.6798 76.15 20.6998 76.03 20.6998H75.45C75.45 20.6998 75.37 20.6998 75.33 20.7198C75.31 20.7198 75.25 20.7598 75.25 20.7798C75.25 20.8398 75.25 20.8998 75.23 20.9398C75.23 21.0798 75.23 21.1898 75.21 21.3098V21.7898C75.21 21.9598 75.21 22.1598 75.19 22.3498C75.17 22.4098 75.17 22.4898 75.19 22.5598V23.4898C75.23 23.6598 75.19 23.8398 75.21 24.0098C75.23 24.1698 75.21 24.2998 75.19 24.4398C75.19 24.5398 75.19 24.6298 75.21 24.7298V24.8098C75.19 25.0398 75.19 25.2598 75.17 25.4898C75.15 25.6198 75.15 25.7598 75.17 25.8998C75.19 26.1298 75.17 26.3398 75.17 26.5798C75.17 26.8498 75.15 27.1198 75.15 27.4098C75.15 27.6398 75.13 27.8698 75.15 28.1098L75.13 28.2998C75.11 28.5098 75.11 28.7298 75.11 28.9398C75.13 29.0598 75.13 29.1498 75.11 29.2698C75.11 29.6398 75.11 30.0098 75.15 30.3498C75.17 30.6598 75.17 30.9898 75.17 31.2998V31.5098C75.23 31.9398 75.21 32.3598 75.29 32.7898C75.31 32.8898 75.33 32.9798 75.33 33.0798C75.33 33.2898 75.37 33.5098 75.41 33.7198C75.47 34.0698 75.53 34.4398 75.64 34.7798C75.64 34.8198 75.62 34.8798 75.58 34.8998C75.58 34.8998 75.5667 34.9065 75.54 34.9198C75.54 34.9198 75.5 34.9398 75.48 34.9398C75.19 34.9398 74.76 34.9198 74.43 34.9198" fill="#FBF8F2"/>
<path d="M84.61 34.2695C84.63 34.4995 84.61 34.6995 84.55 34.9095C84.53 34.9495 84.43 35.0095 84.38 34.9895C84.34 34.9695 84.32 34.9695 84.3 34.9495C84.26 34.9095 84.22 34.8895 84.16 34.9095C83.97 34.9495 83.79 34.9495 83.62 34.9295C83.5 34.9295 83.39 34.9295 83.29 34.9095C83.17 34.9095 83.1 34.9295 83 34.9295H82.67C82.55 34.9295 82.48 34.9095 82.36 34.9295H82.07C81.39 34.9495 80.68 34.9495 79.94 34.9495H78.78C78.78 34.9495 78.7 34.9295 78.66 34.9295C78.64 34.9295 78.6 34.8695 78.6 34.8495V34.7695C78.66 34.5995 78.7 34.4395 78.74 34.2695C78.76 34.0995 78.8 33.9195 78.84 33.7495C78.88 33.5795 78.92 33.4195 78.92 33.2295C78.98 33.0395 79.02 32.8195 79 32.6095C79.04 32.4195 79.04 32.1995 79.06 32.0095C79.06 31.8895 79.08 31.7595 79.04 31.6395C79.02 31.4795 79.04 31.3095 79.04 31.1595C79.04 31.0595 79.04 30.9495 79.06 30.8495C79.06 30.7495 79.06 30.6595 79.04 30.5595C79.04 30.3895 79.04 30.2095 79.06 30.0395C79.06 29.8695 79.06 29.7095 79.08 29.5595C79.08 29.3695 79.06 29.1895 79.08 29.0195V26.9695C79.08 26.3495 79.08 25.7495 79.1 25.1295C79.1 24.7995 79.1 24.4695 79.12 24.1595C79.14 23.9095 79.14 23.6595 79.16 23.3995C79.16 22.6995 79.16 21.9695 79.14 21.2695C79.14 21.0395 79.1 20.8095 79.06 20.5695C79.04 20.4495 79.02 20.3395 79.02 20.2395C79 20.0295 78.94 19.8295 78.9 19.6395L78.84 19.3895C78.84 19.3295 78.92 19.2695 78.98 19.2695C79.02 19.2695 79.06 19.2695 79.1 19.2895C79.49 19.3495 79.89 19.3695 80.28 19.3495C80.36 19.3495 80.41 19.3295 80.47 19.3295C80.53 19.3295 80.57 19.3495 80.62 19.3495C80.7 19.3495 80.79 19.3695 80.87 19.3495H81.39C81.64 19.3695 81.89 19.3695 82.15 19.3495C82.21 19.3495 82.25 19.3495 82.32 19.3695C82.44 19.3695 82.53 19.3695 82.67 19.3495H82.75C83.04 19.3695 83.33 19.3295 83.62 19.3495C83.68 19.3495 83.74 19.3495 83.79 19.3295C83.98 19.3095 84.2 19.3095 84.37 19.2895C84.41 19.2895 84.43 19.2895 84.45 19.3095C84.49 19.3095 84.55 19.3495 84.55 19.4095C84.57 19.4695 84.59 19.5495 84.57 19.6195C84.55 19.8095 84.57 20.0295 84.59 20.2195V20.3695C84.63 20.5595 84.63 20.7595 84.63 20.9695C84.63 21.0895 84.55 21.1595 84.46 21.2195H84.42C84.42 21.2195 84.36 21.2195 84.34 21.1995C84.19 21.0795 83.99 21.0095 83.8 20.9695C83.74 20.9695 83.68 20.9495 83.63 20.9295C83.47 20.8695 83.34 20.8495 83.18 20.8495C83.06 20.8495 82.93 20.8295 82.79 20.8095C82.73 20.7895 82.66 20.7895 82.58 20.7895H82.23C82.06 20.8095 81.88 20.7895 81.71 20.8095C81.55 20.8295 81.28 20.8095 81.11 20.8095C80.96 20.8095 80.8 20.8295 80.65 20.8495C80.61 20.8495 80.57 20.9095 80.57 20.9695C80.55 21.1095 80.55 21.2395 80.55 21.3795V24.1295C80.49 24.3195 80.51 24.4995 80.51 24.6895C80.51 24.6495 80.51 24.8095 80.53 24.9395C80.49 25.0795 80.51 25.2095 80.49 25.3495V26.2195C80.49 26.2795 80.49 26.5695 80.47 26.9595L81.09 26.7495C81.24 26.6695 81.4 26.6095 81.55 26.5595C81.71 26.4995 81.67 26.5395 81.84 26.4195C82.03 26.3395 82.25 26.2595 82.48 26.1895C82.54 26.1695 82.58 26.1295 82.64 26.1095C83.28 25.7795 83.63 25.4695 83.69 25.7195C83.69 26.3395 83.71 27.1095 83.71 27.6595C83.73 27.9095 83.28 27.6595 82.76 27.7195C82.28 27.7795 81.41 27.9895 81.12 28.1095C81.04 28.1495 80.97 28.1695 80.89 28.2095C80.73 28.2495 80.6 28.2895 80.45 28.3495V29.6095C80.45 29.6895 80.43 29.7695 80.43 29.8195C80.43 30.0695 80.41 30.2995 80.43 30.5395C80.45 30.6395 80.45 30.7495 80.45 30.8495C80.45 31.1595 80.45 31.6595 80.43 31.8195V32.6495C80.45 32.9195 80.43 33.1895 80.43 33.4595C80.43 33.4795 80.43 33.5195 80.45 33.5395C80.45 33.5595 80.47 33.5795 80.49 33.5995H80.57C80.96 33.6195 81.34 33.6395 81.81 33.6195L82.06 33.5795C82.19 33.5795 82.31 33.5395 82.45 33.5395C82.64 33.5395 82.84 33.5195 82.99 33.4795C83.05 33.4595 83.11 33.4595 83.13 33.4595C83.42 33.4395 83.67 33.3795 83.9 33.3295L84.09 33.2695C84.19 33.2295 84.28 33.2095 84.36 33.1895C84.42 33.1895 84.46 33.2095 84.51 33.2095C84.55 33.2095 84.59 33.2695 84.61 33.3295C84.61 33.3695 84.63 33.4095 84.63 33.4495C84.63 33.5995 84.63 33.7395 84.61 33.8895C84.61 34.0295 84.61 34.1595 84.63 34.2995" fill="#FBF8F2"/>
<path d="M16.4 29.28L16.23 25.89C15.93 20 15.96 14.11 16.33 8.22L16.5 5.51V4.86C16.71 1.67 17.35 0 17.35 0H11.67C11.67 0 12.34 1.74 12.54 5.08L12.74 8.4C13.08 14.17 13.11 19.95 12.81 25.72L12.63 29.28C12.58 30.27 11.76 31.05 10.76 31.05H6.44997L4.04997 23.64C2.93997 19.62 2.93997 15.36 4.04997 11.34L6.44997 3.93L7.53997 0H1.97997C1.97997 0 2.03997 0.15 2.11997 0.44C2.52997 1.84 2.52997 3.33 2.13997 4.73L0.959974 10.3C-0.320026 15.01 -0.320026 19.99 0.969974 24.7L3.44997 35H25.58L28.06 24.7C29.36 19.99 29.36 15.01 28.06 10.3L26.87 4.68C26.46 3.2 26.48 1.64 26.96 0.18C27 0.06 27.02 0 27.02 0H21.69C22.31 2.61 22.92 5.15 23.23 6.32C23.26 6.41 23.28 6.5 23.3 6.57L24.97 11.34C26.08 15.36 26.08 19.62 24.97 23.64L22.57 31.05H18.26C17.26 31.05 16.44 30.27 16.39 29.28" fill="#FBF8F2"/>
</g>
<defs>
<clipPath id="clip0_651_4286">
<rect width="84.63" height="35" fill="white"/>
</clipPath>
</defs>
</svg>
