<svg width="84" height="155" viewBox="0 0 84 155" fill="none" xmlns="http://www.w3.org/2000/svg">
<g clip-path="url(#clip0_342_1515)">
<path d="M45.5835 62.4563L45.2209 55.2252C44.581 42.6614 44.645 30.0764 45.4342 17.534L45.7968 11.7534V10.3669C46.2661 3.54107 47.6313 -0.0211498 47.6313 -0.0211498H35.5155C35.5155 -0.0211498 36.9446 3.69038 37.3712 10.8148L37.7979 17.8966C38.5444 30.2044 38.5871 42.5335 37.9472 54.8412L37.5632 62.4349C37.4566 64.5467 35.7075 66.2105 33.5744 66.2105H24.3809L19.2615 50.4045C16.8938 41.8295 16.8938 32.7427 19.2615 24.1678L24.3809 8.36179L26.7059 -0.0424805H14.8461C14.8461 -0.0424805 14.9741 0.277479 15.1447 0.896067C16.0193 3.88236 16.0193 7.06062 15.1874 10.0469L12.6704 21.9281C9.89739 31.9748 9.89739 42.5975 12.6704 52.6442L17.9604 74.6147H65.1651L70.4551 52.6442C73.228 42.5975 73.228 31.9748 70.4551 21.9281L67.9167 9.94025C67.0422 6.78332 67.0848 3.45574 68.1087 0.341471C68.194 0.0855033 68.2367 -0.0424805 68.2367 -0.0424805H56.8674C58.1899 5.52481 59.4911 10.9428 60.1524 13.4385C60.2164 13.6305 60.259 13.8224 60.3017 13.9717L63.8639 24.1465C66.2316 32.7214 66.2316 41.8082 63.8639 50.3831L58.7445 66.1891H49.551C47.418 66.1891 45.6689 64.5253 45.5622 62.4136" fill="#61331E"/>
<path d="M21.0747 92.9375L20.968 93.2575C20.8614 93.8334 20.7547 94.2814 20.6054 94.9853C20.4561 95.3052 20.4347 95.6679 20.3921 96.0518L20.2854 96.5211C20.1859 96.9193 20.1148 97.3814 20.0721 97.9076C20.0721 97.9076 20.0295 98.0569 20.0295 98.1209C20.0295 98.2275 19.9868 98.2915 19.9655 98.3768C19.9015 99.0594 19.7522 99.678 19.6028 100.318C19.6028 100.467 19.6455 100.595 19.6455 100.745C19.4962 101.32 19.4322 101.875 19.3682 102.451C19.3682 102.622 19.3682 102.835 19.3042 103.048C19.2616 103.304 19.2402 103.582 19.2616 103.859C19.1976 104.328 19.2616 104.776 19.1549 105.203V105.352C19.1122 105.565 19.1122 105.736 19.0909 105.949C19.0909 106.205 19.0269 106.418 19.0269 106.632C19.0269 106.738 19.0909 106.888 19.0269 106.994C18.8563 107.272 18.8563 107.57 18.8136 107.848C18.771 107.997 18.771 108.125 18.7496 108.274C18.643 108.488 18.6856 108.701 18.6856 108.957L18.7283 109.213C18.6643 109.383 18.6216 109.575 18.6643 109.789C18.6216 109.959 18.5576 110.151 18.515 110.322C18.515 110.642 18.451 110.919 18.3657 111.239C18.323 111.495 18.3017 111.708 18.3017 111.922C18.3017 112.178 18.259 112.391 18.195 112.604C18.1524 112.924 18.1524 113.202 18.131 113.5C18.131 113.65 18.067 113.778 18.067 113.927V114.631C18.0244 114.801 18.0244 114.993 18.003 115.207C17.9391 115.569 17.9391 115.953 17.8324 116.337C17.7684 116.871 17.6831 117.361 17.6618 117.894C17.7044 118.321 17.6191 118.748 17.6618 119.196L17.6191 119.26C17.5551 119.43 17.5551 119.643 17.5551 119.857C17.4485 120.241 17.4911 121.414 17.2991 121.371C17.1498 121.414 17.0858 121.371 17.0218 121.414C16.8725 121.414 16.6592 121.414 16.5312 121.457H15.8487C15.742 121.499 15.5927 121.499 15.4647 121.499C15.3154 121.457 15.1021 121.457 14.9314 121.457H14.6115C14.6115 121.457 14.3982 121.499 14.2915 121.499C14.2275 121.457 14.2275 121.435 14.1422 121.393C14.0782 121.286 13.9929 121.179 13.9929 121.03C13.9289 120.71 13.9502 120.347 13.8862 120.049C13.8436 119.771 13.8436 119.409 13.7796 119.132C13.7369 119.068 13.7369 118.961 13.7369 118.876C13.7369 118.62 13.7369 118.342 13.6943 118.086C13.5876 117.489 13.4383 116.913 13.3743 116.316L13.161 114.823C13.1183 114.503 13.1183 114.226 13.0543 113.97C12.9904 113.692 12.9904 113.394 12.9477 113.074C12.8837 112.796 12.7984 112.476 12.7984 112.114L12.5851 111.047C12.5211 110.557 12.4358 110.087 12.4358 109.639C12.4358 109.533 12.4358 109.469 12.3931 109.383C12.3291 109.127 12.2864 108.914 12.2438 108.68C12.1798 108.36 12.2438 108.082 12.1798 107.784C12.1158 107.421 12.0731 107.08 12.0091 106.674C12.0091 106.568 12.0091 106.461 11.9665 106.355C11.8172 105.885 11.7532 105.437 11.6892 104.968C11.5825 104.541 11.5399 104.115 11.5185 103.688C11.4759 103.304 11.4119 102.942 11.3692 102.579C11.3266 102.366 11.3052 102.195 11.3052 102.046C11.1986 101.662 11.1346 101.256 11.0493 100.915C11.0066 100.446 10.9853 99.998 10.9 99.5074C10.8573 99.2301 10.836 98.9101 10.7506 98.6541L10.4947 98.5902L10.452 98.6328C10.388 98.8035 10.3027 98.9528 10.3454 99.1234C10.3027 99.5927 10.132 100.041 10.132 100.467C10.0254 100.958 9.87608 101.47 9.85475 101.96C9.70544 102.536 9.64145 103.07 9.59878 103.624C9.55612 104.093 9.53479 104.584 9.42814 105.032C9.36415 105.245 9.32149 105.501 9.27882 105.736C9.32149 106.056 9.23616 106.333 9.21483 106.632C9.17217 106.802 9.15084 106.994 9.15084 107.165C9.10818 107.378 9.10818 107.592 9.04419 107.805C8.89487 108.232 8.83088 108.701 8.76689 109.149C8.7029 109.938 8.51092 110.749 8.38294 111.495C8.34028 111.538 8.34028 111.559 8.34028 111.644C8.34028 111.858 8.27628 112.071 8.23362 112.284C8.19096 112.498 8.19096 112.754 8.16963 112.967C8.10564 113.351 8.02032 113.671 8.06298 113.991C8.06298 114.204 8.02032 114.417 7.99899 114.631C7.93499 114.908 7.84967 115.228 7.82834 115.527C7.78568 115.633 7.78568 115.783 7.78568 115.889C7.74302 116.359 7.67903 116.807 7.61504 117.233C7.57237 117.404 7.55104 117.553 7.55104 117.724C7.5937 118.108 7.55104 118.534 7.48705 118.897C7.42306 119.153 7.3804 119.366 7.3804 119.601C7.3804 119.814 7.33774 119.985 7.23108 120.241C7.27375 120.603 7.18842 120.945 7.16709 121.243C7.16709 121.35 7.1031 121.414 7.06044 121.414C6.99645 121.414 6.88979 121.457 6.78314 121.414C6.6125 121.371 6.24988 121.414 5.99391 121.414L5.56729 121.371C5.09802 121.414 5.03403 121.371 4.71407 121.371L4.07415 121.414C3.86084 121.414 3.81818 120.987 3.79685 120.518C3.75419 120.305 3.62621 118.065 3.58355 117.852C3.54088 117.382 3.47689 116.934 3.47689 116.465L3.37024 115.463C3.26359 115.036 3.30625 114.609 3.22093 114.183C3.17826 114.034 3.15693 113.906 3.15693 113.756C3.09294 113.394 3.00762 113.052 3.05028 112.69L2.94363 112.199C2.87964 111.943 2.83697 111.666 2.83697 111.41L2.73032 110.45C2.68766 110.087 2.62367 109.746 2.58101 109.383C2.51701 109.106 2.47435 108.808 2.43169 108.573C2.3677 108.36 2.32504 108.189 2.28238 107.976C2.32504 107.506 2.23972 107.08 2.17572 106.632C2.02641 106.056 1.96242 105.501 1.91976 104.925C1.91976 104.648 1.91976 104.349 1.85576 104.072C1.79177 103.646 1.79177 103.262 1.70645 102.835C1.64246 102.408 1.5998 101.982 1.5998 101.555C1.53581 101.235 1.45048 100.873 1.34383 100.574C1.34383 100.51 1.34383 100.403 1.30117 100.297C1.30117 100.126 1.30117 99.934 1.25851 99.7633C1.30117 99.486 1.25851 99.1661 1.19452 98.8674C1.15185 98.5901 1.13052 98.2915 1.0452 98.0142C1.00254 97.8009 0.981209 97.5876 0.981209 97.3743C0.874556 96.905 0.831895 96.4571 0.767903 95.9878C0.66125 95.3906 0.405282 94.5587 0.277298 93.9614C0.234637 93.7908 0.213306 93.5774 0.127984 93.3855C0.0639919 93.2362 0.0213307 93.1082 -0.0213306 92.9589C-0.0639919 92.8949 -0.0213306 92.7882 0.0213307 92.7882C0.170645 92.7456 0.277298 92.7242 0.383951 92.7242C0.703911 92.6816 0.959878 92.7669 1.66379 92.7242C1.72778 92.7242 1.8771 92.7669 1.98375 92.7242C2.34637 92.6816 2.87964 92.7242 3.22093 92.6816C3.26359 92.6816 3.32758 92.7242 3.32758 92.7456C3.37024 92.8949 3.37024 92.9162 3.37024 92.9589C3.37024 93.3215 3.32758 93.6628 3.32758 93.9827C3.37024 94.3027 3.28492 94.4733 3.32758 94.772L3.39157 96.0731C3.43423 96.2225 3.43423 96.3931 3.43423 96.5637L3.54088 97.3743C3.49822 97.8009 3.54088 98.2702 3.60488 98.7181C3.64754 98.7821 3.66887 98.8888 3.66887 98.9741C3.66887 99.2941 3.71153 99.5714 3.77552 99.8913C3.77552 100.169 3.83951 100.489 3.83951 100.787C3.83951 101.086 3.88217 101.384 3.88217 101.896C3.88217 101.96 3.92484 101.854 3.92484 101.896C3.92484 102.323 3.9675 102.643 4.03149 103.027C4.13814 103.56 4.20213 104.051 4.20213 104.563C4.20213 104.605 4.15947 104.669 4.20213 104.712C4.26613 104.925 4.2448 105.203 4.35145 105.416C4.39411 105.672 4.35145 105.907 4.50076 106.12C4.54342 106.376 4.56476 106.61 4.54342 106.866C4.60742 107.144 4.60742 107.4 4.71407 107.656C4.71407 107.912 4.77806 108.189 4.82072 108.445C4.82072 108.765 4.82072 109.042 4.92738 109.298V109.447C4.92738 109.917 5.03403 110.343 5.03403 110.791C5.07669 110.941 5.07669 111.111 5.09802 111.325C5.14068 111.495 5.16201 111.644 5.16201 111.858C5.20467 112.114 5.20467 112.391 5.226 112.647C5.26867 113.031 5.29 113.458 5.43931 113.82C5.48197 114.183 5.58862 114.609 5.58862 114.993L5.69528 115.1L5.80193 114.204C5.84459 113.927 5.86592 113.628 5.95125 113.287C5.99391 112.903 6.01524 112.476 6.10056 112.071C6.24987 111.474 6.31387 110.898 6.37786 110.365C6.37786 110.258 6.37786 110.194 6.42052 110.151C6.52717 109.341 6.63383 108.637 6.78314 107.89L6.84713 107.101C6.88979 106.845 6.95379 106.61 6.99645 106.355C7.03911 106.291 7.03911 106.141 7.06044 106.077C7.06044 105.715 7.1031 105.395 7.16709 105.053C7.27375 104.733 7.31641 104.413 7.31641 104.093C7.35907 103.667 7.42306 103.283 7.48705 102.878C7.55104 102.664 7.55104 102.387 7.63637 102.131C7.67903 102.024 7.63637 101.918 7.70036 101.982C7.74302 101.811 7.6577 101.448 7.70036 101.278C7.95633 100.531 8.08431 99.7207 8.12697 98.9741C8.16963 98.7181 8.16963 98.4408 8.23362 98.1849C8.29762 97.9716 8.34028 97.7583 8.34028 97.5876C8.40427 97.2037 8.44693 96.841 8.44693 96.4571C8.48959 96.3931 8.44693 96.2438 8.44693 96.1798C8.55358 95.2839 8.55358 95.0706 8.48959 94.1534C8.53225 93.7694 8.48959 93.4068 8.38294 93.0229C8.4256 92.9802 8.4256 92.8735 8.44693 92.8522C8.48959 92.7456 8.55358 92.7456 8.66024 92.7456C8.87354 92.7456 9.02286 92.8522 9.1935 92.7456C9.23616 92.7029 9.30016 92.7029 9.34282 92.7456C9.44947 92.7456 9.59878 92.7456 9.70544 92.7029C9.9614 92.6602 10.2387 92.6602 10.4947 92.7029L11.4119 92.7456C11.6892 92.7456 12.0518 92.7029 12.3718 92.7029C12.5211 92.7029 12.6491 92.7029 12.7344 92.9162C12.7344 92.9802 12.6277 93.1722 12.6704 93.2362C12.6704 93.3002 12.6064 93.4495 12.6064 93.5135C12.5637 93.9827 12.4998 94.516 12.5424 94.9426C12.5851 95.1986 12.6064 95.4119 12.6064 95.6892C12.6491 95.8385 12.6704 96.0091 12.6491 96.1798C12.6491 96.6704 12.7557 97.1823 12.8624 97.6303C12.9264 98.2062 13.0117 98.8461 13.1183 99.4007C13.1183 99.7207 13.289 99.9766 13.2677 100.254L13.3743 101.32C13.3743 101.32 13.417 101.576 13.4383 101.704C13.4383 101.875 13.481 102.088 13.481 102.28C13.545 102.494 13.545 102.664 13.5876 102.856C13.5876 103.07 13.6943 103.24 13.6943 103.454C13.7369 103.71 13.7369 103.944 13.7583 104.157C13.8009 104.52 13.8649 104.861 13.9076 105.267C13.9076 105.331 13.9716 105.48 14.0569 105.629C14.1635 105.992 14.1635 106.269 14.2062 106.653C14.2489 106.909 14.2489 107.144 14.3555 107.357C14.3982 107.848 14.4622 108.36 14.5262 108.893C14.5262 109.042 14.5688 109.17 14.5688 109.319C14.6115 109.426 14.6755 109.575 14.6755 109.682C14.6755 110.045 14.7395 110.365 14.7821 110.642L14.9954 111.559C15.0381 111.708 15.0381 111.772 15.0594 111.922C15.0594 112.028 15.1021 112.178 15.1234 112.306C15.2301 112.626 15.2301 113.052 15.3367 113.479L15.4434 114.076C15.4434 114.289 15.5074 114.759 15.6567 115.249C15.806 114.503 15.934 113.735 15.9766 113.33L16.0193 113.18C15.9766 112.924 16.0193 112.69 16.126 112.476C16.1899 112.306 16.2326 112.092 16.2326 111.879C16.2326 111.623 16.2966 111.346 16.2966 111.069C16.3606 110.685 16.4459 110.279 16.4459 109.853C16.4459 109.81 16.4459 109.789 16.4033 109.703C16.5099 109.277 16.5739 108.85 16.6166 108.424C16.6592 108.253 16.6806 108.061 16.6806 107.89C16.7445 107.293 16.7872 106.61 16.9579 105.971C17.0005 105.928 17.0005 105.907 17.0005 105.821C16.9365 105.651 17.0005 105.459 16.9579 105.288C17.0645 104.861 17.1285 104.435 17.1285 104.051C17.0858 103.56 17.1712 103.091 17.2991 102.664C17.2565 102.6 17.2565 102.451 17.2565 102.344C17.3205 101.982 17.3631 101.64 17.4058 101.278C17.4698 100.915 17.4485 100.531 17.5551 100.169C17.5978 100.105 17.5978 100.019 17.5978 99.9553C17.5978 99.5927 17.6404 99.2727 17.5978 98.9314C17.6404 98.7608 17.5978 98.5475 17.6618 98.3982C17.7684 97.9289 17.8111 97.5023 17.8324 97.097C17.8324 96.7344 17.7897 96.3931 17.8751 96.0305C17.9177 95.9238 17.9177 95.8172 17.9177 95.7105C17.9177 95.6039 17.8537 95.4545 17.8537 95.3479C17.9177 94.7506 17.9177 94.1107 17.9177 93.5135C17.8751 93.3002 17.8537 93.0869 17.7684 92.9162C17.7258 92.8522 17.8111 92.7669 17.8324 92.7456C17.8964 92.7029 17.9817 92.7029 18.0884 92.7029C18.195 92.7029 18.3657 92.7456 18.515 92.7669C18.6856 92.7669 19.0056 92.7029 19.1976 92.7242C19.5602 92.7669 19.8375 92.7669 20.0935 92.7669C20.3068 92.7242 20.5627 92.7242 20.84 92.7242C20.904 92.7669 20.9893 92.7669 21.0533 92.7669C21.096 92.8096 21.16 92.9162 21.16 92.9375" fill="#D6690F"/>
<path d="M34.6623 121.329C34.6623 121.329 34.449 121.371 34.385 121.371C33.9584 121.371 33.3611 121.329 32.9345 121.371C32.7852 121.414 32.6145 121.329 32.4652 121.329C32.2946 121.329 32.1452 121.329 31.9746 121.371H31.8253C31.8253 121.371 31.612 121.201 31.6546 121.094C31.6546 121.03 31.6546 120.987 31.6973 120.945C31.8466 120.689 31.8679 120.454 31.9106 120.155C31.9533 119.836 32.0599 119.58 32.0599 119.302L32.1666 118.513C32.1666 118.236 32.1666 117.937 32.2092 117.702V117.063C32.2732 116.593 32.3159 116.103 32.3159 115.655C32.3586 115.335 32.3586 115.015 32.3586 114.695C32.4012 114.375 32.3586 114.098 32.3586 113.778V112.178C32.3159 111.965 32.4225 111.794 32.4012 111.581C32.4012 111.367 32.3586 111.154 32.3586 110.941V109.874C32.4225 109.618 32.4225 108.36 32.3586 108.104C32.2946 107.89 32.5079 107.037 32.2092 107.144L31.6333 107.357C30.9294 107.634 30.6308 107.72 30.3321 107.826L28.775 108.424C28.6257 108.488 28.4977 108.53 28.3484 108.594C27.9218 108.701 27.5378 108.85 27.1752 109.021C27.1112 109.021 27.0686 109.064 27.0259 109.064C26.7699 109.17 26.45 109.277 26.2367 109.533C26.2367 109.746 26.2367 109.917 26.2793 110.173C26.2793 110.429 26.2367 110.642 26.2793 110.877C26.322 110.941 26.2793 111.026 26.2793 111.09C26.2367 111.581 26.2153 112.114 26.2367 112.647C26.2793 112.924 26.3007 113.18 26.2793 113.458C26.2793 113.522 26.2793 113.607 26.322 113.671C26.3646 114.14 26.3646 114.588 26.3646 115.079C26.3646 115.249 26.4073 115.441 26.4073 115.612C26.4713 116.081 26.514 116.529 26.514 116.999C26.514 117.148 26.514 117.319 26.5566 117.468C26.5566 117.617 26.5566 117.745 26.5993 117.894C26.6419 117.958 26.6633 118.065 26.6633 118.15C26.6206 118.534 26.6633 118.897 26.7273 119.217C26.7913 119.43 26.7913 119.644 26.8339 119.814C26.8339 119.985 26.8766 120.134 26.8979 120.305C26.9406 120.454 26.9406 120.625 26.9406 120.774L27.0472 121.03C27.0899 121.179 26.9406 121.307 26.8339 121.35C26.6846 121.393 26.578 121.393 26.4713 121.35C26.2153 121.286 25.9807 121.35 25.7247 121.35C25.3621 121.35 24.9782 121.393 24.6155 121.35C24.4662 121.35 24.3382 121.307 24.2316 121.393C24.1249 121.435 24.0609 121.435 23.9543 121.393C23.805 121.329 23.6983 121.35 23.5703 121.393C23.4637 121.435 23.3997 121.393 23.3144 121.35C23.2504 121.286 23.165 121.179 23.2077 121.094L23.3144 120.923C23.3144 120.923 23.4637 120.71 23.4637 120.603C23.4637 120.326 23.5277 120.006 23.5703 119.708C23.613 119.558 23.613 119.43 23.613 119.281C23.6557 119.004 23.6557 118.684 23.7196 118.385C23.7836 118.022 23.7623 117.681 23.7623 117.361C23.7623 117.297 23.7196 117.212 23.7623 117.148C23.805 116.871 23.7623 116.551 23.8263 116.252C23.869 115.825 23.8903 115.441 23.8903 115.015C23.8903 114.865 23.8903 114.695 23.933 114.546V114.396C23.8903 113.863 23.9969 113.33 23.9969 112.754C23.9969 112.157 24.0396 111.559 23.9969 110.919C23.9969 110.642 24.0396 110.386 23.9543 110.109C23.9969 109.959 23.9969 109.789 23.9969 109.639C23.9543 109.256 23.9969 108.829 23.9969 108.402C24.0396 108.082 23.9543 107.805 23.9969 107.506C23.9969 107.186 24.0396 106.909 24.0396 106.589V103.368C24.0823 103.006 24.0823 102.664 24.0396 102.302C23.9969 101.982 23.9969 101.619 24.0396 101.321C24.0823 100.958 24.0396 100.617 23.9969 100.297C23.9543 100.19 23.9543 100.126 23.9969 100.019V99.6354C24.0396 99.3155 23.9969 98.9528 23.9543 98.6116C23.8903 98.3556 23.9116 98.0356 23.8476 97.7583V97.5877C23.8903 97.2677 23.8476 96.9478 23.805 96.6278C23.7623 96.3078 23.741 96.0306 23.741 95.7319C23.7836 95.5826 23.741 95.4546 23.6983 95.3053L23.5917 94.6654C23.5277 94.4947 23.5277 94.1961 23.549 94.0681C23.485 93.7908 23.4423 93.5349 23.3997 93.2789L23.229 93.0656C23.229 93.0656 23.229 92.7883 23.3784 92.7456C23.549 92.703 23.741 92.6816 23.9116 92.703C24.3382 92.7456 24.7648 92.7456 25.1488 92.7456C25.6181 92.703 26.1087 92.703 26.5566 92.6816C26.6206 92.6816 26.7273 92.7456 26.7699 92.831C26.8766 92.9376 26.9192 93.0869 26.8766 93.2149C26.8339 93.5989 26.7699 94.0255 26.7699 94.5161C26.7699 94.6227 26.7273 94.7294 26.7059 94.7934C26.7059 94.9427 26.6633 95.0493 26.6419 95.156C26.5779 95.476 26.6846 95.7959 26.578 96.1159C26.514 96.3932 26.514 96.7131 26.4713 97.0118C26.4713 97.3317 26.4286 97.6517 26.4073 97.9716C26.3646 98.121 26.3646 98.2489 26.4073 98.4409C26.45 98.5049 26.45 98.5902 26.4073 98.6116C26.3433 98.8675 26.3433 99.1022 26.3433 99.4008V100.041C26.3007 100.787 26.2793 101.534 26.2793 102.302C26.2367 102.622 26.2793 102.942 26.2793 103.262C26.2793 103.432 26.2153 103.944 26.2367 104.115C26.194 104.755 26.2793 105.032 26.2367 105.075C26.2367 105.821 26.13 106.141 26.3433 106.675C26.3433 106.739 26.4926 106.824 26.5566 106.824C26.6633 106.781 26.7699 106.781 26.9192 106.76C27.4098 106.589 27.5165 106.589 28.0284 106.376C28.2844 106.312 28.5617 106.205 28.775 106.12C29.0523 105.971 29.3509 105.864 29.6282 105.757C29.9055 105.651 29.8415 105.715 30.1615 105.608C30.5241 105.459 30.9081 105.331 31.3347 105.181C31.4413 105.139 31.5053 105.075 31.612 105.032C31.676 104.989 31.8893 104.925 31.9959 104.861C32.2732 104.712 32.3799 104.499 32.3799 104.286C32.4225 104.03 32.4439 103.752 32.3799 103.496V103.326C32.4225 103.112 32.3372 102.899 32.3799 102.686C32.4225 102.515 32.3372 102.323 32.3799 102.152C32.3799 101.577 32.3159 101.043 32.3372 100.489C32.3372 100.318 32.3799 100.126 32.3372 99.9554C32.2946 99.6994 32.3372 99.4648 32.3372 99.1662V97.673C32.3372 97.3957 32.2732 97.0757 32.2946 96.7771V96.6278C32.1879 96.2439 32.1879 95.8812 32.1452 95.4973C32.1452 95.2413 32.1452 95.028 32.0813 94.7934V94.4734C32.0386 94.2174 32.0386 93.9401 31.9746 93.7268C31.8679 93.4495 31.804 93.1509 31.804 92.8736C31.804 92.8096 31.9746 92.703 32.0599 92.703C32.3159 92.7456 32.5932 92.703 32.8492 92.703H34.129C34.129 92.703 34.385 92.7456 34.5129 92.7456C34.7902 92.7456 35.0462 92.703 35.3235 92.7883C35.3875 92.7243 35.4302 92.9589 35.4302 93.0016L35.3235 93.5349C35.1102 94.0255 35.0462 94.5587 35.0035 95.0493C34.9396 95.476 34.8969 95.8599 34.8542 96.2865C34.7902 96.8624 34.7902 97.3957 34.7902 97.9503C34.8329 98.5262 34.7902 99.0808 34.7476 99.6141C34.7049 100.297 34.6836 100.958 34.6836 101.641C34.6836 102.216 34.6836 102.771 34.6409 103.368C34.5983 103.688 34.6409 104.051 34.5983 104.392V104.499C34.6623 104.669 34.5983 104.861 34.6409 105.032C34.5343 105.608 34.5769 106.163 34.5769 106.739V108.509C34.5343 108.829 34.5343 109.106 34.6196 109.426V109.49C34.5769 109.981 34.6836 110.45 34.6836 110.898C34.6836 111.282 34.6836 111.687 34.6409 112.071V112.668C34.6836 113.138 34.6409 113.564 34.6836 113.97V115.249C34.7263 115.612 34.7263 115.996 34.7263 116.359C34.7263 116.572 34.7689 116.743 34.7902 116.956C34.8329 117.127 34.8969 117.319 34.8329 117.489C34.8329 117.745 34.8329 118.022 34.8969 118.236C35.0036 118.62 35.0462 119.025 35.1102 119.366C35.1742 119.644 35.2169 119.9 35.2595 120.219C35.3235 120.497 35.4088 120.795 35.5155 121.073C35.5581 121.137 35.4728 121.243 35.3662 121.286C35.2595 121.329 35.1529 121.329 35.0462 121.393C34.9396 121.329 34.8329 121.286 34.7263 121.286" fill="#D6690F"/>
<path d="M38.0325 121.329C38.0325 121.329 37.8832 121.222 37.9259 121.179V120.966C38.0325 120.603 38.0752 120.262 38.1392 119.899C38.1818 119.75 38.2032 119.622 38.2032 119.473C38.2458 119.26 38.2458 119.046 38.3098 118.79C38.3738 118.577 38.3738 118.406 38.3738 118.15C38.4165 117.51 38.4378 116.87 38.5231 116.231C38.5658 116.124 38.5658 116.017 38.5658 115.911C38.6085 115.441 38.6725 114.993 38.6298 114.524C38.6298 114.204 38.6724 113.842 38.6724 113.522C38.6724 113.351 38.7151 113.159 38.6724 112.988C38.6724 112.562 38.6724 112.092 38.7151 111.644V111.069C38.7151 110.855 38.7151 110.642 38.7578 110.386C38.8004 109.917 38.7578 109.426 38.7578 108.935C38.7151 108.765 38.7151 108.552 38.7578 108.338C38.8004 108.018 38.7151 107.698 38.8004 107.378V107.165C38.7364 106.354 38.6938 105.459 38.7364 104.605C38.7791 104.029 38.7364 103.496 38.7791 102.942C38.7791 102.472 38.7364 102.024 38.7364 101.598C38.7364 101.448 38.6938 101.342 38.7364 101.278C38.7364 100.894 38.7364 100.489 38.6938 100.105V97.7369C38.6511 97.5236 38.6511 97.2676 38.6298 97.0543C38.6298 96.7344 38.5871 96.4144 38.5871 96.0945C38.5231 95.6038 38.4165 95.1772 38.4165 94.708C38.4165 94.644 38.4165 94.5586 38.3738 94.4947C38.3738 94.4307 38.3312 94.3453 38.3312 94.2814C38.2672 93.8547 38.1605 93.4281 38.0112 93.0442C38.0112 92.9802 38.0112 92.9375 38.0539 92.8949C38.0539 92.8309 38.1179 92.7455 38.2032 92.7455C38.4591 92.7455 38.6938 92.6815 38.9497 92.7029C39.227 92.7455 39.547 92.6602 39.8456 92.7455C40.0589 92.6816 40.3149 92.7029 40.5282 92.7455C40.6349 92.7455 40.6989 92.7455 40.8055 92.7029C40.9762 92.6389 41.1895 92.6389 41.4028 92.6602C41.5094 92.7029 41.5734 92.7242 41.6161 92.8095C41.6587 92.8522 41.6587 92.8735 41.6801 92.9589V93.0228C41.5734 93.3855 41.5734 93.7694 41.4668 94.1534C41.4241 94.26 41.4241 94.3667 41.4241 94.516C41.3814 94.6226 41.3814 94.772 41.3601 94.8999C41.3601 94.9639 41.3601 95.0493 41.3174 95.1132C41.2748 95.8172 41.1681 96.5637 41.1681 97.3103V97.4596C41.1041 97.9929 41.1255 98.5261 41.1681 99.0594C41.1681 99.2301 41.1681 99.422 41.1255 99.5927C41.1255 99.9126 41.1255 100.19 41.1681 100.446C41.2108 100.702 41.2108 100.979 41.1681 101.235C41.1681 101.619 41.1681 102.046 41.2108 102.472C41.2108 103.155 41.2108 103.816 41.1468 104.456C41.1468 104.563 41.1041 104.669 41.1041 104.733C41.1041 104.904 41.1468 105.096 41.1041 105.309C41.1041 105.459 41.1041 105.629 41.0615 105.779C41.0615 105.928 41.0615 106.056 41.1041 106.205C41.1468 106.696 41.1041 107.186 41.1041 107.72V107.997C41.1041 108.808 41.0615 109.618 41.0401 110.471V111.367C41.0401 111.858 40.9975 112.37 40.9762 112.818V113.18C41.0401 113.884 41.0401 114.631 41.0188 115.335C40.9762 115.612 41.0188 115.932 41.0188 116.231C41.0615 116.295 41.0615 116.38 41.0615 116.444C41.1255 116.764 41.1255 117.126 41.1681 117.468C41.2108 117.617 41.2108 117.788 41.2321 117.937C41.2321 117.98 41.2748 118.001 41.2748 118.086C41.2748 118.513 41.4241 118.982 41.4881 119.473L41.7014 120.753C41.7014 120.753 41.7441 120.902 41.7441 120.966C41.7441 121.115 41.5734 121.286 41.4241 121.286C41.1681 121.286 40.9335 121.329 40.6775 121.329C40.4002 121.286 40.0803 121.286 39.8243 121.286C39.4404 121.286 39.0351 121.329 38.6938 121.329H38.2032C38.2032 121.329 38.1392 121.329 38.0965 121.286" fill="#D6690F"/>
<path d="M47.9939 121.798C47.5033 121.734 46.9914 121.584 46.5008 121.52C46.1168 121.478 45.6049 121.307 45.2636 121.051C45.1143 120.902 44.7943 120.795 44.837 120.561L44.7943 119.707L44.837 118.683L44.8796 117.19C44.9436 116.87 45.4556 117.51 45.5835 117.617C45.7542 117.766 46.6714 118.427 46.7781 118.534C47.3113 118.918 48.9111 119.238 49.999 119.003C50.1056 119.003 50.1696 118.961 50.2763 118.961C50.3403 118.918 50.3829 118.897 50.4469 118.897C50.7029 118.833 50.8735 118.726 51.0868 118.534C51.1508 118.491 51.2362 118.47 51.3002 118.385C51.3641 118.342 51.4495 118.022 51.4708 117.958C51.5135 117.894 51.5348 117.809 51.5775 117.788C51.6414 117.638 51.7268 117.532 51.7268 117.361C51.8334 116.977 51.8334 116.55 51.8334 116.145V115.356C51.8334 115.185 51.7908 114.993 51.7694 114.823C51.6628 114.46 51.5561 114.119 51.3855 113.799C51.3428 113.735 51.3428 113.649 51.3215 113.628C51.2148 113.351 51.1508 113.095 51.0442 112.839C50.8949 112.626 50.8309 112.37 50.7242 112.156C50.7242 112.092 50.6816 112.05 50.6816 112.007C50.5109 111.552 50.3474 111.175 50.191 110.876C50.191 110.876 50.127 110.77 50.0843 110.706C50.0203 110.45 49.9137 110.215 49.7643 109.959C49.4871 109.49 49.2951 108.999 48.9751 108.573L48.8685 108.317C48.8685 108.317 48.8045 108.146 48.7618 108.061C48.4845 107.677 48.2925 107.208 48.0579 106.824C47.9939 106.653 47.8446 106.504 47.7806 106.333L47.5673 105.842C47.4606 105.672 47.354 105.48 47.2473 105.309C47.0767 105.032 46.9274 104.733 46.7781 104.456L46.4581 103.773C46.2448 103.389 46.0742 102.984 45.9248 102.6L45.7115 102.003C45.4556 101.427 45.2423 100.83 45.0716 100.19C44.965 99.6565 44.8583 99.1232 44.8583 98.5686C44.8583 98.3553 44.8156 98.0994 44.8156 97.8861C44.8156 97.3528 44.8156 97.1395 44.8583 96.9689C44.901 96.7129 44.901 96.4356 44.901 96.1583V95.8383C44.901 95.625 44.901 95.4544 44.965 95.2624L45.1783 94.6225C45.3276 94.0892 45.6475 93.7053 46.0315 93.3426C46.4581 92.9587 46.9487 92.7027 47.4606 92.4894C47.5033 92.4468 47.5673 92.4254 47.6313 92.4254C47.8873 92.3188 48.1219 92.2548 48.3779 92.2548C48.6978 92.1908 48.9751 92.1055 49.3377 92.1055H50.4469C50.5962 92.1055 50.8309 92.1695 50.9375 92.1695C51.1935 92.2121 51.4281 92.2761 51.6841 92.2761C51.7908 92.2761 51.8974 92.3188 51.9614 92.3188C52.0681 92.3614 52.8573 92.6814 53.2412 92.6814C53.9452 92.6814 54.3078 92.6174 54.3078 92.9374C54.3078 93.5133 54.5211 96.4782 54.2011 96.5636C53.8385 96.6702 53.6679 96.2863 53.4119 95.9663C53.0919 95.5397 52.6013 95.3691 52.132 95.1131C51.6414 94.8571 50.7882 94.6438 50.6176 94.6865C50.4469 94.7291 50.255 94.6438 50.0843 94.6438C49.871 94.5798 49.0604 94.7078 48.6338 94.8998C48.5272 94.9424 48.4632 94.9638 48.3779 95.0491C48.2712 95.1131 48.2072 95.1558 48.0579 95.1984C47.9512 95.2411 47.8019 95.3051 47.7379 95.4544L47.4606 95.9876C47.4606 95.9876 47.3966 96.0943 47.3966 96.1583C47.354 96.4783 47.2473 96.7555 47.226 97.0542C47.1833 97.6301 47.2687 98.5047 47.3966 99.0379C47.5033 99.3152 47.5673 99.6139 47.6739 99.8912C47.7806 100.254 47.9299 100.638 48.0579 101C48.2712 101.491 48.4845 102.003 48.7405 102.493C49.0604 103.24 49.4231 103.944 49.7643 104.648L50.3616 105.821C50.5323 106.205 50.7456 106.61 50.9375 106.994C51.1508 107.357 51.3215 107.741 51.5135 108.103C51.6201 108.317 51.7694 108.53 51.8974 108.743C52.1534 109.17 52.3667 109.597 52.58 110.023C52.6866 110.194 52.7506 110.407 52.8573 110.599C53.0279 110.876 53.2199 111.196 53.3906 111.559L53.9238 112.583C53.9238 112.583 53.9878 112.754 54.0305 112.839C54.1371 113.223 54.2011 113.735 54.3078 114.183C54.4571 114.78 54.4571 115.207 54.4784 115.463C54.4784 115.825 54.5424 116.38 54.4784 116.593C54.4784 116.913 54.4784 117.19 54.4144 117.489C54.3718 117.596 54.3718 117.702 54.3718 117.852C54.3718 118.235 54.2651 118.705 54.1158 119.089C54.0518 119.366 53.8598 119.579 53.6892 119.793C53.5825 119.899 53.4332 120.07 53.2626 120.219C53.1559 120.326 53.0493 120.497 52.9426 120.646C52.7933 120.817 52.58 120.902 52.4093 121.008C52.132 121.051 51.9187 121.222 51.6201 121.328C51.3641 121.478 51.0868 121.499 50.8309 121.712C50.6176 121.819 50.4469 121.819 50.2336 121.862C49.6577 122.011 48.8471 121.968 48.7191 121.968C48.4632 121.968 48.2285 121.926 47.9726 121.862" fill="#D6690F"/>
<path d="M69.8365 121.265C69.8365 121.265 69.6658 121.371 69.5805 121.371C69.1966 121.307 68.8339 121.307 68.4926 121.329C68.2154 121.371 67.9167 121.393 67.6821 121.329C67.6181 121.329 67.5328 121.286 67.4688 121.286C67.3195 121.286 66.9995 121.393 66.6582 121.35C66.5089 121.307 66.3383 121.307 66.1676 121.307C66.1249 121.307 66.1036 121.265 66.061 121.243C65.997 121.201 65.997 121.137 65.997 121.094C65.997 120.923 66.061 120.774 66.1036 120.604C66.1463 120.326 66.061 120.07 66.1036 119.857C66.0396 119.494 65.933 119.153 65.8903 118.79C65.741 118.044 65.613 117.34 65.3997 116.636C65.357 116.465 65.2931 116.273 65.2931 116.103C65.1437 115.527 64.8238 114.268 64.6531 113.692C64.6105 113.415 64.4825 113.116 64.3972 112.839C64.3332 112.477 64.2265 112.135 64.1839 111.73L64.0772 111.41C63.9706 111.047 63.8212 110.727 63.8212 110.343L63.5013 109.17L63.4586 109.128C63.4586 109.128 63.2453 108.381 63.1387 108.168C62.2214 108.488 61.2189 108.808 60.3443 109.021C60.3443 109.448 60.3017 110.024 60.3443 110.258C60.387 110.727 60.387 111.858 60.4083 112.306V112.626C60.3657 112.903 60.3443 113.202 60.3657 113.479C60.3657 113.522 60.4083 113.543 60.3657 113.586C60.323 114.012 60.4083 114.439 60.4723 114.823V115.633C60.4723 116.167 60.515 116.657 60.5363 117.148C60.5363 117.617 60.579 118.065 60.643 118.534C60.707 119.217 60.8989 119.878 61.0696 120.561C61.0696 120.625 61.0696 120.71 61.1122 120.774C61.1549 120.923 61.2189 120.987 61.1549 121.137C61.1122 121.179 61.0909 121.201 61.0056 121.243C60.9629 121.307 60.8563 121.286 60.6856 121.286C60.4297 121.222 60.195 121.286 59.9391 121.286C59.6831 121.243 59.6191 121.243 59.3631 121.243C58.9365 121.243 58.5099 121.286 58.0833 121.286H57.7207C57.7207 121.286 57.6567 121.243 57.614 121.243C57.55 121.201 57.4647 121.073 57.4647 121.03C57.5714 120.604 57.6354 120.22 57.678 119.814L57.7847 119.11C57.8487 118.641 57.8487 118.15 57.8487 117.703L57.8913 117.34C57.8913 117.084 57.934 116.849 57.934 116.593C57.8913 116.231 57.8913 115.911 57.8913 115.569C57.934 115.207 57.9553 114.823 57.934 114.482C57.934 113.884 57.9766 113.244 57.9766 112.647V110.834C57.9766 110.407 57.934 109.981 57.9766 109.554V109.448C57.9766 109.234 57.934 109.021 57.9766 108.808C57.9766 108.552 57.934 108.317 57.9127 108.018C57.9127 107.912 57.9553 107.848 57.9553 107.741H57.998C57.998 107.464 57.9553 107.165 57.9553 107.059C57.9127 106.952 57.9127 106.803 57.9553 106.675C57.998 106.504 57.998 106.312 57.998 106.141C57.9553 105.928 57.9553 105.715 57.9553 105.459V104.819C57.998 104.563 58.0193 104.328 58.0193 104.072C57.9766 103.752 58.0193 103.475 58.0193 103.155V99.0169C58.0193 98.5476 58.126 98.3343 58.062 97.8864L58.0193 97.6091V97.3958C58.0833 96.9052 58.062 96.4359 57.9766 95.9453C57.9766 95.7746 57.934 95.5827 57.9127 95.412C57.87 94.9854 57.7633 94.5588 57.6993 94.1109C57.6993 93.7482 57.55 93.4069 57.4434 93.0443C57.4007 92.9377 57.4434 92.831 57.5074 92.7244C57.55 92.6817 57.55 92.6604 57.614 92.6604C57.8913 92.6604 58.1473 92.6177 58.4246 92.703C58.7019 92.6604 59.1285 92.7457 59.4058 92.703C59.5053 92.703 59.5978 92.7173 59.6831 92.7457C59.6831 92.7457 59.8964 92.7457 60.0031 92.703C60.1524 92.5964 60.323 92.5964 60.4723 92.703C60.5363 92.7457 60.6216 92.767 60.6856 92.8524C60.7283 92.895 60.7496 92.9163 60.7283 92.959C60.771 93.1297 60.771 93.279 60.6856 93.4283C60.6216 93.5989 60.6216 93.7482 60.579 93.9189C60.5363 94.3455 60.515 94.8361 60.4297 95.3054C60.4297 95.5187 60.3657 95.732 60.323 95.9026C60.323 96.1159 60.2804 96.2866 60.3657 96.4786V96.6919C60.3017 97.0118 60.3017 97.3744 60.3017 97.7157C60.3443 97.8224 60.3017 97.929 60.3017 98.0357C60.259 98.3557 60.259 98.6756 60.259 98.9956C60.3017 99.2089 60.3017 99.5928 60.3017 99.8061C60.259 100.233 60.3443 100.659 60.3443 101.086V101.513C60.3443 101.513 60.2804 101.897 60.2804 102.11V103.006C60.387 103.368 60.3443 103.752 60.3443 104.136C60.3443 104.947 60.387 105.459 60.3443 105.949C60.3017 106.013 60.3443 106.099 60.3443 106.163V106.312C60.3443 106.312 60.4083 106.483 60.4937 106.483C60.8563 106.483 61.7095 106.205 62.3281 106.163C62.3708 106.12 62.5841 106.099 62.5841 106.056C62.6481 105.992 62.6907 106.013 62.7974 105.949C62.9467 105.885 63.1173 105.8 63.3733 105.779C63.4373 105.779 63.5226 105.779 63.5439 105.736C64.0345 105.459 64.2905 105.203 64.6318 105.16C64.7811 105.096 64.9091 105.011 64.9518 104.904C65.1651 104.648 65.2291 104.414 65.421 103.944C65.421 103.838 65.485 103.731 65.485 103.624C65.5277 102.814 65.5917 102.707 65.5917 102.387V101.705C65.5917 101.705 65.5917 101.342 65.549 101.022C65.549 100.659 65.5917 100.318 65.5917 100.489V100.275C65.549 100.126 65.5917 100.019 65.5917 99.9128L65.6343 99.3369C65.5917 99.1236 65.5917 98.7609 65.6343 98.5903C65.677 98.441 65.6343 98.4196 65.6343 98.2063C65.5917 98.0357 65.677 97.9504 65.677 97.8437V97.5664C65.677 97.3105 65.6343 97.0758 65.7197 96.8198V96.6065C65.7197 95.9666 65.6557 95.3694 65.613 94.7721C65.613 94.5588 65.613 94.3882 65.549 94.1962C65.5064 94.1535 65.5064 94.1322 65.5064 94.0895C65.4637 93.6629 65.357 93.3003 65.2504 92.959C65.2077 92.895 65.2931 92.703 65.3997 92.703C65.677 92.6604 65.997 92.639 66.2956 92.639H66.4449C66.6156 92.703 67.0848 92.5964 67.3621 92.6817C67.5328 92.7244 67.7247 92.6817 67.8954 92.6817H68.258C68.4073 92.7244 68.5353 92.8523 68.514 93.0017C68.45 93.279 68.4073 93.5776 68.4073 93.8549C68.4073 93.9189 68.4073 93.9615 68.3647 94.0042C68.258 94.1749 68.322 94.3668 68.3007 94.5375C68.258 94.7081 68.258 94.9001 68.258 95.1134C68.3007 95.1774 68.258 95.284 68.258 95.3694C68.2153 95.6893 68.194 95.9666 68.194 96.2653C68.2367 96.5852 68.1514 96.8625 68.194 97.1611L68.0874 98.2277C68.0874 99.1449 68.13 100.254 68.13 100.958V101.022L68.0874 101.875C68.0874 101.875 68.0234 102.046 68.0234 102.153C67.9807 102.366 67.9594 102.579 67.9594 102.792C67.8527 103.112 67.9167 104.2 67.8101 104.499L67.7034 104.755C67.4901 105.736 67.0635 106.099 66.7009 106.461L66.4449 106.717C66.2316 106.888 65.9543 107.037 65.6343 107.208C65.6983 107.677 65.997 108.978 65.9543 109.021C65.997 109.085 65.997 109.128 65.997 109.17C66.0396 109.277 66.061 109.341 66.061 109.426C66.061 109.896 66.2103 110.279 66.2743 110.706C66.3383 110.877 66.4236 111.026 66.4449 111.197C66.4876 111.367 66.5089 111.517 66.5942 111.666C66.6582 111.837 66.7009 112.029 66.7649 112.242C66.8715 112.775 67.0208 113.351 67.1915 113.863C67.6181 115.164 67.7887 115.804 67.9381 116.444C67.9807 116.764 68.1087 117.041 68.2153 117.34C68.322 117.617 68.4713 117.916 68.5353 118.236C68.642 118.556 68.7913 118.876 68.8979 119.217L69.0046 119.388C69.1539 119.601 69.2819 119.857 69.3672 120.092C69.4739 120.476 69.6872 120.774 69.9431 121.094C70.0071 121.158 69.9431 121.265 69.8791 121.307" fill="#D6690F"/>
<path d="M75.2331 121.009C75.2331 120.838 75.3398 120.369 75.4038 120.219C75.5104 119.729 75.6171 119.238 75.6811 118.705C75.7451 118.278 75.7451 117.809 75.8304 117.404C75.873 117.233 75.8304 117.041 75.8944 116.87C75.937 116.806 75.937 116.7 75.8944 116.593C75.8517 116.337 75.8517 116.124 75.8517 115.889V114.716C75.8944 114.609 75.8944 113.969 75.8944 113.863C75.8517 113.799 75.8517 113.692 75.8517 113.585C75.6811 113.521 75.6384 113.436 75.5318 113.372C75.4678 113.329 75.3611 113.308 75.2758 113.308C74.9558 113.265 74.6999 113.138 74.4226 112.988C74.2519 112.882 74.0386 112.775 73.8253 112.668C73.7187 112.604 73.612 112.519 73.5053 112.412L72.8014 111.666C72.6948 111.41 72.6521 111.132 72.5241 110.919C72.3535 110.557 72.2682 110.215 72.1402 109.853V109.682C72.1402 109.682 72.0975 109.469 72.0975 109.405C72.0335 109.191 72.0335 109.021 72.0335 108.807C71.9909 108.53 71.9909 108.231 71.9695 107.997C71.9056 107.677 71.9055 107.357 71.9055 107.037C71.9482 106.866 71.9482 106.717 71.9482 106.546C71.9909 106.12 71.9482 105.693 71.9909 105.245C71.9909 105.139 71.9909 104.989 71.9482 104.861C71.9482 104.179 71.9055 103.517 71.9482 102.877C71.9482 102.344 71.9909 101.811 71.9482 101.278C71.9482 101.128 71.9055 101.022 71.9055 100.894C71.9482 100.51 71.8629 100.104 71.9055 99.7205C71.9055 99.2939 71.8629 98.91 71.8416 98.4834C71.8416 98.2061 71.7989 97.9501 71.8416 97.6728C71.8416 97.3528 71.7776 97.0755 71.7776 96.7769C71.8416 96.1797 71.8202 95.5611 71.7136 95.0065C71.7136 94.6225 71.6496 94.2599 71.5643 93.8973C71.5216 93.7906 71.5216 93.684 71.5003 93.5773L71.4363 93.0867V92.9374C71.4363 92.9374 71.5429 92.7881 71.6069 92.7881H74.5079C74.5079 92.7881 74.6785 92.8521 74.7639 92.9374C74.8278 93.0014 74.8705 93.1507 74.8278 93.2574C74.7212 93.62 74.7212 93.9613 74.6572 94.3239L74.6145 94.6865C74.5719 94.8998 74.5505 95.1558 74.5079 95.3691L74.4012 96.393C74.4012 96.393 74.4439 96.5636 74.4439 96.6489C74.3372 96.9689 74.2946 97.2462 74.2946 97.5448V98.0354C74.2946 98.2487 74.2946 98.462 74.2519 98.6327C74.2093 98.846 74.2946 99.0593 74.2519 99.2726C74.2519 99.3366 74.2093 99.4219 74.2093 99.4432C74.2093 99.5926 74.1666 99.6992 74.1666 99.8059C74.2093 100.083 74.1666 100.339 74.1666 100.616C74.1666 100.723 74.1666 100.872 74.2093 100.979C74.2733 101.235 74.2733 101.47 74.2519 101.726C74.2093 101.939 74.2093 102.195 74.2093 102.408C74.2519 102.515 74.2519 102.579 74.2519 102.685V104.392C74.2946 104.648 74.2519 104.861 74.2519 105.096C74.3159 105.458 74.3159 105.8 74.3159 106.162C74.3159 106.482 74.3586 106.76 74.3586 107.08V107.336C74.3159 107.762 74.2946 108.231 74.4012 108.637C74.4439 108.743 74.4439 108.85 74.4652 108.957V109.277C74.5292 109.426 74.6145 109.49 74.6359 109.597C74.8065 109.959 75.0625 110.194 75.3398 110.45C75.5104 110.599 75.7237 110.706 75.937 110.812C76.0863 110.919 76.257 110.962 76.4276 110.962L77.3875 111.068C77.3875 111.068 77.5582 111.026 77.6648 111.026C78.0274 110.983 78.3474 110.919 78.6674 110.748C78.71 110.706 78.774 110.684 78.8167 110.684C79.2433 110.322 79.4993 109.938 79.7339 109.511C79.7339 109.469 79.7766 109.447 79.7766 109.405C79.8192 109.149 79.9259 108.978 79.9899 108.722C80.0965 108.231 80.2458 107.698 80.2458 107.165C80.2458 107.058 80.2458 106.909 80.3098 106.781C80.3525 106.632 80.3098 106.461 80.3098 106.312C80.3098 105.992 80.2672 105.714 80.2672 105.394C80.3098 105.139 80.3311 104.861 80.3311 104.584C80.2885 104.307 80.3311 104.051 80.3311 103.773C80.3311 103.56 80.3738 103.304 80.3738 103.091C80.3311 102.813 80.3312 102.515 80.3098 102.238C80.3525 102.067 80.3525 101.854 80.3525 101.64C80.3525 101.363 80.3525 101.107 80.3951 100.83C80.3951 100.51 80.3525 100.19 80.3951 99.8699C80.3951 99.6992 80.3525 99.5499 80.3311 99.3793V98.9953C80.3738 98.4194 80.3951 97.8861 80.2885 97.3315C80.2458 97.2249 80.2458 97.0755 80.2458 96.9476C80.2032 96.7982 80.2032 96.6703 80.2032 96.5209C80.2032 96.201 80.1605 95.8384 80.1605 95.4971C80.1605 95.2838 80.1178 95.0278 80.1178 94.8145C80.0539 94.4945 80.0538 94.1319 80.0538 93.7906C80.0538 93.6413 79.9045 93.4067 79.8405 93.2574C79.7766 93.1507 79.7339 92.8734 79.9472 92.8734H80.0965C80.3525 92.8734 80.5871 92.9161 80.8004 92.8307H80.9071C81.227 92.8734 81.4403 92.8734 81.7603 92.8734H82.9975C82.9975 92.8734 83.1468 92.9374 83.1468 93.0227C83.1895 93.3 83.1041 93.6626 82.9975 93.9399C82.9548 94.0039 82.9335 94.1106 82.9548 94.1959C82.9548 94.4732 82.9122 94.7718 82.8908 95.0065C82.8268 95.3264 82.7842 95.6464 82.8268 95.9664C82.8268 96.2437 82.7628 96.5423 82.7842 96.7769V97.3528C82.7842 97.5661 82.7202 97.7368 82.7415 97.9501C82.7842 98.2061 82.6989 98.4194 82.7415 98.6327C82.7842 98.846 82.7842 99.0593 82.7842 99.2726C82.7415 99.6352 82.7842 99.9765 82.7415 100.36C82.6989 100.424 82.7415 100.531 82.7415 100.638V101.107C82.6989 101.32 82.6775 101.534 82.6988 101.704C82.6988 101.768 82.6988 101.854 82.6562 101.918V102.195C82.6988 102.558 82.7202 102.899 82.6562 103.304V104.584C82.6135 105.053 82.5922 105.501 82.6135 105.97C82.6135 106.141 82.5495 106.29 82.5069 106.44C82.5495 106.76 82.5495 107.08 82.5495 107.4C82.5069 107.72 82.4855 107.997 82.4855 108.295C82.4855 108.765 82.4216 109.213 82.3149 109.682C82.2509 110.109 82.1016 110.578 81.8883 110.962C81.8456 111.068 81.7816 111.175 81.739 111.282C81.5897 111.538 81.419 111.751 81.2057 111.964L80.8218 112.348C80.6724 112.498 80.5018 112.626 80.2885 112.775C80.0325 112.946 79.7552 113.095 79.4779 113.244L79.3286 113.287C79.158 113.351 78.9447 113.436 78.7314 113.457L78.4754 113.564C78.4754 113.564 78.3261 113.671 78.4754 113.777C78.4754 113.82 78.4327 113.841 78.4327 113.884C78.4754 114.481 78.4327 115.057 78.4327 115.612C78.4327 115.719 78.3901 115.825 78.4327 115.974C78.4754 116.55 78.4327 117.19 78.4754 117.788C78.4754 118.044 78.4754 118.278 78.5394 118.577C78.5394 118.641 78.582 118.747 78.582 118.854C78.5394 119.11 78.6247 119.387 78.646 119.601C78.71 119.985 78.8593 120.411 78.902 120.838C78.902 120.881 79.0087 121.115 79.0087 121.158C79.0513 121.264 79.0086 121.52 78.7953 121.52C78.5394 121.52 78.2621 121.563 78.0061 121.52C77.6435 121.563 77.3022 121.52 76.8756 121.52H76.5983C76.3423 121.563 75.7024 121.563 75.5104 121.563C75.2545 121.563 75.1905 121.286 75.2331 121.2" fill="#D6690F"/>
<path d="M0.191986 154.285C0.191986 154.285 0.0640022 154.178 0.0853328 154.114C0.0853328 154.007 0.255978 153.303 0.255978 153.261C0.298639 152.984 0.362631 152.749 0.362631 152.493C0.362631 152.429 0.362631 152.322 0.405292 152.258C0.511945 151.981 0.533276 151.746 0.511945 151.469C0.511945 151.298 0.511945 151.17 0.554607 151C0.618599 150.893 0.618599 150.722 0.618599 150.594C0.66126 150.424 0.618599 150.253 0.66126 150.061C0.66126 149.933 0.725252 149.784 0.725252 149.613C0.767913 149.507 0.767913 149.421 0.767913 149.315C0.810574 148.845 0.810574 148.376 0.810574 147.928C0.810574 147.587 0.767913 147.224 0.767913 146.883V146.35C0.810574 145.902 0.810574 145.496 0.810574 145.091C0.767913 144.985 0.810574 144.921 0.810574 144.814C0.853235 144.302 0.810574 143.769 0.810574 143.257C0.853235 142.958 0.810574 142.681 0.874566 142.382C0.874566 142.276 0.874566 142.169 0.831905 142.105C0.831905 141.87 0.789244 141.657 0.831905 141.422V141.188C0.789244 140.548 0.831905 139.908 0.789244 139.289C0.789244 139.161 0.746582 139.012 0.789244 138.884C0.831905 138.265 0.746582 137.689 0.746582 137.092V135.578C0.746582 135.45 0.746582 135.279 0.703921 135.13V134.597C0.746582 134.426 0.703921 134.234 0.639929 134.021C0.597268 133.914 0.597268 133.786 0.597268 133.658C0.639929 133.487 0.639929 133.359 0.639929 133.146V132.037C0.639929 131.504 0.639929 130.928 0.597268 130.352V130.053C0.490615 129.712 0.490615 129.371 0.469284 129.115C0.405292 128.539 0.3413 128.005 0.234647 127.429L0.0213409 127.216C0.0213409 127.216 -0.0213203 127.152 0.0213409 127.109C0.0640022 127.067 0.0853328 127.045 0.127994 127.045C0.191986 127.003 0.298639 127.003 0.362631 127.003C0.490615 127.003 0.639929 126.96 0.767913 126.939C0.874566 126.875 0.959889 126.896 1.06654 126.939C1.1732 126.981 1.27985 127.003 1.36517 127.003H1.83444C2.13307 126.96 2.45303 126.96 2.75166 126.96C3.28493 127.003 3.79686 127.024 4.35146 127.024H4.56477C4.77807 127.024 4.92739 127.024 5.14069 127.067C5.31134 127.109 5.48198 127.109 5.65263 127.131C5.78061 127.173 5.48198 127.131 6.18589 127.067C6.22855 127.067 6.24989 127.067 6.29255 127.024C6.50585 127.024 6.69783 127.088 6.91113 127.067H7.08178C7.08178 127.067 7.20976 127.131 7.29509 127.195C7.33775 127.195 7.40174 127.195 7.46573 127.237C7.80702 127.28 8.14831 127.344 8.4896 127.515C8.59625 127.557 8.70291 127.579 8.7669 127.579C9.00154 127.792 9.21484 128.027 9.38549 128.219C9.49214 128.325 9.59879 128.453 9.62013 128.581C9.72678 128.859 9.83343 129.093 9.89742 129.371C9.94008 129.477 9.94008 129.605 9.96142 129.712C10.0894 130.053 10.0894 130.394 10.1747 130.736C10.2174 130.906 10.2174 131.077 10.2174 131.248C10.26 131.461 10.26 131.61 10.2814 131.781C10.324 131.952 10.3454 132.144 10.3454 132.357V133.573C10.3454 134.042 10.3027 134.511 10.3027 134.831C10.3027 135.151 10.26 135.45 10.3454 135.748C10.388 135.962 10.3454 136.196 10.3454 136.388C10.3454 136.666 10.3454 136.9 10.388 137.178C10.388 137.242 10.4307 137.306 10.388 137.37C10.3454 137.903 10.3454 138.479 10.3454 139.055C10.3027 139.289 10.2814 139.524 10.2814 139.759C10.2814 140.057 10.2814 140.377 10.3454 140.676C10.2174 141.124 10.1321 141.529 10.1107 141.934C10.0681 142.062 10.0681 142.233 9.98275 142.404C9.94008 142.468 9.94008 142.532 9.94008 142.638C9.89742 142.915 9.8121 143.15 9.64146 143.385C9.5348 143.513 9.42815 143.683 9.30017 143.833C9.2575 143.939 9.19351 144.003 9.17218 144.046L8.72424 144.515C8.4896 144.643 8.27629 144.814 8.08432 144.963C7.80702 145.198 7.55105 145.368 7.23109 145.496C7.1671 145.56 7.06045 145.603 6.9538 145.624C6.59118 145.731 6.20722 145.795 5.80194 145.902C5.6313 145.944 5.46065 145.944 5.29001 145.944C4.99138 145.944 4.60743 145.944 4.26614 145.987C4.05283 145.944 3.81819 145.987 3.56223 145.987C3.43424 145.987 3.2636 145.987 3.09295 146.03C3.02896 146.03 2.92231 146.094 2.92231 146.2C2.87965 146.563 2.87965 146.734 2.87965 146.947C2.87965 148.035 2.87965 149.08 2.92231 150.168V150.381C3.02896 151.192 3.09295 152.045 3.22094 152.877C3.2636 153.048 3.28493 153.239 3.28493 153.453C3.32759 153.687 3.39158 153.922 3.51956 154.135C3.56223 154.178 3.56223 154.199 3.56223 154.242C3.56223 154.306 3.51956 154.349 3.49823 154.37C3.45557 154.413 3.39158 154.434 3.32759 154.434H2.9863C2.75166 154.434 2.47436 154.391 2.19707 154.434H1.21586C1.21586 154.434 1.04521 154.391 0.938558 154.434C0.703921 154.498 0.469284 154.434 0.234647 154.37M4.7994 143.598C5.01271 143.555 5.20468 143.491 5.41799 143.385C5.6313 143.278 5.82327 143.257 6.10057 143.15C6.22855 143.107 6.37787 143.086 6.46319 143.022L6.86847 142.787C7.03912 142.66 7.20976 142.51 7.27376 142.276C7.33775 142.148 7.4444 141.977 7.50839 141.764C7.63638 141.529 7.7217 141.252 7.7217 140.953C7.76436 140.313 7.7217 139.673 7.7217 138.991C7.7217 138.628 7.76436 138.244 7.78569 137.881C7.84968 137.647 7.84968 137.37 7.84968 137.071C7.80702 136.666 7.89234 136.26 7.84968 135.855C7.91367 135.556 7.89234 135.279 7.89234 134.98C7.89234 134.81 7.84968 134.618 7.89234 134.405C7.93501 134.341 7.89234 134.277 7.89234 134.191C7.84968 133.914 7.89234 133.615 7.76436 133.402V133.274C7.80702 132.911 7.76436 132.527 7.7217 132.165C7.7217 131.824 7.65771 131.482 7.59371 131.12C7.55105 131.077 7.55105 131.013 7.52972 130.949C7.46573 130.736 7.46573 130.586 7.46573 130.373C7.46573 130.309 7.42307 130.245 7.40174 130.181C7.35908 130.074 7.29509 129.946 7.18843 129.882L6.97513 129.669C6.78315 129.562 6.63384 129.499 6.46319 129.435C6.24989 129.328 5.95126 129.264 5.75928 129.264C5.69529 129.264 5.58864 129.264 5.52464 129.221C5.31134 129.157 5.11936 129.221 4.90606 129.221C4.54343 129.264 4.15948 129.221 3.79686 129.264H3.11428C3.11428 129.264 2.90098 129.371 2.90098 129.477V134.831C2.94364 135.194 2.94364 135.535 2.90098 135.919C2.90098 136.324 2.90098 136.73 2.94364 137.114C2.94364 137.455 2.94364 137.796 2.90098 138.052V138.735C2.90098 138.948 2.94364 139.183 2.94364 139.375C2.94364 139.609 2.90098 139.844 2.90098 140.078V142.681C2.90098 142.681 2.90098 142.809 2.94364 142.894C2.9863 143.065 2.94364 143.235 2.90098 143.406V143.534C2.90098 143.534 3.00763 143.705 3.07162 143.705C3.1996 143.705 3.28493 143.747 3.41291 143.747C3.86085 143.705 4.33013 143.641 4.7994 143.641" fill="#61331E"/>
<path d="M22.6745 153.943C22.6745 153.943 22.6318 154.007 22.6105 154.05C22.3332 154.157 22.0772 154.221 21.7572 154.221C21.4799 154.178 21.1813 154.221 20.904 154.221C20.5414 154.178 20.2854 154.263 20.0935 154.327C19.8802 154.285 19.7308 154.221 19.5175 154.199C19.4535 154.135 19.4109 154.071 19.4535 153.965C19.5602 153.559 19.6242 153.154 19.6668 152.749C19.7095 152.535 19.7095 152.386 19.6029 152.237C19.5602 152.194 19.5602 152.13 19.6029 152.109C19.7095 151.938 19.6668 151.704 19.7308 151.533C19.7735 151.469 19.7735 151.405 19.7735 151.32C19.7735 151.085 19.8375 150.808 19.8801 150.53V150.36C19.9228 150.146 19.8375 149.997 19.8801 149.826C19.9228 149.698 19.8801 149.528 19.8801 149.378C19.8375 149.272 19.9228 147.139 19.9228 146.904V146.861C18.8776 147.096 16.4459 148.013 15.934 148.205C15.806 148.269 15.6567 148.312 15.5287 148.376L14.8461 148.589V149.57C14.8461 149.805 14.8461 150.082 14.8888 150.36C14.9314 150.53 14.9314 150.701 14.9314 150.872C14.9741 151.49 15.0381 152.066 15.1021 152.642C15.1021 152.749 15.1448 152.813 15.1661 152.919C15.2727 153.389 15.3794 153.837 15.4647 154.114C15.4647 154.221 15.3581 154.349 15.2727 154.327C15.1448 154.285 14.9954 154.285 14.8675 154.37H14.6968C14.4622 154.413 14.0782 154.37 13.8436 154.413C13.8009 154.413 13.7369 154.455 13.6729 154.413C13.481 154.37 13.2677 154.37 13.0543 154.413C12.7557 154.455 12.4358 154.413 12.1371 154.413C12.1371 154.413 12.0945 154.37 12.0945 154.349C12.0305 154.306 11.9878 154.242 12.0305 154.178C12.0305 154.071 12.0731 153.986 12.0945 153.879C12.1371 153.709 12.1585 153.538 12.1585 153.367C12.1158 153.197 12.1585 153.005 12.2225 152.855C12.2651 152.791 12.2651 152.727 12.2651 152.642C12.3078 152.514 12.3078 152.343 12.3078 152.173C12.3504 152.066 12.3078 151.96 12.3504 151.874C12.4144 151.085 12.4144 150.274 12.4571 149.506C12.4571 149.293 12.5211 149.059 12.4998 148.867C12.4998 148.824 12.4998 148.76 12.5424 148.739C12.6064 148.568 12.6064 148.376 12.6064 148.163C12.5637 147.651 12.6491 147.117 12.6491 146.606V146.414C12.7131 146.136 12.7131 145.838 12.7131 145.56C12.7131 144.536 12.7131 143.534 12.6704 142.553C12.6277 142.211 12.6064 141.913 12.6064 141.571C12.6064 141.465 12.5637 141.337 12.6064 141.23C12.6704 140.996 12.6491 140.718 12.6491 140.441C12.6064 140.206 12.6064 139.737 12.6491 139.502C12.6917 139.289 12.6917 139.054 12.6491 138.862V138.329C12.7131 137.881 12.7131 137.412 12.6917 136.985C12.6491 136.879 12.6917 136.815 12.6917 136.708C12.7344 136.303 12.7557 135.919 12.6917 135.514V135.3C12.6917 134.895 12.7344 134.49 12.7344 134.084C12.7344 133.871 12.7344 133.679 12.6917 133.466C12.6491 133.338 12.6491 133.231 12.6917 133.103C12.7344 132.762 12.7344 132.399 12.6917 132.058V131.93C12.7344 131.482 12.6277 131.077 12.6277 130.65C12.6704 130.544 12.6917 130.437 12.6704 130.352C12.5637 130.053 12.6277 129.712 12.7131 129.413C12.7557 129.349 12.7557 129.285 12.777 129.2C12.9477 128.922 13.0757 128.624 13.289 128.346C13.5663 128.005 13.8649 127.707 14.2489 127.429C14.3129 127.387 14.3768 127.365 14.4195 127.323L14.6541 127.216C14.8248 127.109 14.9954 127.003 15.1874 126.939C15.4647 126.832 15.7633 126.725 16.062 126.661C16.126 126.619 16.2326 126.619 16.2966 126.619L16.9365 126.512C17.4058 126.448 17.5551 126.469 18.0244 126.512C18.259 126.555 18.4937 126.619 18.7283 126.619C18.7923 126.619 18.8563 126.661 18.8989 126.683C19.1122 126.747 19.3042 126.789 19.4749 126.747C19.5389 126.747 19.5815 126.789 19.6029 126.789C20.0081 126.917 20.3494 127.152 20.712 127.365C20.9254 127.493 21.0533 127.664 21.224 127.835C21.3306 128.005 21.4586 128.133 21.5653 128.304C21.6933 128.474 21.8426 128.666 21.9066 128.837C21.9492 129.008 22.0132 129.178 22.0772 129.349L22.2052 129.541C22.2478 129.712 22.2052 129.818 22.2479 129.904C22.2905 130.181 22.2052 130.309 22.2479 130.544C22.2905 130.778 22.2905 131.013 22.3118 131.247C22.3758 131.866 22.3758 132.463 22.3758 133.082V135.898C22.3758 136.303 22.4185 136.687 22.4185 137.092C22.4185 137.327 22.4185 137.561 22.3758 137.796C22.3332 138.095 22.3332 138.415 22.3758 138.713C22.4185 139.225 22.3758 139.972 22.3758 140.484V142.574C22.3758 143.214 22.3332 143.897 22.3758 144.536C22.4185 144.814 22.3758 145.112 22.3758 145.39C22.3332 145.603 22.3332 145.795 22.3758 145.966C22.3758 146.243 22.3758 146.499 22.3332 146.776C22.2905 146.883 22.3332 146.989 22.3332 147.075C22.3332 147.139 22.3758 147.203 22.3332 147.288C22.2265 147.651 22.2692 148.035 22.3332 148.397C22.3332 148.461 22.3758 148.568 22.3332 148.632C22.2905 148.845 22.2905 149.037 22.3332 149.251V149.357C22.2905 150.061 22.3332 150.786 22.3332 151.448C22.3758 151.746 22.3758 152.024 22.4398 152.301C22.4825 152.429 22.4825 152.578 22.5038 152.706C22.5465 153.069 22.6105 153.41 22.6958 153.794C22.6958 153.858 22.6958 153.922 22.7385 153.986M19.6882 144.408C19.6882 144.408 19.8588 144.302 19.9655 144.28C19.9228 144.216 19.9228 144.11 19.9228 144.046C19.9228 143.875 19.9228 143.747 19.9655 143.577L20.0081 140.996V138.969C19.9655 138.329 19.9655 138.052 19.9655 137.775C20.0081 137.412 19.9655 137.028 19.9655 136.665C19.9655 136.367 19.9228 136.047 19.9655 135.748C20.0081 135.535 20.0081 135.3 19.9228 135.108C19.8802 135.044 19.9228 134.938 19.9228 134.831C19.9655 134.49 19.9655 134.127 19.8801 133.743C19.8375 133.466 19.8375 133.21 19.8801 132.933V131.951C19.8375 131.717 19.8802 131.482 19.8162 131.247C19.7522 130.842 19.7095 130.437 19.5815 130.053C19.4749 129.882 19.3895 129.754 19.2402 129.605C19.0056 129.434 18.6643 129.093 18.387 128.922C18.0884 128.858 17.8751 128.794 17.6404 128.752C17.5338 128.709 17.4271 128.709 17.3418 128.709C17.1498 128.666 17.2138 128.709 16.8939 128.709C16.8299 128.709 16.7659 128.709 16.6806 128.752C16.4673 128.816 16.2113 128.88 15.9766 128.986C15.614 129.2 15.3367 129.434 15.1661 129.797C15.0381 130.138 14.8248 130.437 14.9314 130.821V132.25C14.8675 132.463 14.8888 132.655 14.9314 132.869C14.9741 133.231 14.9954 133.615 14.9741 133.978V138.009C14.9741 138.372 14.9314 138.82 14.9314 139.204C14.9314 139.609 14.9741 140.057 14.9314 140.484L14.8888 141.102C14.8461 141.38 14.8888 141.721 14.8888 141.977C14.9314 142.766 14.9314 143.47 14.8461 144.216V146.286L15.8913 145.923C16.1686 145.795 16.4246 145.688 16.7019 145.582C16.9792 145.475 16.9152 145.539 17.2138 145.347C17.5551 145.219 17.9177 145.07 18.323 144.942L19.6455 144.43L19.6882 144.408Z" fill="#61331E"/>
<path d="M33.1051 154.242C33.1051 154.242 32.9771 154.37 32.9345 154.349H31.164C30.9294 154.285 30.4815 154.349 30.2255 154.306H29.3723C29.3723 154.306 29.095 154.306 28.967 154.263H28.3484C27.4312 154.221 26.3433 154.221 25.4474 154.263C25.3408 154.306 25.2128 154.263 25.1061 154.263C25.0421 154.263 24.9782 154.135 24.9995 154.05L25.2981 153.197C25.3621 153.026 25.4048 152.898 25.3621 152.727C25.3621 152.45 25.4261 152.216 25.4901 151.938C25.5541 151.661 25.5541 151.405 25.5967 151.085C25.5967 150.786 25.5967 150.466 25.7034 150.146C25.7461 150.018 25.7034 149.848 25.7461 149.699C25.7461 149.293 25.7461 148.845 25.7887 148.44V148.163C25.7461 147.864 25.7461 147.523 25.7461 147.181C25.7461 146.499 25.7887 145.816 25.7887 145.155C25.7461 144.814 25.7887 144.472 25.7887 144.11V142.894C25.7887 141.977 25.7461 141.124 25.7887 140.292V138.735C25.8314 138.372 25.7887 137.988 25.8314 137.625C25.874 137.455 25.874 137.263 25.874 137.092C25.8314 136.282 25.874 135.471 25.9167 134.682C25.874 134.234 25.8527 133.807 25.8527 133.402C25.8954 132.783 25.8954 132.207 25.8954 131.631V131.013C25.9594 130.672 25.938 130.33 25.938 129.968C25.8954 129.797 25.8954 129.626 25.8954 129.456C25.8527 129.114 25.8527 128.752 25.7674 128.411C25.7674 128.347 25.7247 128.283 25.7247 128.197C25.7247 127.899 25.6181 127.621 25.4901 127.344C25.4474 127.28 25.5327 127.109 25.5541 127.067C25.7887 126.96 26.1727 126.853 26.4286 126.939C27.1325 126.981 27.8791 126.939 28.6044 126.939H28.7323C28.7323 126.939 28.967 127.109 28.9456 127.216C28.839 127.493 28.839 127.749 28.7323 128.027C28.6257 128.73 28.455 129.456 28.3697 130.16C28.3697 130.288 28.3271 130.458 28.3271 130.608L28.2204 132.378V132.655C28.2204 133.125 28.2204 133.573 28.1777 134.084C28.1777 134.532 28.1351 134.959 28.1351 135.407C28.1351 135.94 28.0924 136.495 28.1351 137.028C28.1777 137.433 28.1777 137.881 28.1351 138.287C28.0924 138.521 28.0924 138.799 28.0924 139.076C28.1351 139.481 28.1351 139.865 28.0924 140.27C28.0498 140.569 28.0498 140.889 28.0924 141.188C28.0924 141.465 28.0924 141.7 28.0498 141.977C28.0071 142.19 28.0071 142.318 28.0498 142.446C28.1138 142.681 28.1138 142.894 28.0924 143.129C28.0284 143.641 28.0498 144.174 28.0498 144.686C28.0924 144.856 28.0924 145.027 28.0498 145.219V147.48C28.0071 147.821 28.0071 148.163 28.0924 148.461C28.1564 148.739 28.1564 148.995 28.1351 149.251C28.1351 149.72 28.1351 150.189 28.1777 150.68C28.1777 150.808 28.2204 150.957 28.2204 151.085V152.109C28.2204 152.109 28.455 152.152 28.5617 152.152C28.967 152.152 29.4149 152.152 29.8202 152.109C29.9482 152.109 30.0548 152.066 30.1828 152.066C30.6308 152.002 31.0574 151.896 31.5053 151.832C31.612 151.789 31.7826 151.768 31.8679 151.768C32.1452 151.704 32.3799 151.597 32.6572 151.554C32.7638 151.554 32.8705 151.49 32.9558 151.448C32.9985 151.448 33.0838 151.512 33.0838 151.576C33.1265 151.682 33.1265 151.746 33.1265 151.853C33.0838 152.77 33.0838 153.005 33.1265 153.922C33.1691 154.029 33.1265 154.157 33.1265 154.263" fill="#61331E"/>
<path d="M45.7969 153.09C45.8395 153.495 45.7969 153.837 45.6902 154.199C45.6475 154.263 45.4769 154.37 45.3916 154.327C45.3276 154.285 45.2849 154.285 45.2636 154.263C45.1996 154.199 45.1356 154.157 45.029 154.199C44.6877 154.263 44.389 154.263 44.0904 154.242C43.8771 154.242 43.6851 154.242 43.5145 154.199C43.3225 154.199 43.1732 154.242 43.0025 154.242H42.4266C42.2346 154.242 42.0853 154.199 41.8933 154.242H41.3814C40.1869 154.285 38.9497 154.285 37.6486 154.285H35.6221C35.6221 154.285 35.4942 154.242 35.4088 154.242C35.3662 154.242 35.3022 154.135 35.3022 154.114V153.986C35.4088 153.687 35.4728 153.41 35.5368 153.112C35.5795 152.813 35.6435 152.493 35.7075 152.194C35.7715 151.896 35.8355 151.618 35.8355 151.277C35.9421 150.936 36.0061 150.573 35.9634 150.189C36.0274 149.848 36.0274 149.485 36.0701 149.144C36.0701 148.931 36.1127 148.696 36.0274 148.504C35.9848 148.227 36.0274 147.928 36.0274 147.651C36.0274 147.48 36.0274 147.288 36.0701 147.118C36.0701 146.947 36.0701 146.776 36.0274 146.606C36.0274 146.307 36.0274 145.987 36.0701 145.688C36.0701 145.39 36.0701 145.113 36.1128 144.835C36.1128 144.494 36.0701 144.195 36.1128 143.897V140.313C36.1128 139.225 36.1128 138.18 36.1554 137.092C36.1554 136.516 36.1554 135.94 36.1981 135.407C36.2407 134.959 36.2407 134.533 36.2621 134.085C36.2621 132.869 36.2621 131.568 36.2194 130.352C36.2194 129.946 36.1554 129.541 36.0914 129.136C36.0488 128.944 36.0274 128.731 36.0274 128.56C35.9848 128.176 35.8994 127.856 35.8141 127.515L35.7075 127.067C35.7075 127.067 35.8355 126.854 35.9421 126.854C36.0061 126.854 36.0701 126.854 36.1554 126.896C36.838 127.003 37.5419 127.024 38.2245 127.003C38.3525 127.003 38.4591 126.96 38.5658 126.96C38.6724 126.96 38.7364 127.003 38.8431 127.003C38.9711 127.003 39.1417 127.045 39.291 127.003H40.2082C40.6562 127.045 41.0828 127.045 41.5307 127.003C41.6374 127.003 41.7014 127.003 41.8294 127.045C42.0213 127.045 42.192 127.045 42.4479 127.003H42.5759C43.0879 127.045 43.5998 126.96 44.0904 127.003C44.1971 127.003 44.3037 127.003 44.389 126.96C44.7303 126.918 45.0929 126.918 45.4129 126.896C45.4769 126.896 45.5196 126.896 45.5409 126.939C45.6049 126.939 45.7115 127.003 45.7115 127.109C45.7542 127.216 45.7755 127.344 45.7542 127.472C45.7115 127.813 45.7542 128.176 45.7969 128.517V128.795C45.8608 129.136 45.8608 129.477 45.8608 129.84C45.8608 130.032 45.7329 130.181 45.5622 130.288H45.4982C45.4982 130.288 45.3916 130.288 45.3702 130.245C45.0929 130.032 44.7517 129.904 44.4317 129.84C44.325 129.84 44.2184 129.797 44.1331 129.776C43.8558 129.669 43.6211 129.648 43.3652 129.648C43.1519 129.648 42.9172 129.605 42.6826 129.584C42.5759 129.541 42.4479 129.541 42.32 129.541H41.7014C41.4027 129.584 41.0828 129.541 40.7842 129.584C40.5069 129.626 40.0376 129.584 39.739 129.584C39.4617 129.584 39.2057 129.626 38.9284 129.648C38.8644 129.648 38.8004 129.754 38.8004 129.861C38.7577 130.096 38.7577 130.33 38.7577 130.565V135.364C38.6511 135.706 38.6938 136.004 38.6938 136.346C38.6938 136.282 38.6938 136.538 38.7364 136.794C38.6724 137.028 38.6938 137.263 38.6724 137.497V139.012C38.6724 139.012 38.6724 139.631 38.6298 140.292L39.7176 139.929C39.9949 139.801 40.2509 139.695 40.5282 139.588C40.8055 139.481 40.7415 139.545 41.0401 139.353C41.3814 139.225 41.744 139.076 42.1493 138.948C42.256 138.905 42.32 138.841 42.4266 138.82C43.5358 138.244 44.1544 137.711 44.2611 138.137C44.2611 139.225 44.3037 140.569 44.3037 141.529C44.3464 141.977 43.5571 141.529 42.6399 141.636C41.7867 141.742 40.2722 142.105 39.7603 142.318C39.6323 142.382 39.483 142.425 39.355 142.489C39.0777 142.553 38.8431 142.617 38.5658 142.724V144.921C38.5658 145.049 38.5231 145.198 38.5231 145.283C38.5231 145.731 38.4804 146.136 38.5231 146.542C38.5658 146.712 38.5658 146.904 38.5658 147.075C38.5658 147.608 38.5658 148.504 38.5231 148.76V150.211C38.5658 150.68 38.5231 151.149 38.5231 151.64C38.5231 151.682 38.5231 151.746 38.5658 151.768C38.5658 151.81 38.6084 151.832 38.6298 151.874H38.7577C39.4403 151.917 40.1229 151.938 40.9335 151.917L41.3814 151.853C41.6161 151.853 41.8294 151.789 42.064 151.789C42.4053 151.789 42.7466 151.746 43.0025 151.682C43.1092 151.64 43.2159 151.64 43.2372 151.64C43.7491 151.597 44.1757 151.512 44.6023 151.405L44.9436 151.298C45.1143 151.234 45.2849 151.192 45.4129 151.17C45.5196 151.17 45.5835 151.213 45.6902 151.213C45.7542 151.213 45.8182 151.32 45.8608 151.405C45.8608 151.469 45.9035 151.533 45.9035 151.618C45.9035 151.896 45.9035 152.13 45.8608 152.408C45.8608 152.642 45.8608 152.877 45.9035 153.112" fill="#61331E"/>
<path d="M52.6867 154.135H52.4734C52.0041 154.007 51.5988 154.092 51.1935 154.092C51.0869 154.135 51.0229 154.135 50.9162 154.092C50.8522 154.092 50.7882 154.05 50.7242 154.05C50.6176 154.007 50.5109 153.836 50.5963 153.708C50.8309 153.175 50.8736 153.261 50.9589 152.621C50.9589 152.45 51.0015 152.322 51.0229 152.151L51.0869 151.789C51.1295 151.575 51.1295 151.383 51.1509 151.213C51.2575 150.701 51.2788 150.189 51.3215 149.698C51.3215 148.952 51.3642 148.184 51.3215 147.437V147.309C51.3855 146.627 51.3855 145.987 51.3855 145.347V145.07C51.4495 144.728 51.4495 144.366 51.4495 144.024C51.4495 143.747 51.4495 143.448 51.4921 143.171V141.401C51.4495 141.102 51.4495 140.782 51.4495 140.483C51.4921 140.185 51.4495 139.865 51.4495 139.566C51.4495 139.289 51.4495 139.033 51.4068 138.756C51.4068 137.945 51.4708 137.092 51.4495 136.281V136.004C51.5135 135.364 51.4921 134.682 51.4495 134.042V133.7C51.4921 133.167 51.4921 132.591 51.4921 132.015C51.4921 131.738 51.4921 131.439 51.5348 131.162C51.5348 130.586 51.5348 129.967 51.4921 129.37C51.4282 129.306 51.3855 129.264 51.3215 129.264C51.2575 129.264 51.1935 129.221 51.1082 129.264H50.5963C50.319 129.221 50.319 129.264 50.127 129.328C49.8497 129.434 49.679 129.37 49.4871 129.434C49.0818 129.541 48.6978 129.541 48.2925 129.605C48.1859 129.647 48.0579 129.733 47.9939 129.818C47.8233 129.861 47.6953 129.925 47.5886 129.946C47.5246 129.989 47.3967 129.882 47.354 129.839V129.775C47.3967 129.306 47.418 128.965 47.418 128.581C47.418 128.453 47.418 128.346 47.3753 128.24C47.3327 127.898 47.3753 127.429 47.3753 127.088C47.3753 127.024 47.482 126.917 47.546 126.917C47.61 126.917 47.674 126.875 47.7166 126.875C47.8446 126.917 47.9939 126.917 48.0579 126.939C48.2712 126.896 48.4205 126.939 48.6338 126.896C48.8471 126.896 49.0818 126.853 49.2738 126.939C49.3378 126.981 49.4444 126.939 49.5084 126.939C49.8497 126.939 50.1483 126.981 50.4896 126.939C50.7242 127.002 51.0229 126.981 51.3002 126.981C51.3428 126.981 51.4068 126.981 51.4708 127.024H51.6628C51.7908 127.024 51.8974 126.96 52.0254 126.96C52.1534 127.002 52.3027 126.96 52.4307 126.96C52.5587 126.96 52.708 127.002 52.836 127.002C52.9 127.002 53.0066 127.002 53.0706 126.96C53.3052 126.96 53.5186 126.917 53.7105 127.002L54.3931 126.939C54.3931 126.939 54.5638 126.939 54.6704 126.981H54.969C55.2677 126.939 55.6729 127.024 55.9929 126.917H56.1209C56.3982 126.981 56.7608 126.981 57.0594 126.96H57.7633C57.8913 126.917 57.998 126.896 58.126 126.917C58.2966 126.917 58.4246 127.024 58.4673 127.194V127.877C58.4673 128.282 58.4246 128.688 58.5099 129.093C58.5526 129.136 58.5526 129.093 58.5099 129.157C58.5099 129.328 58.4673 129.562 58.4673 129.775C58.4033 129.818 58.2966 129.839 58.254 129.882C57.9553 129.839 57.7207 129.818 57.4007 129.669C57.3581 129.626 57.2941 129.605 57.2727 129.605C56.9741 129.498 56.6542 129.434 56.3342 129.37C56.2062 129.328 56.0996 129.306 55.9716 129.306C55.8436 129.264 55.609 129.306 55.3956 129.306H54.3718C54.3718 129.306 54.2438 129.306 54.1585 129.349C54.1158 129.349 54.0305 129.413 54.0305 129.456C54.0305 129.562 54.0305 129.669 53.9878 129.733C53.9878 129.967 53.9878 130.181 53.9452 130.373V131.226C53.9452 131.525 53.9452 131.866 53.9025 132.207C53.8598 132.314 53.8598 132.442 53.9025 132.57V134.191C53.9665 134.49 53.9025 134.81 53.9452 135.108C53.9878 135.385 53.9452 135.62 53.9025 135.855C53.9025 136.025 53.9025 136.196 53.9452 136.367V136.495C53.9025 136.9 53.9025 137.284 53.8812 137.689C53.8385 137.924 53.8385 138.158 53.8812 138.393C53.9238 138.798 53.8812 139.182 53.8812 139.588C53.8812 140.057 53.8385 140.526 53.8385 141.038C53.8385 141.443 53.7959 141.849 53.8385 142.254L53.7959 142.595C53.7532 142.958 53.7532 143.342 53.7532 143.704C53.7959 143.896 53.7959 144.067 53.7532 144.28C53.7532 144.92 53.7532 145.56 53.8172 146.179C53.8598 146.712 53.8598 147.288 53.8598 147.843V148.205C53.9665 148.952 53.9238 149.698 54.0732 150.445C54.1158 150.616 54.1371 150.786 54.1371 150.957C54.1371 151.319 54.2011 151.703 54.2651 152.066C54.3718 152.685 54.4784 153.325 54.6704 153.922C54.6704 153.986 54.6277 154.092 54.5638 154.135C54.5638 154.135 54.5424 154.149 54.4998 154.178C54.4998 154.178 54.4358 154.22 54.3931 154.22C53.8812 154.22 53.1346 154.178 52.5587 154.178" fill="#61331E"/>
<path d="M65.3784 154.135H65.1651C64.6958 154.007 64.2905 154.092 63.8852 154.092C63.7786 154.135 63.7146 154.135 63.6079 154.092C63.5439 154.092 63.4799 154.05 63.416 154.05C63.3093 154.007 63.2026 153.836 63.288 153.708C63.5226 153.175 63.5653 153.261 63.6506 152.621C63.6506 152.45 63.6933 152.322 63.7146 152.151L63.7786 151.789C63.8212 151.575 63.8212 151.383 63.8426 151.213C63.9492 150.701 63.9706 150.189 64.0132 149.698C64.0132 148.952 64.0559 148.184 64.0132 147.437V147.309C64.0772 146.627 64.0772 145.987 64.0772 145.347V145.07C64.1412 144.728 64.1412 144.366 64.1412 144.024C64.1412 143.747 64.1412 143.448 64.1839 143.171V141.401C64.1412 141.102 64.1412 140.782 64.1412 140.483C64.1839 140.185 64.1412 139.865 64.1412 139.566C64.1412 139.289 64.1412 139.033 64.0985 138.756C64.0985 137.945 64.1625 137.092 64.1412 136.281V136.004C64.2052 135.364 64.1839 134.682 64.1412 134.042V133.7C64.1839 133.167 64.1839 132.591 64.1839 132.015C64.1839 131.738 64.1839 131.439 64.2265 131.162C64.2265 130.586 64.2265 129.967 64.1839 129.37C64.1199 129.306 64.0772 129.264 64.0132 129.264C63.9492 129.264 63.8852 129.221 63.7999 129.264H63.288C63.0107 129.221 63.0107 129.264 62.8187 129.328C62.5414 129.434 62.3708 129.37 62.1788 129.434C61.7735 129.541 61.3895 129.541 60.9843 129.605C60.8776 129.647 60.7496 129.733 60.6856 129.818C60.515 129.861 60.387 129.925 60.2804 129.946C60.2164 129.989 60.0884 129.882 60.0457 129.839V129.775C60.0884 129.306 60.1097 128.965 60.1097 128.581C60.1097 128.453 60.1097 128.346 60.067 128.24C60.0244 127.898 60.067 127.429 60.067 127.088C60.067 127.024 60.1737 126.917 60.2377 126.917C60.3017 126.917 60.3657 126.875 60.4083 126.875C60.5363 126.917 60.6856 126.917 60.7496 126.939C60.9629 126.896 61.1122 126.939 61.3256 126.896C61.5175 126.896 61.7735 126.853 61.9655 126.939C62.0295 126.981 62.1361 126.939 62.2001 126.939C62.5414 126.939 62.84 126.981 63.1813 126.939C63.416 127.002 63.7146 126.981 63.9919 126.981C64.0345 126.981 64.0985 126.981 64.1625 127.024H64.3545C64.4825 127.024 64.5891 126.96 64.7171 126.96C64.8451 127.002 64.9944 126.96 65.1224 126.96C65.2504 126.96 65.3997 127.002 65.5277 127.002C65.5917 127.002 65.6983 127.002 65.7623 126.96C65.997 126.96 66.2103 126.917 66.4022 127.002L67.0848 126.939C67.0848 126.939 67.2555 126.939 67.3621 126.981H67.6607C67.9594 126.939 68.3647 127.024 68.6846 126.917H68.8126C69.0899 126.981 69.4525 126.981 69.7512 126.96H70.4551C70.583 126.917 70.6897 126.896 70.8177 126.917C70.9883 126.917 71.1163 127.024 71.159 127.194V127.877C71.159 128.282 71.1163 128.688 71.2016 129.093C71.2443 129.136 71.2443 129.093 71.2016 129.157C71.2016 129.328 71.159 129.562 71.159 129.775C71.095 129.818 70.9883 129.839 70.9457 129.882C70.647 129.839 70.4124 129.818 70.0924 129.669C70.0498 129.626 69.9858 129.605 69.9645 129.605C69.6658 129.498 69.3459 129.434 69.0259 129.37C68.8979 129.328 68.7913 129.306 68.6633 129.306C68.5353 129.264 68.3007 129.306 68.0874 129.306H67.0635C67.0635 129.306 66.9355 129.306 66.8502 129.349C66.8075 129.349 66.7222 129.413 66.7222 129.456C66.7222 129.562 66.7222 129.669 66.6795 129.733C66.6795 129.967 66.6795 130.181 66.6369 130.373V131.226C66.6369 131.525 66.6369 131.866 66.5942 132.207C66.5516 132.314 66.5516 132.442 66.5942 132.57V134.191C66.6582 134.49 66.5942 134.81 66.6369 135.108C66.6795 135.385 66.6369 135.62 66.5942 135.855C66.5942 136.025 66.5942 136.196 66.6369 136.367V136.495C66.5942 136.9 66.5942 137.284 66.5729 137.689C66.5302 137.924 66.5302 138.158 66.5729 138.393C66.6155 138.798 66.5729 139.182 66.5729 139.588C66.5729 140.057 66.5302 140.526 66.5302 141.038C66.5302 141.443 66.4876 141.849 66.5302 142.254L66.4876 142.595C66.4449 142.958 66.4449 143.342 66.4449 143.704C66.4876 143.896 66.4876 144.067 66.4449 144.28C66.4449 144.92 66.4449 145.56 66.5089 146.179C66.5516 146.712 66.5516 147.288 66.5516 147.843V148.205C66.6582 148.952 66.6155 149.698 66.7649 150.445C66.8075 150.616 66.8289 150.786 66.8289 150.957C66.8289 151.319 66.8928 151.703 66.9568 152.066C67.0635 152.685 67.1701 153.325 67.3621 153.922C67.3621 153.986 67.3195 154.092 67.2555 154.135C67.2555 154.135 67.2341 154.149 67.1915 154.178C67.1915 154.178 67.1275 154.22 67.0848 154.22C66.5729 154.22 65.8263 154.178 65.2504 154.178" fill="#61331E"/>
<path d="M83.1042 153.09C83.1468 153.495 83.1042 153.837 82.9975 154.199C82.9549 154.263 82.7842 154.37 82.6989 154.327C82.6349 154.285 82.5922 154.285 82.5709 154.263C82.5069 154.199 82.4429 154.157 82.3363 154.199C81.995 154.263 81.6963 154.263 81.3977 154.242C81.1844 154.242 80.9924 154.242 80.8218 154.199C80.6298 154.199 80.4805 154.242 80.3099 154.242H79.7339C79.542 154.242 79.3926 154.199 79.2007 154.242H78.6887C77.4942 154.285 76.257 154.285 74.9559 154.285H72.9295C72.9295 154.285 72.8015 154.242 72.7161 154.242C72.6735 154.242 72.6095 154.135 72.6095 154.114V153.986C72.7162 153.687 72.7801 153.41 72.8441 153.112C72.8868 152.813 72.9508 152.493 73.0148 152.194C73.0788 151.896 73.1428 151.618 73.1428 151.277C73.2494 150.936 73.3134 150.573 73.2707 150.189C73.3347 149.848 73.3347 149.485 73.3774 149.144C73.3774 148.931 73.4201 148.696 73.3347 148.504C73.2921 148.227 73.3347 147.928 73.3347 147.651C73.3347 147.48 73.3347 147.288 73.3774 147.118C73.3774 146.947 73.3774 146.776 73.3347 146.606C73.3347 146.307 73.3347 145.987 73.3774 145.688C73.3774 145.39 73.3774 145.113 73.4201 144.835C73.4201 144.494 73.3774 144.195 73.4201 143.897V140.313C73.4201 139.225 73.4201 138.18 73.4627 137.092C73.4627 136.516 73.4627 135.94 73.5054 135.407C73.548 134.959 73.548 134.533 73.5694 134.085C73.5694 132.869 73.5694 131.568 73.5267 130.352C73.5267 129.946 73.4627 129.541 73.3987 129.136C73.3561 128.944 73.3347 128.731 73.3347 128.56C73.2921 128.176 73.2068 127.856 73.1214 127.515L73.0148 127.067C73.0148 127.067 73.1428 126.854 73.2494 126.854C73.3134 126.854 73.3774 126.854 73.4627 126.896C74.1453 127.003 74.8492 127.024 75.5318 127.003C75.6598 127.003 75.7664 126.96 75.8731 126.96C75.9797 126.96 76.0437 127.003 76.1504 127.003C76.2784 127.003 76.449 127.045 76.5983 127.003H77.5155C77.9635 127.045 78.3901 127.045 78.838 127.003C78.9447 127.003 79.0087 127.003 79.1367 127.045C79.3286 127.045 79.4993 127.045 79.7553 127.003H79.8832C80.3952 127.045 80.9071 126.96 81.3977 127.003C81.5044 127.003 81.5897 127.003 81.6963 126.96C82.0376 126.918 82.4003 126.918 82.7202 126.896C82.7842 126.896 82.8269 126.896 82.8482 126.939C82.9122 126.939 83.0188 127.003 83.0188 127.109C83.0615 127.216 83.0828 127.344 83.0615 127.472C83.0188 127.813 83.0615 128.176 83.1042 128.517V128.795C83.1682 129.136 83.1682 129.477 83.1682 129.84C83.1682 130.032 83.0402 130.181 82.8695 130.288H82.8055C82.8055 130.288 82.6989 130.288 82.6775 130.245C82.4003 130.032 82.059 129.904 81.739 129.84C81.6324 129.84 81.5257 129.797 81.4404 129.776C81.1631 129.669 80.9284 129.648 80.6511 129.648C80.4378 129.648 80.2032 129.605 79.9686 129.584C79.8619 129.541 79.7339 129.541 79.6059 129.541H78.9874C78.6887 129.584 78.3688 129.541 78.0701 129.584C77.7928 129.626 77.3236 129.584 77.0249 129.584C76.7476 129.584 76.4917 129.626 76.2144 129.648C76.1504 129.648 76.0864 129.754 76.0864 129.861C76.0437 130.096 76.0437 130.33 76.0437 130.565V135.364C75.9371 135.706 75.9797 136.004 75.9797 136.346C75.9797 136.282 75.9797 136.538 76.0224 136.794C75.9584 137.028 75.9797 137.263 75.9584 137.497V139.012C75.9584 139.012 75.9584 139.631 75.9157 140.292L77.0036 139.929C77.2809 139.801 77.5369 139.695 77.8142 139.588C78.0915 139.481 78.0275 139.545 78.3261 139.353C78.6674 139.225 79.03 139.076 79.4353 138.948C79.542 138.905 79.6059 138.841 79.7126 138.82C80.8218 138.244 81.4404 137.711 81.547 138.137C81.547 139.225 81.5897 140.569 81.5897 141.529C81.6324 141.977 80.8431 141.529 79.9259 141.636C79.0727 141.742 77.5582 142.105 77.0463 142.318C76.9183 142.382 76.769 142.425 76.641 142.489C76.3637 142.553 76.1291 142.617 75.8518 142.724V144.921C75.8518 145.049 75.8091 145.198 75.8091 145.283C75.8091 145.731 75.7664 146.136 75.8091 146.542C75.8518 146.712 75.8518 146.904 75.8518 147.075C75.8518 147.608 75.8518 148.504 75.8091 148.76V150.211C75.8518 150.68 75.8091 151.149 75.8091 151.64C75.8091 151.682 75.8091 151.746 75.8518 151.768C75.8518 151.81 75.8944 151.832 75.9157 151.874H76.0437C76.7263 151.917 77.4089 151.938 78.2194 151.917L78.6674 151.853C78.902 151.853 79.1153 151.789 79.35 151.789C79.6913 151.789 80.0326 151.746 80.2885 151.682C80.3952 151.64 80.5018 151.64 80.5232 151.64C81.0351 151.597 81.4617 151.512 81.8883 151.405L82.2296 151.298C82.4003 151.234 82.5709 151.192 82.6989 151.17C82.8055 151.17 82.8695 151.213 82.9762 151.213C83.0402 151.213 83.1042 151.32 83.1468 151.405C83.1468 151.469 83.1895 151.533 83.1895 151.618C83.1895 151.896 83.1895 152.13 83.1468 152.408C83.1468 152.642 83.1468 152.877 83.1895 153.112" fill="#61331E"/>
</g>
<defs>
<clipPath id="clip0_342_1515">
<rect width="83.1468" height="154.37" fill="white"/>
</clipPath>
</defs>
</svg>
