<svg width="40" height="40" viewBox="0 0 40 40" fill="none" xmlns="http://www.w3.org/2000/svg">
<mask id="mask0_551_8730" style="mask-type:alpha" maskUnits="userSpaceOnUse" x="0" y="0" width="40" height="40">
<rect width="40" height="40" fill="#D9D9D9"/>
</mask>
<g mask="url(#mask0_551_8730)">
<circle cx="26" cy="20" r="14" fill="#D6690F"/>
<g clip-path="url(#clip0_551_8730)">
<path d="M24.208 27.9998C24.208 27.9998 24.1227 27.9998 24.08 27.9891C23.2373 27.7866 22.4373 27.4561 21.7013 27.0084C21.4773 26.8698 21.3813 26.582 21.488 26.3369C21.6053 26.081 21.6373 25.7932 21.584 25.5267C21.5307 25.2496 21.4027 25.0044 21.2 24.8019C20.9973 24.5994 20.752 24.4714 20.4747 24.4181C20.1973 24.3648 19.92 24.3968 19.664 24.5141C19.4187 24.6207 19.1307 24.5354 18.992 24.3116C18.544 23.576 18.2027 22.7766 18.0107 21.9345C17.9467 21.6786 18.0853 21.4122 18.3413 21.3162C18.608 21.2203 18.832 21.0391 18.992 20.8046C19.152 20.57 19.2373 20.3036 19.2373 20.0157C19.2373 19.7279 19.152 19.4615 18.992 19.2269C18.832 18.9924 18.608 18.8219 18.3413 18.7153C18.096 18.6193 17.9467 18.3529 18.0107 18.097C18.2133 17.2549 18.544 16.4555 18.992 15.7199C19.1307 15.4854 19.4187 15.4002 19.664 15.5068C19.8453 15.592 20.0373 15.5814 20.2187 15.624C20.4533 15.624 20.6773 15.5707 20.88 15.4535C21.0827 15.3469 21.2533 15.187 21.3813 14.9951C21.5093 14.8032 21.584 14.5794 21.6053 14.3449C21.6267 14.121 21.584 13.8865 21.488 13.6733C21.3813 13.4281 21.4667 13.1403 21.6907 13.0018C22.448 12.5434 23.248 12.2129 24.08 12.0104C24.3467 11.9571 24.6027 12.085 24.6987 12.3409C24.7947 12.6074 24.976 12.8312 25.2107 12.9911C25.68 13.3109 26.32 13.3109 26.7787 12.9911C27.0133 12.8312 27.184 12.6074 27.2907 12.3409C27.3867 12.0957 27.6427 11.9465 27.9093 12.0104C28.7413 12.2129 29.5413 12.5434 30.2773 12.9911C30.5013 13.1297 30.5973 13.4175 30.4907 13.6627C30.3947 13.8758 30.352 14.1104 30.3733 14.3342C30.3947 14.5687 30.4693 14.7819 30.5973 14.9738C30.7253 15.1656 30.896 15.3255 31.0987 15.4428C31.3013 15.5494 31.5253 15.6133 31.76 15.6133C31.952 15.6133 32.1547 15.5707 32.3253 15.4961C32.56 15.3895 32.8587 15.4748 32.9973 15.7093C33.4453 16.4448 33.7867 17.2443 33.9787 18.0864C34.0427 18.3422 33.904 18.6087 33.648 18.7046C33.3813 18.8006 33.1573 18.9818 32.9973 19.2163C32.8373 19.4508 32.752 19.7173 32.752 20.0051C32.752 20.2929 32.8373 20.5594 32.9973 20.7939C33.1573 21.0284 33.3813 21.2096 33.648 21.3056C33.8933 21.4015 34.032 21.668 33.968 21.9238C33.7653 22.7659 33.4347 23.5654 32.9867 24.3009C32.848 24.5247 32.56 24.6207 32.3147 24.5141C32.0587 24.4075 31.7813 24.3755 31.504 24.4181C31.2267 24.4714 30.9813 24.5994 30.7787 24.8019C30.576 25.0044 30.448 25.2496 30.3947 25.5267C30.3413 25.8039 30.3733 26.081 30.4907 26.3369C30.5973 26.582 30.512 26.8698 30.288 27.0084C29.552 27.4561 28.752 27.7972 27.9093 27.9891C27.6427 28.0531 27.3867 27.9145 27.2907 27.6587C27.1947 27.3922 27.0133 27.179 26.7787 27.0191C26.32 26.6993 25.68 26.6993 25.2107 27.0191C24.976 27.179 24.8053 27.4028 24.6987 27.6587C24.6133 27.8718 24.4213 27.9998 24.1973 27.9998H24.208ZM26 25.708C26.5013 25.708 26.9813 25.8572 27.3867 26.1343C27.664 26.3262 27.888 26.5607 28.0693 26.8379C28.5173 26.6993 28.9547 26.5181 29.3707 26.2942C29.296 25.9744 29.296 25.644 29.36 25.3135C29.4453 24.8232 29.68 24.3862 30.032 24.0344C30.384 23.6826 30.832 23.4481 31.312 23.3629C31.6427 23.2989 31.9733 23.3096 32.2933 23.3735C32.5173 22.9578 32.6987 22.5207 32.8373 22.073C32.56 21.8918 32.3147 21.668 32.1333 21.3908C31.856 20.9858 31.7067 20.5061 31.7067 20.0051C31.7067 19.5041 31.856 19.0244 32.144 18.6193C32.336 18.3422 32.5707 18.1183 32.848 17.9371C32.7093 17.4894 32.528 17.0524 32.304 16.6367C32.1227 16.6793 31.952 16.7326 31.76 16.7006C31.3547 16.7006 30.96 16.594 30.5973 16.4022C30.2347 16.2103 29.936 15.9225 29.712 15.5814C29.488 15.2403 29.36 14.8459 29.328 14.4408C29.3067 14.1956 29.328 13.9505 29.3813 13.7159C28.9653 13.4921 28.528 13.3109 28.08 13.1723C27.8987 13.4495 27.6747 13.6946 27.3973 13.8758C26.576 14.4408 25.4453 14.4408 24.6133 13.8758C24.336 13.684 24.112 13.4495 23.9307 13.1723C23.4827 13.3109 23.0453 13.4921 22.6293 13.7159C22.6827 13.9505 22.704 14.1956 22.6827 14.4408C22.6507 14.8459 22.512 15.2403 22.2987 15.5814C22.0747 15.9225 21.7653 16.2103 21.4133 16.4022C21.0507 16.594 20.656 16.7326 20.24 16.7006C20.0587 16.7006 19.888 16.6793 19.7067 16.6473C19.4827 17.063 19.3013 17.5001 19.1733 17.9478C19.4507 18.129 19.696 18.3529 19.8773 18.63C20.1547 19.0351 20.3147 19.5147 20.3147 20.0157C20.3147 20.5061 20.1653 20.9858 19.888 21.4015C19.696 21.6786 19.4613 21.9131 19.184 22.0837C19.3227 22.5314 19.504 22.9684 19.728 23.3842C20.048 23.3096 20.3787 23.3096 20.7093 23.3629C21.2 23.4481 21.6373 23.6826 21.9893 24.0344C22.3413 24.3862 22.576 24.8339 22.6613 25.3135C22.7253 25.644 22.7147 25.9744 22.64 26.2942C23.056 26.5181 23.4933 26.6993 23.9413 26.8379C24.112 26.5607 24.3467 26.3262 24.624 26.1343C25.0293 25.8572 25.5093 25.708 26.0107 25.708H26ZM26.032 23.64C25.3067 23.64 24.6133 23.4268 24.0053 23.0217C23.3973 22.6167 22.9387 22.0517 22.6613 21.3908C22.384 20.7193 22.3093 19.9944 22.4587 19.2909C22.5973 18.5874 22.9493 17.9371 23.4507 17.4255C23.9627 16.9138 24.6027 16.5727 25.3173 16.4341C26.0213 16.2956 26.7467 16.3595 27.4187 16.6367C28.08 16.9138 28.656 17.3722 29.0507 17.9798C29.456 18.5767 29.6693 19.2802 29.6693 20.0051C29.6693 20.4848 29.5733 20.9538 29.392 21.4015C29.2107 21.8492 28.944 22.2436 28.6027 22.5847C28.2613 22.9258 27.8667 23.1923 27.4187 23.3735C26.9707 23.5547 26.5013 23.6507 26.0213 23.6507L26.032 23.64ZM26.032 17.4255C25.8613 17.4255 25.6907 17.4468 25.5307 17.4788C25.0293 17.5747 24.5707 17.8199 24.208 18.1823C23.8453 18.5447 23.6 19.0031 23.504 19.5041C23.408 20.0051 23.4507 20.5167 23.6533 20.9964C23.856 21.4761 24.176 21.8705 24.6027 22.1583C25.3067 22.6273 26.2347 22.7233 27.024 22.3928C27.3333 22.2649 27.6213 22.073 27.856 21.8385C28.1013 21.5934 28.2827 21.3162 28.4213 20.9964C28.5493 20.6873 28.6133 20.3462 28.6133 20.0157C28.6133 19.5041 28.464 19.0137 28.176 18.5874C27.888 18.161 27.4933 17.8305 27.024 17.6387C26.704 17.5108 26.3733 17.4468 26.0427 17.4468L26.032 17.4255Z" fill="#FCECDE"/>
</g>
</g>
<defs>
<clipPath id="clip0_551_8730">
<rect width="16" height="16" fill="white" transform="translate(18 12)"/>
</clipPath>
</defs>
</svg>
