<svg width="25" height="25" viewBox="0 0 25 25" fill="none" xmlns="http://www.w3.org/2000/svg">
<circle cx="12.5" cy="12.5" r="12.5" fill="#FBF8F2"/>
<path d="M18.7617 12.5C18.7619 12.1099 18.8804 11.729 19.1015 11.4076C19.3225 11.0861 19.6358 10.8393 20 10.6994C19.8115 9.91162 19.4991 9.15872 19.0744 8.46889C18.8271 8.5781 18.5598 8.63485 18.2894 8.63556C17.968 8.63602 17.6516 8.55605 17.3691 8.40293C17.0865 8.24982 16.8467 8.02842 16.6716 7.75892C16.4965 7.48942 16.3916 7.18038 16.3664 6.85997C16.3413 6.53955 16.3968 6.21794 16.5278 5.92444C15.8391 5.50015 15.0873 5.1881 14.3006 5C14.161 5.36446 13.9141 5.678 13.5926 5.89919C13.2711 6.12037 12.89 6.23879 12.4997 6.23879C12.1095 6.23879 11.7284 6.12037 11.4068 5.89919C11.0853 5.678 10.8384 5.36446 10.6989 5C9.91106 5.18849 9.15817 5.5009 8.46833 5.92556C8.59932 6.21905 8.65479 6.54066 8.62967 6.86108C8.60455 7.18149 8.49966 7.49053 8.32454 7.76003C8.14942 8.02953 7.90964 8.25093 7.62706 8.40405C7.34447 8.55716 7.02807 8.63713 6.70667 8.63667C6.43609 8.63788 6.16841 8.58104 5.92167 8.47C5.5006 9.1622 5.18967 9.91564 5 10.7033C5.36415 10.8429 5.67745 11.0896 5.89859 11.4109C6.11973 11.7321 6.23833 12.1128 6.23875 12.5028C6.23917 12.8928 6.12139 13.2738 5.90095 13.5955C5.6805 13.9172 5.36774 14.1646 5.00389 14.305C5.19238 15.0928 5.50479 15.8457 5.92944 16.5356C6.28527 16.3776 6.68062 16.3311 7.06339 16.4022C7.44617 16.4733 7.79841 16.6588 8.07371 16.9341C8.34901 17.2094 8.53444 17.5616 8.60558 17.9444C8.67672 18.3272 8.63023 18.7225 8.47222 19.0783C9.1624 19.5023 9.91518 19.8147 10.7028 20.0039C10.8424 19.6406 11.0888 19.3281 11.4096 19.1077C11.7304 18.8873 12.1105 18.7693 12.4997 18.7693C12.8889 18.7693 13.269 18.8873 13.5898 19.1077C13.9106 19.3281 14.1571 19.6406 14.2967 20.0039C15.0845 19.8154 15.8374 19.503 16.5272 19.0783C16.3705 18.7225 16.325 18.3277 16.3966 17.9455C16.4682 17.5634 16.6536 17.2118 16.9285 16.9369C17.2034 16.6619 17.555 16.4765 17.9372 16.4049C18.3193 16.3333 18.7142 16.3788 19.07 16.5356C19.494 15.8454 19.8064 15.0926 19.9956 14.305C19.6322 14.1631 19.3201 13.915 19.1 13.5929C18.8799 13.2709 18.762 12.8901 18.7617 12.5ZM12.535 15.6211C11.9169 15.6211 11.3127 15.4378 10.7988 15.0945C10.2849 14.7511 9.8844 14.263 9.64788 13.692C9.41135 13.121 9.34947 12.4926 9.47005 11.8865C9.59062 11.2803 9.88825 10.7234 10.3253 10.2864C10.7623 9.84936 11.3192 9.55174 11.9253 9.43116C12.5315 9.31058 13.1599 9.37246 13.7309 9.60899C14.3019 9.84551 14.79 10.2461 15.1333 10.76C15.4767 11.2739 15.66 11.878 15.66 12.4961C15.6601 12.9065 15.5794 13.313 15.4224 13.6922C15.2654 14.0714 15.0352 14.4159 14.745 14.7061C14.4548 14.9964 14.1103 15.2265 13.7311 15.3835C13.3519 15.5405 12.9454 15.6213 12.535 15.6211Z" fill="#974B1A"/>
</svg>
