<svg width="70" height="70" viewBox="0 0 70 70" fill="none" xmlns="http://www.w3.org/2000/svg">
<circle cx="35" cy="35" r="35" fill="#974B1A"/>
<path opacity="0.5" d="M62.7052 28.7549C62.7052 28.7549 62.7052 28.8639 62.7052 28.8367C62.7892 29.273 62.9291 29.7639 62.9851 30.1185C63.0131 30.3367 63.2369 30.473 63.4608 30.473C63.6847 30.473 63.8806 30.0912 63.9086 29.8458C63.9086 29.8458 63.9086 29.8185 63.9086 29.7912C63.9086 29.4912 63.9086 29.1912 63.8246 28.8912C63.8246 28.8094 63.8246 28.7276 63.7966 28.6458V28.5367C63.7966 28.1276 63.7407 27.7458 63.6847 27.3367C63.6567 26.9821 63.5728 26.6003 63.4049 26.1094C63.4049 25.8639 63.3489 25.6185 63.3209 25.4003C63.3209 25.4003 63.3209 25.4003 63.3209 25.373C63.3769 25.2639 63.4049 25.1276 63.3489 24.9912C60.2146 16.1276 52.9664 9.17303 43.9832 6.36394C43.9832 6.36394 43.9832 6.36394 43.9552 6.36394L43.6754 6.28213H43.5914C40.8209 5.46394 37.9384 5.05485 35.028 5.05485C18.4888 5.00031 5 18.4458 5 35.0003C5 51.5549 18.4888 65.0003 35.056 65.0003C50.5877 65.0003 63.7407 52.9185 65 37.4549C65 37.4276 65 37.373 65 37.3458C65 37.3185 65 37.2912 65 37.2639C65 37.1276 64.8881 36.9912 64.7761 36.9094C64.6642 36.8549 64.5522 36.8003 64.4403 36.7185C64.4123 36.7185 64.3843 36.7185 64.3563 36.6912C64.2164 36.6639 64.0485 36.6367 63.9366 36.6367C63.7687 36.5276 63.6007 36.5003 63.4328 36.5549C63.2929 36.6094 63.181 36.7185 63.125 36.9094C62.9851 36.8549 62.8451 36.8549 62.7052 36.9094C62.5653 36.9912 62.4813 37.1276 62.4813 37.2912C62.4813 37.5639 62.4813 37.8367 62.4813 38.0276C62.4534 38.2185 62.4254 38.2458 62.3694 38.3003C62.1735 38.5185 62.0896 38.7367 62.0896 39.4185C62.0896 39.5003 62.1175 39.6094 62.1735 39.6639C62.1735 39.7185 62.2015 39.8276 62.2015 39.9639C62.2015 40.1276 62.2015 40.373 62.3134 40.5912C62.2015 41.273 62.0896 41.873 61.9496 42.4458C61.8657 42.773 61.8097 43.1003 61.7537 43.4003C61.6138 43.8367 61.5858 44.1639 61.5299 44.4367C61.5019 44.6549 61.4739 44.873 61.3899 45.0912C61.3899 45.1458 61.3899 45.173 61.3899 45.2276C61.3899 45.2821 61.306 45.4458 61.278 45.5276C61.166 45.773 61.0541 45.9912 61.1381 46.2094C61.0821 46.4549 60.9981 46.7276 60.9142 46.973L60.2705 48.473C60.0466 48.9094 59.8507 49.3185 59.6269 49.7821C59.5709 49.9185 59.5709 50.0821 59.6549 50.1912C59.5709 50.3003 59.431 50.4912 59.319 50.6276C59.0392 50.9549 58.7873 51.3094 58.6754 51.6367C58.5354 51.7458 58.4235 51.8549 58.3396 51.9639C58.1996 52.1276 58.0597 52.3185 57.8918 52.5367C57.6679 52.8639 57.416 53.2185 57.1362 53.3821C57.0802 53.4094 57.0243 53.4639 56.9963 53.5185C56.7724 53.8458 56.4925 54.1185 56.1567 54.4458L55.1772 55.4276C54.9813 55.6458 54.7295 55.8367 54.4776 56.0276L53.1063 57.0912C52.8825 57.3367 52.5746 57.5003 52.2948 57.7185C52.1828 57.8003 52.0709 57.8549 51.9869 57.9367C51.5672 58.2094 51.1474 58.4821 50.7276 58.7276C50.2519 58.9458 49.7761 59.1912 49.2724 59.4094C49.1325 59.4639 48.9925 59.5458 48.8246 59.6276C48.4888 59.7912 48.125 59.9549 47.7332 60.0912C47.6213 60.1185 47.5373 60.2003 47.4813 60.2821C47.4813 60.2821 47.4534 60.2821 47.4254 60.3094C47.3134 60.3639 47.2015 60.4185 47.1175 60.5276L45.9701 60.9639C45.6903 61.073 45.4104 61.1276 45.1306 61.2094C44.9627 61.2639 44.8228 61.2912 44.6549 61.3458L44.431 61.4003C43.7873 61.5912 43.0317 61.8094 42.2481 61.9185C41.9963 61.973 41.7444 62.0003 41.4925 62.0549C40.8489 62.1639 40.2612 62.273 39.7295 62.3003C39.6455 62.3003 39.6175 62.3003 39.5336 62.3549C39.5056 62.3549 39.4496 62.3549 39.3937 62.3549C39.2537 62.3549 39.0019 62.4094 38.806 62.5458C38.3302 62.4912 37.8265 62.5458 37.2668 62.6821C37.0989 62.6549 36.875 62.6549 36.6791 62.6549C36.5951 62.6549 36.5112 62.6549 36.4272 62.6549C36.3433 62.573 36.2034 62.5458 36.0914 62.5458C36.0354 62.5458 35.9515 62.5458 35.8675 62.5458C35.6716 62.5458 35.4198 62.5458 35.2239 62.6276C35.028 62.6549 34.6642 62.6276 34.3563 62.6276C34.1325 62.6276 33.9366 62.6276 33.7127 62.6549C33.4328 62.4912 32.8731 62.4367 32.5653 62.5185C32.5653 62.5185 32.3414 62.5185 32.2295 62.5185C31.9776 62.5185 31.6418 62.5185 31.3619 62.573C30.8302 62.273 30.3825 62.1639 30.0466 62.273H29.9907C29.6549 62.1367 29.347 62.0549 28.6754 62.1367H28.5634C28.5634 62.1367 28.4515 62.0276 28.3955 61.973C28.3396 61.8367 28.1996 61.7549 28.0597 61.7276C27.528 61.673 26.7724 61.4821 26.1007 61.2367C25.4011 60.9367 24.6175 60.6094 24.0299 60.5003C23.75 60.4185 23.4981 60.2821 23.2463 60.1185C23.1343 60.0639 23.0224 59.9821 22.8825 59.9276L22.5466 59.7639C22.0429 59.5185 21.4832 59.2185 20.9515 59.0549L20.7276 58.8912C20.5597 58.7821 20.3918 58.673 20.1959 58.5367C19.916 58.3458 19.6362 58.1549 19.3284 57.9367L18.5448 57.3912C18.2649 57.2003 17.9851 57.0094 17.6772 56.8458C17.5653 56.7367 17.4534 56.6549 17.3134 56.5458C17.0616 56.3276 16.8097 56.1367 16.5858 55.8639C16.222 55.5094 15.8862 55.1549 15.5504 54.8549C15.2985 54.6094 15.2425 54.473 15.1586 54.2821C15.1026 54.1185 15.0187 53.9821 14.8787 53.7639C14.8787 53.7639 14.8507 53.7094 14.8228 53.6821C14.431 53.3003 14.0112 52.8639 13.5914 52.4276C13.6754 52.4276 13.7873 52.373 13.8713 52.2912C14.2071 51.9639 13.9552 51.6367 13.4235 50.873C13.2276 50.6003 12.9198 50.1367 12.8638 50.0003C12.8358 49.8639 12.7239 49.7549 12.6119 49.7003C12.6119 49.7003 12.556 49.7003 12.528 49.7003C12.528 49.7003 12.5 49.7003 12.5 49.673C12.3601 49.5639 12.1362 49.373 11.8563 49.4548C11.8004 49.4548 11.7724 49.5094 11.7164 49.5367L11.6325 49.4003C11.3526 48.7458 11.0728 48.5821 10.7929 48.4458C10.7369 48.4458 10.709 48.4185 10.681 48.3912C10.541 48.2821 10.3731 48.2821 10.2052 48.3367C10.1493 48.3639 10.0933 48.4185 10.0373 48.4458L9.70149 48.0912C9.70149 48.0912 9.70149 48.0367 9.67351 47.9821L8.88993 46.1549C8.75 45.8276 8.61007 45.5003 8.49813 45.1458L7.79851 43.0458C7.74254 42.8003 7.68657 42.5549 7.6306 42.3367C7.6306 42.2549 7.57463 42.173 7.49067 42.1185C7.4347 41.8458 7.35075 41.573 7.26679 41.0821C7.35075 41.0549 7.40672 41.0003 7.46269 40.9458C7.54664 40.8639 7.57463 40.7276 7.57463 40.6185C7.57463 40.4821 7.57463 40.3185 7.57463 40.1821C7.57463 40.073 7.57463 39.9639 7.57463 39.8549C7.57463 39.8276 7.57463 39.773 7.57463 39.7458L7.51866 39.5549C7.46269 39.3912 7.4347 39.2276 7.35075 39.0912C7.35075 38.7639 7.29478 38.4367 7.26679 38.0821C7.23881 37.6458 7.18284 37.1821 7.18284 36.6912C7.15485 36.2549 7.09888 35.8185 7.04291 35.4367C7.04291 35.2458 6.98694 35.0549 6.95896 34.9185V34.7821C6.95896 34.7821 6.90299 34.5639 6.90299 34.5367C6.90299 34.1549 6.90299 33.7458 6.875 33.3912C6.875 33.0639 6.90299 32.7639 6.93097 32.4639C7.15485 32.3003 7.18284 31.9458 7.21082 31.5639C7.21082 31.373 7.23881 31.0185 7.29478 30.9094C7.32276 30.8549 7.35075 30.8003 7.37873 30.7185C7.40672 30.5003 7.46269 30.4185 7.51866 30.3094C7.6306 30.0912 7.74254 29.9003 7.77052 29.4094C7.77052 29.3821 7.77052 29.3276 7.77052 29.3003C7.77052 29.2185 7.77052 29.1367 7.74254 29.0276V28.8912C7.82649 28.5639 7.88246 28.2912 7.85448 27.8821L7.91045 27.6912C7.96642 27.5549 7.9944 27.3912 8.05037 27.2549C8.10634 27.0094 8.1903 26.7912 8.27425 26.5458L9.16978 24.3094L10.3731 22.0185C10.4291 21.8549 10.541 21.6912 10.625 21.5276C10.681 21.4185 10.7369 21.3094 10.7929 21.2276L10.9608 20.9821C11.1847 20.6549 11.3526 20.4094 11.4925 20.1367C11.6045 19.973 11.6884 19.7821 11.8004 19.5912C11.8843 19.4276 11.9683 19.2639 12.0522 19.1276C12.1082 19.0458 12.1922 18.9639 12.2481 18.8821C12.5 18.5821 12.7519 18.3094 12.9757 18.0639L13.3396 17.6549C13.3396 17.6549 13.5634 17.4367 13.6754 17.3003C13.9832 17.0003 14.319 16.6458 14.6269 16.2639C14.7948 16.1003 14.8787 15.9367 14.9627 15.8003C15.0466 15.6639 15.0746 15.6094 15.2425 15.5003C15.7463 15.1185 16.222 14.6821 16.6978 14.2458C16.7817 14.1639 16.8657 14.1094 16.9496 14.0276C17.0896 13.8912 17.2575 13.7549 17.4254 13.6185C17.6772 13.4276 17.9571 13.2367 18.2369 13.073C18.8526 12.773 19.1884 12.4185 19.4963 12.1458C19.8041 11.9003 20.1119 11.6549 20.6996 11.4367C20.8675 11.3276 21.0354 11.2458 21.2034 11.1367C21.4832 10.973 21.7631 10.8094 22.0429 10.673L23.4142 10.0458C24.0019 9.74576 24.6175 9.52758 25.2332 9.33667C25.4851 9.25485 25.709 9.17303 25.9608 9.09122C26.5205 8.87303 27.0802 8.76394 27.6959 8.62758C27.9757 8.57304 28.2556 8.51849 28.5354 8.43667C29.0951 8.27303 29.7108 8.19122 30.3545 8.13667C30.6623 8.1094 30.9701 8.05485 31.3619 8.00031L31.6138 7.91849C31.7537 7.86394 31.9216 7.8094 32.0616 7.78213H34.1604C34.3843 7.89122 34.7201 7.89122 35.2239 7.91849C35.4757 7.91849 35.8675 7.91849 35.9515 7.94576C36.1474 8.1094 36.3993 8.05485 36.7071 8.08213C37.1549 8.13667 37.5746 8.16394 37.8265 7.97303C37.9104 7.97303 38.0784 8.02758 38.1903 8.05485C38.3862 8.1094 38.6101 8.19122 38.8619 8.19122C39.1698 8.27303 39.4496 8.32758 39.7295 8.38213C40.2052 8.49122 40.653 8.57304 41.1287 8.7094C41.4366 8.84576 41.9123 8.95485 42.584 9.0094C42.7799 9.11849 43.0597 9.20031 43.4515 9.3094C43.6754 9.36394 44.0112 9.44576 44.0672 9.47303C44.1231 9.55485 44.2071 9.6094 44.319 9.66394C44.5709 9.74576 44.7948 9.80031 45.0466 9.88213C45.4944 10.0185 45.9142 10.1276 46.334 10.2912C46.4179 10.3185 46.4459 10.3458 46.5299 10.4003C46.6418 10.4821 46.8097 10.6185 47.2015 10.673C47.8451 10.673 47.9291 10.7821 48.069 11.0003C48.3489 11.3821 48.6847 11.7094 49.6642 11.9003C50.5317 12.2003 51.1194 12.6912 51.6511 13.1003L51.7631 13.1821C52.2388 13.673 52.6586 13.7821 52.9944 13.8912C53.1623 13.9458 53.3022 13.973 53.4422 14.0549C53.4981 14.1367 53.5541 14.1912 53.6101 14.273C53.6101 14.3821 53.694 14.4912 53.806 14.5458C53.8619 14.573 53.9179 14.6276 54.0019 14.6821C54.1698 14.8185 54.3377 14.9549 54.5336 14.9549C54.7015 15.0367 54.8134 15.173 54.9254 15.3094C55.0373 15.4458 55.1772 15.6094 55.4291 15.8003C55.4291 15.9367 55.4571 16.073 55.569 16.1821L56.3526 16.8912C56.5485 17.0821 56.7164 17.273 56.8843 17.4639L57.1082 17.7094C57.1082 17.7094 57.3041 17.9549 57.444 18.1185C57.5 18.2003 57.6119 18.2821 57.6679 18.3639C57.6679 18.473 57.6959 18.5549 57.7799 18.6367L57.8638 18.7185C58.0037 18.8549 58.1157 18.9912 58.3116 19.2367C58.4235 19.3458 58.5075 19.4821 58.6194 19.6458C58.7873 19.8639 58.9272 20.0821 59.0951 20.3276C59.2071 20.5185 59.347 20.6821 59.431 20.7912C59.6549 21.2549 59.8507 21.6094 60.0466 21.9367C60.2705 22.3185 60.4664 22.673 60.6903 23.1639C60.6343 23.3276 60.6903 23.5185 60.6903 23.6549C60.5784 23.7367 60.4944 23.873 60.4944 24.0094C60.4944 24.4185 60.6623 24.8003 60.8582 25.1821C60.9981 25.4549 61.1381 25.7821 61.166 26.0549C61.166 26.1367 61.194 26.2185 61.25 26.273C61.306 26.3549 61.3899 26.6276 61.4179 26.7912C61.5299 27.2003 61.6138 27.5549 61.8937 27.6912C62.0056 27.7458 62.2015 27.773 62.3134 27.7458C62.3134 27.7458 62.6213 27.5276 62.9851 28.7003" fill="#D6690F"/>
<g clip-path="url(#clip0_1081_2081)">
<path d="M41.5241 23.345C42.2075 22.6792 43.1257 22.3093 44.0798 22.3155C45.0339 22.3217 45.9472 22.7035 46.6219 23.3782C47.2966 24.0529 47.6784 24.9662 47.6846 25.9203C47.6908 26.8744 47.3209 27.7926 46.6551 28.476L29.3379 45.7932L22.2827 47.7174L24.2068 40.6622L41.5241 23.345Z" stroke="white" stroke-width="3" stroke-linecap="round" stroke-linejoin="round"/>
</g>
<defs>
<clipPath id="clip0_1081_2081">
<rect width="30" height="30" fill="white" transform="translate(20 20)"/>
</clipPath>
</defs>
</svg>
