<svg width="40" height="40" viewBox="0 0 40 40" fill="none" xmlns="http://www.w3.org/2000/svg">
<mask id="mask0_256_628" style="mask-type:alpha" maskUnits="userSpaceOnUse" x="0" y="0" width="40" height="40">
<rect width="40" height="40" fill="#D9D9D9"/>
</mask>
<g mask="url(#mask0_256_628)">
<path d="M27.3333 15.4447C27.3333 13.4998 26.5607 11.6345 25.1854 10.2592C23.8102 8.88395 21.9449 8.11133 20 8.11133C18.0551 8.11133 16.1898 8.88395 14.8145 10.2592C13.4393 11.6345 12.6666 13.4998 12.6666 15.4447C12.6666 24.0002 8.99997 26.4447 8.99997 26.4447H31C31 26.4447 27.3333 24.0002 27.3333 15.4447Z" stroke="white" stroke-width="2" stroke-linecap="round" stroke-linejoin="bevel"/>
<path d="M23.7393 31.3335C22.6841 32.1837 21.3536 32.6171 20.0001 32.5516C18.6466 32.6171 17.3161 32.1837 16.2609 31.3335" stroke="white" stroke-width="2" stroke-linecap="square" stroke-linejoin="bevel"/>
<rect x="30" y="5" width="5" height="5" rx="2.5" fill="#D6690F"/>
</g>
</svg>
