<svg width="25" height="25" viewBox="0 0 25 25" fill="none" xmlns="http://www.w3.org/2000/svg">
<circle cx="12.5" cy="12.5" r="12.5" fill="#FBF8F2"/>
<path d="M17.7617 12.5008L17.7617 12.4994C17.7621 11.9071 17.9419 11.3289 18.2775 10.8409C18.4318 10.6165 18.6157 10.4161 18.8231 10.2444C18.7476 10.0328 18.6614 9.82511 18.5649 9.62222C18.4744 9.63085 18.3833 9.63531 18.2921 9.63555L18.2909 9.63556C17.8026 9.63626 17.3219 9.51477 16.8927 9.28216C16.4634 9.04955 16.0991 8.71321 15.8331 8.30379C15.567 7.89437 15.4077 7.42488 15.3695 6.93811C15.3563 6.76949 15.3578 6.60065 15.3736 6.43344C15.1722 6.33764 14.9661 6.25207 14.756 6.17705C14.5843 6.38462 14.3838 6.56867 14.1594 6.72308C13.6711 7.05896 13.0924 7.23879 12.4997 7.23879C11.9071 7.23879 11.3284 7.05897 10.8401 6.72308C10.6156 6.56867 10.4151 6.38462 10.2434 6.17704C10.0322 6.25241 9.82501 6.33842 9.62253 6.43472C9.63836 6.60187 9.63982 6.77066 9.62661 6.93922C9.58846 7.42599 9.4291 7.89548 9.16306 8.3049C8.89702 8.71432 8.53276 9.05066 8.10346 9.28327C7.67506 9.5154 7.19548 9.63687 6.70826 9.63667C6.70725 9.63667 6.70624 9.63667 6.70522 9.63667L6.70599 9.10747C6.60802 9.27607 6.51742 9.44862 6.4344 9.62463M17.7617 12.5008L6.70875 9.10272C6.7308 9.06485 6.75322 9.02717 6.77602 8.9897L6.70806 8.94836L6.70667 8.63667M17.7617 12.5008C17.7621 13.092 17.9409 13.6693 18.2745 14.1573C18.4284 14.3825 18.6121 14.5839 18.8194 14.7566C18.7432 14.97 18.6563 15.1794 18.559 15.384C18.2914 15.3596 18.0201 15.3719 17.753 15.422C17.1727 15.5307 16.6389 15.8123 16.2214 16.2297C15.804 16.6472 15.5224 17.1811 15.4137 17.7613C15.3636 18.0286 15.3512 18.3 15.3758 18.5679C15.1721 18.6648 14.9637 18.7514 14.7513 18.8272C14.5799 18.6205 14.3799 18.4372 14.1561 18.2835C13.6687 17.9485 13.0911 17.7693 12.4997 17.7693C11.9083 17.7693 11.3308 17.9485 10.8433 18.2835C10.6197 18.4371 10.4198 18.6202 10.2485 18.8267C10.0366 18.7511 9.82861 18.6647 9.62538 18.5681C9.65034 18.3004 9.63843 18.029 9.58875 17.7617C9.48069 17.1802 9.199 16.6451 8.78082 16.227C8.36263 15.8088 7.82756 15.5271 7.24612 15.419C6.97859 15.3693 6.70703 15.3574 6.43912 15.3825C6.34238 15.1791 6.25602 14.971 6.18038 14.759M17.7617 12.5008L6.18038 14.759M6.4344 9.62463C6.11601 9.59547 5.804 9.51365 5.51128 9.38191L5.92167 8.47M6.4344 9.62463C6.33842 9.82812 6.25257 10.0362 6.17716 10.2482C6.38434 10.4197 6.56808 10.6198 6.72229 10.8439C7.05804 11.3316 7.23811 11.9096 7.23875 12.5018C7.23939 13.0939 7.06057 13.6723 6.72587 14.1608C6.57173 14.3857 6.38787 14.5867 6.18038 14.759M6.4344 9.62463L6.18038 14.759M5.92167 8.47L6.70622 8.94724L6.70667 8.63667M5.92167 8.47C6.16841 8.58104 6.43609 8.63788 6.70667 8.63667M5.92167 8.47C5.5006 9.1622 5.18967 9.91564 5 10.7033C5.36415 10.8429 5.67745 11.0896 5.89859 11.4109C6.11973 11.7321 6.23833 12.1128 6.23875 12.5028C6.23917 12.8928 6.12139 13.2738 5.90095 13.5955C5.6805 13.9172 5.36774 14.1646 5.00389 14.305L8.46833 5.92556M6.70667 8.63667C7.02807 8.63713 7.34447 8.55716 7.62706 8.40405C7.90964 8.25093 8.14942 8.02953 8.32454 7.76003C8.49966 7.49053 8.60455 7.18149 8.62967 6.86108C8.65479 6.54066 8.59932 6.21905 8.46833 5.92556M8.46833 5.92556C9.15817 5.5009 9.91106 5.18849 10.6989 5C10.8384 5.36446 11.0853 5.678 11.4068 5.89919C11.7284 6.12037 12.1095 6.23879 12.4997 6.23879C12.89 6.23879 13.2711 6.12037 13.5926 5.89919C13.9141 5.678 14.161 5.36446 14.3006 5L8.46833 5.92556ZM10.2433 15.9259C10.9215 16.3791 11.7189 16.621 12.5346 16.6211L16.66 12.4958C16.6599 11.68 16.418 10.8826 15.9648 10.2044C15.5116 9.52603 14.8673 8.99732 14.1136 8.68511C13.3598 8.3729 12.5304 8.29121 11.7303 8.45037C10.9301 8.60954 10.1951 9.0024 9.61819 9.5793C9.04129 10.1562 8.64842 10.8912 8.48926 11.6914C8.3301 12.4915 8.41179 13.3209 8.724 14.0747C9.03621 14.8284 9.56492 15.4727 10.2433 15.9259ZM12.535 16.6211C13.0767 16.6213 13.6131 16.5147 14.1136 16.3075C14.6142 16.1002 15.069 15.7964 15.4521 15.4133C15.8353 15.0301 16.1391 14.5753 16.3464 14.0747C16.5536 13.5742 16.6601 13.0378 16.66 12.4961L12.535 16.6211Z" stroke="#974B1A" stroke-width="2" stroke-linecap="round" stroke-linejoin="round"/>
</svg>
