<svg width="52" height="52" viewBox="0 0 52 52" fill="none" xmlns="http://www.w3.org/2000/svg">
<circle cx="26" cy="26" r="14" fill="#D6690F"/>
<g clip-path="url(#clip0_374_1594)">
<path d="M25.2492 19.4583L23.5406 22.8652L19.7173 23.4141C19.5627 23.4364 19.4175 23.5008 19.2982 23.5999C19.1788 23.699 19.09 23.829 19.0418 23.9751C18.9936 24.1212 18.988 24.2777 19.0254 24.4269C19.0629 24.576 19.1421 24.7119 19.2539 24.8191L22.0199 27.4688L21.3667 31.2126C21.3405 31.3639 21.3577 31.5194 21.4166 31.6616C21.4755 31.8037 21.5736 31.9269 21.6998 32.0171C21.8261 32.1073 21.9755 32.161 22.1312 32.1721C22.2868 32.1832 22.4426 32.1513 22.5808 32.08L26.001 30.3124L29.4213 32.08C29.5595 32.1508 29.715 32.1822 29.8703 32.1709C30.0257 32.1595 30.1747 32.1057 30.3007 32.0156C30.4267 31.9255 30.5246 31.8026 30.5835 31.6607C30.6423 31.5189 30.6598 31.3637 30.6338 31.2126L29.9807 27.4688L32.7467 24.8191C32.8585 24.7119 32.9377 24.576 32.9751 24.4269C33.0126 24.2777 33.0069 24.1212 32.9587 23.9751C32.9105 23.829 32.8218 23.699 32.7024 23.5999C32.583 23.5008 32.4379 23.4364 32.2833 23.4141L28.46 22.8652L26.7513 19.4583C26.682 19.3207 26.575 19.2049 26.4423 19.1239C26.3095 19.0429 26.1565 19 26.0003 19C25.8441 19 25.691 19.0429 25.5583 19.1239C25.4256 19.2049 25.3186 19.3207 25.2492 19.4583Z" fill="#FCECDE"/>
</g>
<defs>
<clipPath id="clip0_374_1594">
<rect width="14" height="13.1765" fill="white" transform="translate(19 19)"/>
</clipPath>
</defs>
</svg>
