<svg width="360" height="420" viewBox="0 0 360 420" fill="none" xmlns="http://www.w3.org/2000/svg">
<mask id="mask0_957_3204" style="mask-type:alpha" maskUnits="userSpaceOnUse" x="0" y="0" width="360" height="420">
<rect width="360" height="420" fill="#D9D9D9"/>
</mask>
<g mask="url(#mask0_957_3204)">
<path fill-rule="evenodd" clip-rule="evenodd" d="M79 25C65.1929 25 54 36.1929 54 50V87C54 100.807 65.1929 112 79 112H117.159L127.226 126.338C128.819 128.606 132.181 128.606 133.774 126.338L143.841 112H145C158.807 112 170 100.807 170 87V50C170 36.1929 158.807 25 145 25H79Z" fill="#FCECDE"/>
<path d="M107.853 76.0637C107.885 76.3134 108.098 76.5005 108.349 76.5005H114.283C114.427 76.5005 114.563 76.4388 114.658 76.3311C114.753 76.2233 114.797 76.08 114.779 75.9375C114.654 74.955 114.61 74.548 114.625 74.2409C114.637 73.9915 114.686 73.8133 114.805 73.3866C114.825 73.3148 114.846 73.2359 114.87 73.1485L114.871 73.145C115.172 72.0168 115.615 71.105 116.19 70.3931C116.829 69.6471 117.533 69 118.302 68.4506L118.305 68.4486C119.167 67.8235 119.976 67.129 120.73 66.3654C121.513 65.5725 122.157 64.5907 122.668 63.4302C123.233 62.224 123.5 60.6735 123.5 58.8087C123.5 57.2245 123.208 55.7964 122.612 54.5356C122.022 53.289 121.208 52.2331 120.172 51.3738C119.139 50.483 117.909 49.8113 116.492 49.3539C115.113 48.8639 113.631 48.5859 112.049 48.5162C110.699 48.4459 109.318 48.6048 107.908 48.9884C106.473 49.3449 105.15 50.0033 103.943 50.9575L103.943 50.9575L103.937 50.9622C102.756 51.9251 101.754 53.199 100.923 54.7693L100.923 54.7693L100.919 54.7774C100.11 56.3759 99.644 58.3239 99.501 60.6041C99.4923 60.7419 99.541 60.8771 99.6355 60.9777C99.7301 61.0784 99.862 61.1354 100 61.1354H106.564C106.827 61.1354 107.045 60.932 107.063 60.6699C107.199 58.7016 107.72 57.3297 108.552 56.4664C109.395 55.5915 110.469 55.1479 111.815 55.1479C113.179 55.1479 114.07 55.5657 114.614 56.3123L114.614 56.3123L114.619 56.3195C115.207 57.0962 115.516 58.0837 115.516 59.3162C115.516 60.3264 115.304 61.1429 114.909 61.791C114.479 62.4624 113.947 63.1062 113.31 63.7217C112.65 64.3265 111.936 64.9652 111.171 65.638C110.385 66.3246 109.704 67.2007 109.121 68.2556C108.528 69.2959 108.093 70.5681 107.806 72.0593L107.806 72.0592L107.804 72.0707C107.681 72.8004 107.617 73.2519 107.626 73.8068C107.636 74.3456 107.715 74.9756 107.853 76.0637ZM106.957 89C106.957 89.2761 107.18 89.5 107.457 89.5H115.123C115.399 89.5 115.623 89.2761 115.623 89V81.7947C115.623 81.5185 115.399 81.2947 115.123 81.2947H107.457C107.18 81.2947 106.957 81.5185 106.957 81.7947V89Z" fill="#D6690F" stroke="#D6690F" stroke-linejoin="round"/>
<mask id="mask1_957_3204" style="mask-type:alpha" maskUnits="userSpaceOnUse" x="0" y="114" width="360" height="300">
<rect y="114" width="360" height="300" fill="#D9D9D9"/>
</mask>
<g mask="url(#mask1_957_3204)">
<g clip-path="url(#clip0_957_3204)">
<path d="M207.174 330.956L186.026 336.33L165.097 303.327C154.69 285.196 149.421 264.507 149.902 243.589L152.525 204.603L153.008 184.139L125.746 191.071C125.746 191.071 126.23 191.722 126.962 193.022C130.689 199.31 132.529 206.539 132.349 213.816L133.43 242.333C132.875 266.828 139.029 291.018 151.216 312.266L176.111 359.182L284.683 331.563L284.136 278.464C284.691 253.968 278.537 229.779 266.35 208.53L253.567 182.728C249.737 176.033 247.878 168.447 248.452 160.772C248.511 160.148 248.532 159.823 248.532 159.823L222.384 166.473C228.658 178.378 234.767 189.963 237.744 195.244C237.998 195.633 238.217 196.052 238.403 196.377L252.498 217.462C262.906 235.593 268.177 256.292 267.693 277.2L265.07 316.186L243.925 321.57L207.196 330.96L207.167 330.968L207.174 330.956Z" fill="#F3E2D3"/>
<path opacity="0.5" d="M252.971 235.745C251.982 231.839 231.061 233.741 206.02 239.956C205.868 239.995 205.727 240.03 205.576 240.069C205.566 240.071 205.546 240.076 205.536 240.079C205.526 240.081 205.505 240.086 205.495 240.089C205.344 240.127 205.203 240.163 205.052 240.201C180.069 246.649 160.753 254.933 161.752 258.837C161.752 258.837 162.673 265.949 166.202 276.712C170.733 290.501 177.454 303.489 185.959 315.345L190.605 321.833C191.503 323.091 193.127 323.66 194.68 323.267L224.665 315.645L254.665 308.082C256.218 307.689 257.376 306.415 257.567 304.882L258.566 296.964C260.406 282.49 260.137 267.869 257.562 253.584C255.545 242.438 252.971 235.745 252.971 235.745Z" fill="#D6690F"/>
</g>
<path opacity="0.1" d="M383.864 460.331L450.841 394.315L288.815 350.61L286.964 352.387C289.486 320.26 281.269 286.42 279.599 254.296L212.917 192.648C212.917 192.648 207.492 192.917 209.358 200.268C211.226 207.628 216.532 223.965 228.632 233.909C236.693 240.54 245.503 251.487 250.488 258.051L180.111 245.539C180.111 245.539 177.034 246.918 178.808 251.64C180.581 256.361 190.454 262.139 199.201 264.832C205.592 266.803 231.189 278.506 244.538 284.681L187.353 284.369C187.353 284.369 183.798 286.928 186.952 290.024C190.104 293.109 208.078 300.909 225.02 302.909L224.254 306.108C217.589 305.747 210.446 305.975 202.965 307.103C202.965 307.103 196.283 312.272 205.938 315.455C215.594 318.647 239.879 319.597 239.879 319.597C239.879 319.597 241.763 323.615 242.364 324.794C248.798 337.434 252.332 344.081 263.053 353.138C267.408 356.819 273.227 360.761 278.034 363.827C319.341 388.815 376.341 378.315 383.841 460.315L383.864 460.331Z" fill="#3E3E3E"/>
<path d="M438.841 437.065C433.905 386.008 387.255 362.45 364.841 316.315C344.153 273.74 301.359 241.685 269.756 214.674L274.981 227.697L277.403 234.382C277.403 234.382 270.922 271.924 269.737 292.345C268.035 321.669 282.841 360.565 282.841 360.565C303.421 370.583 380.407 383.717 380.841 437.065L414.841 444.065L438.841 437.065Z" fill="#D6690F"/>
<path d="M288.499 241.844C265.283 226.013 242.923 208.909 221.566 190.647C220.023 189.332 218.206 187.917 216.209 188.225C214.606 188.469 213.327 189.822 212.771 191.343C212.215 192.863 212.26 194.544 212.435 196.16C213.33 204.398 217.412 211.999 222.573 218.479C227.735 224.959 233.966 230.482 239.951 236.205C248.09 244.001 255.806 252.245 263.058 260.882L282.784 270.191L288.509 241.842L288.499 241.844Z" fill="#D6690F"/>
<path d="M217.406 190.023C217.361 191.925 217.611 193.832 218.407 195.554C219.502 197.941 221.802 199.916 224.435 200.006C225.86 200.061 227.212 199.57 228.445 198.826" stroke="#974B1A" stroke-width="1.5" stroke-linecap="round" stroke-linejoin="round"/>
<path d="M282.784 270.191C269.647 260.79 256.247 251.245 240.916 246.15C231.95 243.162 222.535 241.776 213.132 240.775C204.655 239.873 196.144 239.283 187.646 238.7C184.449 238.484 180.642 238.536 178.846 241.188C177.71 242.87 177.822 245.17 178.679 247.002C179.538 248.844 181.045 250.288 182.623 251.575C197.716 263.872 219.62 263.33 236.689 272.686L285.47 283.941L282.784 270.191Z" fill="#D6690F"/>
<path d="M180.759 241.934C180.799 241.987 180.848 242.029 180.889 242.082C181.512 242.737 182.328 243.173 183.146 243.567C185.252 244.581 187.467 245.361 189.731 245.918C191.394 246.314 193.127 246.595 194.802 246.246C196.478 245.907 198.088 244.848 198.69 243.247C198.879 242.743 198.937 242.193 198.885 241.653" stroke="#974B1A" stroke-width="1.5" stroke-linecap="round" stroke-linejoin="round"/>
<path d="M282.784 270.191C275.068 264.675 267.27 259.104 259.04 254.419" stroke="#974B1A" stroke-width="1.5" stroke-linecap="round" stroke-linejoin="round"/>
<path d="M285.47 283.941C280.941 281.372 276.235 279.111 271.407 277.169C256.631 271.246 240.586 269.36 224.776 271.226C213.675 272.533 202.849 274.429 192.376 277.703C190.723 278.221 189.031 278.798 187.709 279.925C186.386 281.052 185.496 282.849 185.927 284.528C186.453 286.546 188.569 287.66 190.495 288.475C204.543 294.364 219.947 297.002 235.157 296.105L281.629 301.64L285.472 283.951L285.47 283.941Z" fill="#D6690F"/>
<path d="M189.808 280.635C193.616 282.191 197.919 282.553 201.922 281.599C203.86 281.138 205.793 280.333 207.118 278.839C207.847 278.018 208.338 276.958 208.468 275.875" stroke="#974B1A" stroke-width="1.5" stroke-linecap="round" stroke-linejoin="round"/>
<path d="M285.47 283.941C280.941 281.372 276.235 279.111 271.408 277.169C261.027 273.005 250.019 270.844 238.911 270.564" stroke="#974B1A" stroke-width="1.5" stroke-linecap="round" stroke-linejoin="round"/>
<path d="M281.627 301.63C270.74 297.318 256.352 294.507 242.481 294.956C230.787 295.073 219.104 296.796 207.874 300.051C204.845 300.933 201.259 302.684 201.278 305.835C201.302 308.691 204.349 310.473 207.051 311.405C218.784 315.454 231.55 314.767 243.969 315.571C250.003 335.098 264.765 350.493 283.341 360.815" fill="#D6690F"/>
<path d="M203.835 304.24C204.639 304.932 205.723 305.174 206.773 305.34C208.557 305.622 210.391 305.741 212.152 305.366C213.913 304.99 215.614 304.087 216.679 302.622C217.309 301.759 217.676 300.692 217.709 299.637" stroke="#974B1A" stroke-width="1.5" stroke-linecap="round" stroke-linejoin="round"/>
<path d="M281.627 301.63C270.74 297.318 256.352 294.507 242.481 294.956C239.088 294.991 235.699 295.157 232.317 295.464" stroke="#974B1A" stroke-width="1.5" stroke-linecap="round" stroke-linejoin="round"/>
<g opacity="0.25" filter="url(#filter0_f_957_3204)">
<circle cx="377.341" cy="274.815" r="88" fill="white"/>
</g>
</g>
</g>
<defs>
<filter id="filter0_f_957_3204" x="239.341" y="136.815" width="276" height="276" filterUnits="userSpaceOnUse" color-interpolation-filters="sRGB">
<feFlood flood-opacity="0" result="BackgroundImageFix"/>
<feBlend mode="normal" in="SourceGraphic" in2="BackgroundImageFix" result="shape"/>
<feGaussianBlur stdDeviation="25" result="effect1_foregroundBlur_957_3204"/>
</filter>
<clipPath id="clip0_957_3204">
<rect width="147.02" height="175.5" fill="white" transform="translate(116 193.363) rotate(-14.2058)"/>
</clipPath>
</defs>
</svg>
