<svg width="360" height="330" viewBox="0 0 360 330" fill="none" xmlns="http://www.w3.org/2000/svg">
<mask id="mask0_651_4240" style="mask-type:alpha" maskUnits="userSpaceOnUse" x="0" y="0" width="360" height="330">
<rect width="360" height="330" fill="#D9D9D9"/>
</mask>
<g mask="url(#mask0_651_4240)">
<g clip-path="url(#clip0_651_4240)">
<path d="M207.174 256.956L186.026 262.33L165.097 229.327C154.69 211.197 149.421 190.507 149.902 169.589L152.525 130.603L153.008 110.139L125.746 117.071C125.746 117.071 126.23 117.722 126.962 119.023C130.689 125.31 132.529 132.54 132.349 139.816L133.43 168.333C132.875 192.828 139.029 217.018 151.216 238.267L176.111 285.182L284.683 257.563L284.136 204.464C284.691 179.969 278.537 155.779 266.35 134.53L253.567 108.728C249.737 102.033 247.878 94.4475 248.452 86.7719C248.511 86.1484 248.532 85.8233 248.532 85.8233L222.384 92.4735C228.658 104.378 234.767 115.963 237.744 121.244C237.998 121.634 238.217 122.052 238.403 122.377L252.498 143.463C262.906 161.593 268.177 182.292 267.693 203.2L265.07 242.186L243.925 247.57L207.196 256.961L207.167 256.968L207.174 256.956Z" fill="#F3E2D3"/>
<path opacity="0.5" d="M252.971 161.745C251.982 157.839 231.061 159.741 206.02 165.956C205.868 165.995 205.727 166.03 205.576 166.069C205.566 166.071 205.546 166.076 205.536 166.079C205.526 166.081 205.505 166.086 205.495 166.089C205.344 166.127 205.203 166.163 205.052 166.201C180.069 172.649 160.753 180.933 161.752 184.837C161.752 184.837 162.673 191.949 166.202 202.712C170.733 216.501 177.454 229.489 185.959 241.345L190.605 247.833C191.503 249.091 193.127 249.66 194.68 249.267L224.665 241.645L254.665 234.082C256.218 233.689 257.376 232.415 257.567 230.882L258.566 222.964C260.406 208.49 260.137 193.869 257.562 179.584C255.545 168.438 252.971 161.745 252.971 161.745Z" fill="#D6690F"/>
</g>
<path opacity="0.1" d="M383.864 386.331L450.841 320.315L288.815 276.61L286.964 278.387C289.486 246.26 281.269 212.419 279.599 180.296L212.917 118.648C212.917 118.648 207.492 118.917 209.358 126.267C211.226 133.628 216.532 149.964 228.632 159.909C236.693 166.54 245.503 177.486 250.488 184.051L180.111 171.538C180.111 171.538 177.034 172.917 178.808 177.639C180.581 182.361 190.454 188.138 199.201 190.832C205.592 192.802 231.189 204.506 244.538 210.681L187.353 210.369C187.353 210.369 183.798 212.928 186.952 216.024C190.104 219.109 208.078 226.908 225.02 228.909L224.254 232.108C217.589 231.747 210.446 231.975 202.965 233.103C202.965 233.103 196.283 238.272 205.938 241.454C215.594 244.647 239.879 245.596 239.879 245.596C239.879 245.596 241.763 249.615 242.364 250.794C248.798 263.434 252.332 270.081 263.053 279.137C267.408 282.819 273.227 286.761 278.034 289.827C319.341 314.815 376.341 304.315 383.841 386.315L383.864 386.331Z" fill="#3E3E3E"/>
<path d="M438.841 363.065C433.905 312.008 387.255 288.45 364.841 242.315C344.153 199.74 301.359 167.685 269.756 140.674L274.981 153.697L277.403 160.382C277.403 160.382 270.922 197.924 269.737 218.345C268.035 247.669 282.841 286.565 282.841 286.565C303.421 296.583 380.407 309.717 380.841 363.065L414.841 370.065L438.841 363.065Z" fill="#D6690F"/>
<path d="M288.499 167.844C265.283 152.013 242.923 134.909 221.566 116.647C220.023 115.332 218.206 113.917 216.209 114.225C214.606 114.469 213.327 115.822 212.771 117.343C212.215 118.863 212.26 120.544 212.435 122.16C213.33 130.398 217.412 137.999 222.573 144.479C227.735 150.959 233.966 156.482 239.951 162.205C248.09 170.001 255.806 178.245 263.058 186.882L282.784 196.191L288.509 167.842L288.499 167.844Z" fill="#D6690F"/>
<path d="M217.406 116.023C217.361 117.925 217.611 119.832 218.407 121.554C219.502 123.941 221.802 125.916 224.435 126.006C225.86 126.061 227.212 125.57 228.445 124.826" stroke="#974B1A" stroke-width="1.5" stroke-linecap="round" stroke-linejoin="round"/>
<path d="M282.784 196.191C269.647 186.79 256.247 177.245 240.916 172.15C231.95 169.162 222.535 167.777 213.132 166.776C204.655 165.874 196.144 165.283 187.646 164.701C184.449 164.484 180.642 164.536 178.846 167.188C177.71 168.87 177.822 171.17 178.679 173.002C179.538 174.844 181.045 176.288 182.623 177.576C197.716 189.872 219.62 189.331 236.689 198.687L285.47 209.941L282.784 196.191Z" fill="#D6690F"/>
<path d="M180.759 167.934C180.799 167.987 180.848 168.029 180.889 168.082C181.512 168.737 182.328 169.173 183.146 169.567C185.252 170.581 187.467 171.361 189.731 171.918C191.394 172.314 193.127 172.595 194.802 172.246C196.478 171.907 198.088 170.848 198.69 169.247C198.879 168.743 198.937 168.193 198.885 167.653" stroke="#974B1A" stroke-width="1.5" stroke-linecap="round" stroke-linejoin="round"/>
<path d="M282.784 196.191C275.068 190.676 267.27 185.104 259.04 180.419" stroke="#974B1A" stroke-width="1.5" stroke-linecap="round" stroke-linejoin="round"/>
<path d="M285.47 209.941C280.941 207.372 276.235 205.111 271.407 203.169C256.631 197.245 240.586 195.36 224.776 197.226C213.675 198.533 202.849 200.429 192.376 203.703C190.723 204.221 189.031 204.797 187.709 205.924C186.386 207.051 185.496 208.849 185.927 210.528C186.453 212.545 188.569 213.66 190.495 214.474C204.543 220.364 219.947 223.002 235.157 222.105L281.629 227.64L285.472 209.951L285.47 209.941Z" fill="#D6690F"/>
<path d="M189.808 206.635C193.616 208.191 197.919 208.553 201.922 207.599C203.86 207.139 205.793 206.333 207.118 204.839C207.847 204.019 208.338 202.958 208.468 201.875" stroke="#974B1A" stroke-width="1.5" stroke-linecap="round" stroke-linejoin="round"/>
<path d="M285.47 209.941C280.941 207.372 276.235 205.111 271.408 203.169C261.027 199.005 250.019 196.844 238.911 196.564" stroke="#974B1A" stroke-width="1.5" stroke-linecap="round" stroke-linejoin="round"/>
<path d="M281.627 227.63C270.74 223.318 256.352 220.507 242.481 220.956C230.787 221.073 219.104 222.796 207.874 226.051C204.845 226.933 201.259 228.684 201.278 231.835C201.302 234.691 204.349 236.473 207.051 237.405C218.784 241.454 231.55 240.767 243.969 241.571C250.003 261.098 264.765 276.493 283.341 286.815" fill="#D6690F"/>
<path d="M203.835 230.24C204.639 230.932 205.723 231.174 206.773 231.34C208.557 231.622 210.391 231.741 212.152 231.366C213.913 230.99 215.614 230.087 216.679 228.622C217.309 227.759 217.676 226.692 217.709 225.637" stroke="#974B1A" stroke-width="1.5" stroke-linecap="round" stroke-linejoin="round"/>
<path d="M281.627 227.631C270.74 223.319 256.352 220.507 242.481 220.957C239.088 220.991 235.699 221.157 232.317 221.464" stroke="#974B1A" stroke-width="1.5" stroke-linecap="round" stroke-linejoin="round"/>
<g opacity="0.25" filter="url(#filter0_f_651_4240)">
<circle cx="377.341" cy="200.815" r="88" fill="white"/>
</g>
<g clip-path="url(#clip1_651_4240)">
<path d="M-17.3459 83.0454C-7.13745 72.1426 5.35252 75.2959 16.4046 78.8953C22.8502 80.9898 28.5198 80.8435 32.131 80.3493C36.7783 79.7142 41.4696 79.5009 46.1623 79.5179L66.6838 79.6018C66.7258 80.8743 67.6548 81.9802 68.9574 82.1994L87.7124 85.3389C89.015 85.5582 90.2543 84.8044 90.7097 83.6107C90.7653 83.4627 90.8109 83.3144 90.8369 83.1552L90.8388 83.1053L95.1558 57.2797C95.4019 55.7979 94.4043 54.3893 92.9225 54.1432L74.1676 51.0037C72.9345 50.7971 71.7789 51.454 71.2681 52.5255L51.7428 45.9345C47.2961 44.4357 42.9281 42.7097 38.7343 40.6101C35.4836 38.9764 30.1642 37.0043 23.3834 36.8986C11.7614 36.7302 -1.0779 35.6752 -7.2086 22.0543C-13.3397 8.44344 -24.5737 -3.85896 -40.4059 -6.48788L-49.1973 46.4182L-57.9887 99.3243C-42.1665 101.953 -27.5543 93.9482 -17.3459 83.0454Z" fill="#F3E1D3"/>
<path d="M-38.1731 -0.419539C-29.8215 2.34738 -21.0762 7.41078 -16.6345 14.8736C-12.7954 21.333 -14.0366 41.2303 8.29823 54.7822C9.39405 55.444 10.4795 56.1154 11.6847 56.5312C44.0903 67.6011 84.7773 70.5676 86.2344 70.6726C90.4361 70.9713 91.5152 75.5252 88.028 76.9747C86.4016 77.6439 81.5619 77.2811 79.8192 77.0552C75.5073 76.4922 72.0177 74.5592 67.6952 74.5462C64.6336 74.5307 61.5716 74.5253 58.51 74.5098C53.7973 74.4921 49.0746 74.474 44.362 74.4562C38.969 74.4328 34.1547 74.7215 29.6381 75.3416C26.5399 75.7651 21.6717 75.8916 16.136 74.0815C6.4482 70.9239 -9.7744 65.6484 -22.8085 79.5668C-27.3759 84.448 -38.9486 94.909 -53.9941 94.7715L-38.1735 -0.409546L-38.1731 -0.419539Z" fill="#EAB386"/>
</g>
</g>
<defs>
<filter id="filter0_f_651_4240" x="239.341" y="62.8149" width="276" height="276" filterUnits="userSpaceOnUse" color-interpolation-filters="sRGB">
<feFlood flood-opacity="0" result="BackgroundImageFix"/>
<feBlend mode="normal" in="SourceGraphic" in2="BackgroundImageFix" result="shape"/>
<feGaussianBlur stdDeviation="25" result="effect1_foregroundBlur_651_4240"/>
</filter>
<clipPath id="clip0_651_4240">
<rect width="147.02" height="175.5" fill="white" transform="translate(116 119.363) rotate(-14.2058)"/>
</clipPath>
<clipPath id="clip1_651_4240">
<rect width="151.48" height="106.7" fill="white" transform="translate(-53.9762 -7) rotate(2.16121)"/>
</clipPath>
</defs>
</svg>
