<svg width="360" height="420" viewBox="0 0 360 420" fill="none" xmlns="http://www.w3.org/2000/svg">
<mask id="mask0_950_2244" style="mask-type:alpha" maskUnits="userSpaceOnUse" x="0" y="0" width="360" height="420">
<rect width="360" height="420" fill="#D9D9D9"/>
</mask>
<g mask="url(#mask0_950_2244)">
<g filter="url(#filter0_f_950_2244)">
<ellipse cx="219.059" cy="225.658" rx="165.666" ry="18.3416" fill="#F3E2D3"/>
</g>
<path d="M135.079 109.044C131.837 105.8 124.221 104.133 117.204 103.266L115.76 73.9991C116.271 73.9991 116.671 73.5991 116.671 73.088V53.8877C116.671 52.9099 115.871 52.1099 114.894 52.1099H97.4181C96.441 52.1099 95.6416 52.9099 95.6416 53.8877V73.088C95.6416 73.5991 96.0413 73.9991 96.5521 73.9991L95.1087 103.266C88.0916 104.133 80.475 105.822 77.233 109.044C55.8709 130.422 61.4224 194.845 63.4875 212.979C63.7984 215.712 66.0856 217.757 68.8391 217.757H143.562C146.293 217.757 148.603 215.69 148.913 212.979C150.956 194.868 156.508 130.422 135.101 109.066L135.079 109.044ZM141.497 197.623C141.497 199.401 140.053 200.846 138.277 200.846H74.1019C72.3255 200.846 70.8821 199.401 70.8821 197.623V179.645C70.8821 177.867 72.3255 176.423 74.1019 176.423H138.277C140.053 176.423 141.497 177.867 141.497 179.645V197.623Z" fill="url(#paint0_linear_950_2244)"/>
<path d="M195.945 98.3567C196.878 90.4899 197.344 70.4896 193.636 60.9561H194.569V31.0445C194.569 29.9111 193.658 29 192.526 29H180.668C179.535 29 178.625 29.9111 178.625 31.0445V60.9561H179.58C175.893 70.4896 176.36 90.4232 177.27 98.3344C177.892 104.668 161.659 105.935 161.659 115.535V214.181C161.659 216.203 163.303 217.847 165.323 217.847H207.892C209.913 217.847 211.556 216.203 211.556 214.181V115.535C211.556 105.957 195.412 104.668 195.945 98.3789V98.3567ZM204.25 152.024C204.25 153.802 202.807 155.246 201.03 155.246H172.163C170.386 155.246 168.943 153.802 168.943 152.024V143.38C168.943 141.602 170.386 140.157 172.163 140.157H201.03C202.807 140.157 204.25 141.602 204.25 143.38V152.024Z" fill="url(#paint1_linear_950_2244)"/>
<path d="M363.889 113.693C364.663 107.169 365.049 95.761 361.974 87.8553H362.747V63.0511C362.747 62.1113 361.992 61.3557 361.053 61.3557H351.218C350.278 61.3557 349.523 62.1113 349.523 63.0511V87.8553H350.315C347.258 95.761 347.645 107.114 348.4 113.675C348.916 118.927 335.452 139.39 335.452 147.351V214.917C335.452 216.594 336.815 217.958 338.491 217.958H373.798C375.474 217.958 376.837 216.594 376.837 214.917V147.351C376.837 139.409 363.447 118.927 363.889 113.711V113.693ZM370.777 163.374C370.777 164.848 369.58 166.046 368.107 166.046H344.164C342.69 166.046 341.493 164.848 341.493 163.374V156.205C341.493 154.731 342.69 153.533 344.164 153.533H368.107C369.58 153.533 370.777 154.731 370.777 156.205V163.374Z" fill="url(#paint2_linear_950_2244)"/>
<path d="M317.449 118.974C314.007 114.751 281.453 106.707 283.341 106.418C284.784 99.2844 282.297 73.9062 282.297 73.9062H283.341V50.7059C283.341 49.5725 282.186 48.6614 280.765 48.6614H265.82C264.399 48.6614 263.245 49.5725 263.245 50.7059V73.9062H264.288C264.288 73.9062 261.801 99.2844 263.245 106.418C265.132 106.707 232.578 114.751 229.136 118.974C226.116 122.663 223.252 195.175 221.498 213.508C221.275 215.753 223.052 217.686 225.295 217.686H321.291C323.533 217.686 325.31 215.753 325.088 213.508C323.334 195.175 320.469 122.64 317.449 118.974ZM310.854 175.152C310.854 176.93 309.411 178.375 307.634 178.375H238.929C237.153 178.375 235.709 176.93 235.709 175.152V157.174C235.709 155.396 237.153 153.952 238.929 153.952H307.634C309.411 153.952 310.854 155.396 310.854 157.174V175.152Z" fill="url(#paint3_linear_950_2244)"/>
<rect x="69.9594" y="174.183" width="72.1832" height="27.2166" rx="3" fill="#D6690F"/>
<rect x="168.176" y="139.867" width="36.6833" height="17.75" rx="3" fill="#974B1A"/>
<rect x="339.759" y="152.883" width="33.1333" height="14.2" rx="3" fill="#61331E"/>
<rect x="234.442" y="152.883" width="79.2832" height="26.0333" rx="3" fill="#D6690F"/>
<rect y="302" width="84" height="12.3913" fill="#FCECDE"/>
<rect x="47" y="346.609" width="84" height="12.3913" fill="#FCECDE"/>
<rect x="94" y="302" width="37" height="12.3913" fill="#FCECDE"/>
<rect y="346.609" width="37" height="12.3913" fill="#FCECDE"/>
<rect y="324.304" width="131" height="12.3913" fill="#FCECDE"/>
</g>
<defs>
<filter id="filter0_f_950_2244" x="43.3927" y="197.317" width="351.333" height="56.6833" filterUnits="userSpaceOnUse" color-interpolation-filters="sRGB">
<feFlood flood-opacity="0" result="BackgroundImageFix"/>
<feBlend mode="normal" in="SourceGraphic" in2="BackgroundImageFix" result="shape"/>
<feGaussianBlur stdDeviation="5" result="effect1_foregroundBlur_950_2244"/>
</filter>
<linearGradient id="paint0_linear_950_2244" x1="106.108" y1="52.1099" x2="106.108" y2="217.958" gradientUnits="userSpaceOnUse">
<stop offset="0.328125" stop-color="#D6690F"/>
<stop offset="0.770833" stop-color="#D6690F" stop-opacity="0.59"/>
<stop offset="1" stop-color="#D6690F"/>
</linearGradient>
<linearGradient id="paint1_linear_950_2244" x1="186.608" y1="29" x2="186.608" y2="217.847" gradientUnits="userSpaceOnUse">
<stop stop-color="#974B1A"/>
<stop offset="0.151042" stop-color="#974B1A" stop-opacity="0.7"/>
<stop offset="1" stop-color="#974B1A"/>
</linearGradient>
<linearGradient id="paint2_linear_950_2244" x1="356.144" y1="61.3557" x2="356.144" y2="217.958" gradientUnits="userSpaceOnUse">
<stop stop-color="#61331E"/>
<stop offset="0.65625" stop-color="#61331E" stop-opacity="0.74"/>
<stop offset="1" stop-color="#61331E"/>
</linearGradient>
<linearGradient id="paint3_linear_950_2244" x1="273.19" y1="48.0315" x2="273.19" y2="217.958" gradientUnits="userSpaceOnUse">
<stop offset="0.140625" stop-color="#D6690F"/>
<stop offset="0.671875" stop-color="#D6690F" stop-opacity="0.63"/>
<stop offset="0.921875" stop-color="#D6690F"/>
</linearGradient>
</defs>
</svg>
