<svg width="360" height="300" viewBox="0 0 360 300" fill="none" xmlns="http://www.w3.org/2000/svg">
<mask id="mask0_645_4074" style="mask-type:alpha" maskUnits="userSpaceOnUse" x="0" y="0" width="360" height="300">
<rect width="360" height="300" fill="#D9D9D9"/>
</mask>
<g mask="url(#mask0_645_4074)">
<g clip-path="url(#clip0_645_4074)">
<path d="M207.174 216.956L186.026 222.33L165.097 189.327C154.69 171.197 149.421 150.507 149.902 129.589L152.525 90.6032L153.008 70.139L125.746 77.0713C125.746 77.0713 126.23 77.7223 126.962 79.0226C130.689 85.3102 132.529 92.5396 132.349 99.8163L133.43 128.333C132.875 152.828 139.029 177.018 151.216 198.267L176.111 245.182L284.683 217.563L284.136 164.464C284.691 139.969 278.537 115.779 266.35 94.5302L253.567 68.7282C249.737 62.0334 247.878 54.4475 248.452 46.7719C248.511 46.1484 248.532 45.8233 248.532 45.8233L222.384 52.4735C228.658 64.378 234.767 75.9629 237.744 81.2438C237.998 81.6335 238.217 82.0525 238.403 82.3769L252.498 103.463C262.906 121.593 268.177 142.292 267.693 163.2L265.07 202.186L243.925 207.57L207.196 216.961L207.167 216.968L207.174 216.956Z" fill="#F3E2D3"/>
<path opacity="0.5" d="M252.971 121.745C251.982 117.839 231.061 119.741 206.019 125.956C205.868 125.995 205.727 126.03 205.576 126.069C205.566 126.071 205.546 126.076 205.536 126.079C205.525 126.081 205.505 126.086 205.495 126.089C205.344 126.127 205.203 126.163 205.052 126.201C180.069 132.649 160.753 140.933 161.752 144.837C161.752 144.837 162.673 151.949 166.202 162.712C170.733 176.501 177.454 189.489 185.959 201.345L190.605 207.833C191.503 209.091 193.127 209.66 194.679 209.267L224.665 201.645L254.665 194.082C256.218 193.689 257.376 192.415 257.567 190.882L258.566 182.964C260.405 168.49 260.137 153.869 257.561 139.584C255.544 128.438 252.971 121.745 252.971 121.745Z" fill="#D6690F"/>
</g>
<path opacity="0.1" d="M383.864 346.331L450.841 280.315L288.815 236.61L286.964 238.387C289.486 206.26 281.269 172.419 279.599 140.296L212.917 78.6482C212.917 78.6482 207.492 78.9165 209.358 86.2673C211.226 93.6279 216.532 109.964 228.632 119.909C236.693 126.54 245.503 137.486 250.488 144.051L180.111 131.538C180.111 131.538 177.034 132.917 178.808 137.639C180.581 142.361 190.454 148.138 199.201 150.832C205.592 152.802 231.189 164.506 244.538 170.681L187.353 170.369C187.353 170.369 183.798 172.928 186.952 176.024C190.104 179.109 208.078 186.908 225.02 188.909L224.254 192.108C217.589 191.747 210.446 191.975 202.965 193.103C202.965 193.103 196.283 198.272 205.938 201.454C215.594 204.647 239.879 205.596 239.879 205.596C239.879 205.596 241.763 209.615 242.364 210.794C248.798 223.434 252.332 230.081 263.053 239.137C267.408 242.819 273.227 246.761 278.034 249.827C319.341 274.815 376.341 264.315 383.841 346.315L383.864 346.331Z" fill="#3E3E3E"/>
<path d="M438.841 323.065C433.905 272.008 387.255 248.45 364.841 202.315C344.153 159.74 301.359 127.685 269.756 100.674L274.981 113.697L277.403 120.382C277.403 120.382 270.922 157.924 269.737 178.345C268.035 207.669 282.841 246.565 282.841 246.565C303.421 256.583 380.407 269.717 380.841 323.065L414.841 330.065L438.841 323.065Z" fill="#D6690F"/>
<path d="M288.499 127.844C265.283 112.013 242.923 94.9087 221.566 76.6473C220.023 75.3324 218.206 73.9168 216.209 74.2254C214.606 74.4691 213.327 75.8221 212.771 77.3427C212.215 78.8632 212.26 80.5445 212.435 82.1602C213.33 90.3981 217.412 97.9993 222.573 104.479C227.735 110.959 233.966 116.482 239.951 122.205C248.09 130.001 255.806 138.245 263.058 146.882L282.784 156.191L288.509 127.842L288.499 127.844Z" fill="#D6690F"/>
<path d="M217.406 76.0234C217.361 77.9254 217.611 79.8322 218.407 81.5538C219.502 83.9412 221.802 85.9164 224.435 86.0061C225.86 86.0607 227.212 85.5695 228.445 84.8261" stroke="#974B1A" stroke-width="1.5" stroke-linecap="round" stroke-linejoin="round"/>
<path d="M282.784 156.191C269.647 146.79 256.247 137.245 240.916 132.15C231.95 129.162 222.535 127.777 213.132 126.776C204.655 125.874 196.144 125.283 187.646 124.701C184.449 124.484 180.642 124.536 178.846 127.188C177.71 128.87 177.822 131.17 178.679 133.002C179.538 134.844 181.045 136.288 182.623 137.576C197.716 149.872 219.62 149.331 236.689 158.687L285.47 169.941L282.784 156.191Z" fill="#D6690F"/>
<path d="M180.759 127.934C180.799 127.987 180.848 128.029 180.889 128.082C181.512 128.737 182.328 129.173 183.146 129.567C185.252 130.581 187.467 131.361 189.731 131.918C191.394 132.314 193.127 132.595 194.802 132.246C196.478 131.907 198.088 130.848 198.69 129.247C198.879 128.743 198.937 128.193 198.885 127.653" stroke="#974B1A" stroke-width="1.5" stroke-linecap="round" stroke-linejoin="round"/>
<path d="M282.784 156.191C275.068 150.676 267.27 145.104 259.04 140.419" stroke="#974B1A" stroke-width="1.5" stroke-linecap="round" stroke-linejoin="round"/>
<path d="M285.47 169.941C280.941 167.372 276.235 165.111 271.407 163.169C256.631 157.245 240.586 155.36 224.776 157.226C213.675 158.533 202.849 160.429 192.376 163.703C190.723 164.221 189.031 164.797 187.709 165.924C186.386 167.051 185.496 168.849 185.927 170.528C186.453 172.545 188.569 173.66 190.495 174.474C204.543 180.364 219.947 183.002 235.157 182.105L281.629 187.64L285.472 169.951L285.47 169.941Z" fill="#D6690F"/>
<path d="M189.808 166.635C193.616 168.191 197.919 168.553 201.922 167.599C203.86 167.139 205.793 166.333 207.118 164.839C207.847 164.019 208.338 162.958 208.468 161.875" stroke="#974B1A" stroke-width="1.5" stroke-linecap="round" stroke-linejoin="round"/>
<path d="M285.47 169.941C280.941 167.372 276.235 165.111 271.408 163.169C261.027 159.005 250.019 156.844 238.911 156.564" stroke="#974B1A" stroke-width="1.5" stroke-linecap="round" stroke-linejoin="round"/>
<path d="M281.627 187.63C270.74 183.318 256.352 180.507 242.481 180.956C230.787 181.073 219.104 182.796 207.874 186.051C204.845 186.933 201.259 188.684 201.278 191.835C201.302 194.691 204.349 196.473 207.051 197.405C218.784 201.454 231.55 200.767 243.969 201.571C250.003 221.098 264.765 236.493 283.341 246.815" fill="#D6690F"/>
<path d="M203.835 190.24C204.639 190.932 205.723 191.174 206.773 191.34C208.557 191.622 210.391 191.741 212.152 191.366C213.913 190.99 215.614 190.087 216.679 188.622C217.309 187.759 217.676 186.692 217.709 185.637" stroke="#974B1A" stroke-width="1.5" stroke-linecap="round" stroke-linejoin="round"/>
<path d="M281.627 187.631C270.74 183.319 256.352 180.507 242.481 180.957C239.088 180.991 235.699 181.157 232.317 181.464" stroke="#974B1A" stroke-width="1.5" stroke-linecap="round" stroke-linejoin="round"/>
<g opacity="0.25" filter="url(#filter0_f_645_4074)">
<circle cx="377.341" cy="160.815" r="88" fill="white"/>
</g>
</g>
<g clip-path="url(#clip1_645_4074)">
<path d="M186.643 64.2675C186.033 60.9459 185.325 56.6523 184.548 53.3743C183.771 50.0963 182.926 46.8438 181.982 43.6095C181.51 41.9923 179.486 35.5846 178.956 33.9922C177.905 30.7966 176.816 27.6241 175.725 24.4417C175.621 24.1491 175.786 23.8248 176.079 23.7308C176.353 23.6385 176.655 23.7746 176.776 24.0356C178.141 27.1357 179.33 30.31 180.393 33.5248C180.925 35.1371 181.407 36.7535 181.87 38.3815C182.333 40.0094 182.747 41.6514 183.15 43.2942C183.958 46.5797 184.678 49.8925 185.288 53.2141C185.897 56.5357 186.389 60.887 186.801 64.2347C186.804 64.2746 186.777 64.3168 186.737 64.3201C186.698 64.3233 186.665 64.2958 186.652 64.2568L186.643 64.2675Z" fill="#D6690F"/>
<path d="M196.12 55.4173C196.062 53.2048 196.074 50.9967 196.185 48.7805C196.297 46.5642 196.5 44.3607 196.773 42.1615C197.047 39.9622 197.37 37.759 197.887 35.5902C198.404 33.4314 198.993 31.2869 199.767 29.1977C199.874 28.9081 200.203 28.7611 200.493 28.8681C200.762 28.9667 200.906 29.256 200.847 29.5216C200.358 31.6581 199.817 33.7786 199.348 35.9234C198.879 38.0582 198.369 40.1863 197.962 42.3462C197.554 44.4961 197.218 46.6702 196.933 48.8503C196.648 51.0304 196.415 53.2264 196.272 55.4252C196.275 55.465 196.237 55.4981 196.187 55.4922C196.147 55.4954 196.114 55.458 196.12 55.4173Z" fill="#D6690F"/>
<path d="M173.347 57.6618C171.669 54.2762 169.809 51.0056 167.74 47.8823C166.701 46.321 165.586 44.8161 164.509 43.2879C163.432 41.7598 162.308 40.2656 161.211 38.7391C161.03 38.4829 161.092 38.1368 161.339 37.9563C161.566 37.7874 161.88 37.8222 162.066 38.0178C163.401 39.3846 164.595 40.8732 165.722 42.4072C166.849 43.9413 167.825 45.5879 168.752 47.2485C170.616 50.569 172.211 54.0317 173.473 57.6015C173.486 57.6405 173.47 57.682 173.43 57.6952C173.391 57.6985 173.35 57.6917 173.338 57.6626L173.347 57.6618Z" fill="#D6690F"/>
<path d="M203.604 60.4903C204.283 57.5961 205.145 54.7372 206.225 51.9611C207.304 49.185 208.58 46.4732 210.033 43.8574C210.761 42.5545 211.519 41.2592 212.35 40.008C213.172 38.7576 214.046 37.5331 214.974 36.3544C216.82 33.9978 218.868 31.7854 221.116 29.8076C221.35 29.5981 221.703 29.6197 221.912 29.8535C222.1 30.0691 222.097 30.4004 221.903 30.6067C219.901 32.7653 217.962 34.9689 216.162 37.2716C214.352 39.5751 212.639 41.9611 211.085 44.4545C209.521 46.9488 208.157 49.5574 206.929 52.2352C205.702 54.9229 204.641 57.6775 203.767 60.5172C203.75 60.5587 203.712 60.5819 203.67 60.5652C203.63 60.5584 203.606 60.5102 203.623 60.4787L203.604 60.4903Z" fill="#D6690F"/>
<path d="M171.21 69.385C169.415 67.1626 168.46 66.0735 166.395 64.1137C164.33 62.1538 162.146 60.3341 159.855 58.6735C157.554 57.0138 155.137 55.5439 152.686 54.1371C150.234 52.7302 147.686 51.4918 145.104 50.3263C144.822 50.1986 144.695 49.8677 144.822 49.5766C144.942 49.3161 145.242 49.1814 145.52 49.2793C148.264 50.201 150.892 51.433 153.423 52.8334C155.954 54.2337 158.328 55.9177 160.591 57.7211C162.843 59.5252 164.979 61.4894 166.944 63.5876C168.911 65.6959 169.709 66.9482 171.353 69.2932C171.376 69.3314 171.36 69.3729 171.331 69.3953C171.303 69.4176 171.251 69.4017 171.23 69.3834L171.21 69.385Z" fill="#D6690F"/>
<path d="M230.269 16.8271L229.495 21.5248L232.923 24.8291L228.216 25.5512L226.134 29.833L223.994 25.5718L219.275 24.9103L222.666 21.5659L221.835 16.8776L226.065 19.0635L230.269 16.8271Z" fill="#D6690F"/>
<path d="M180.678 20.429L174.335 19.0361L169.596 23.4628L168.963 17.0028L163.29 13.8501L169.241 11.2617L170.471 4.89167L174.777 9.75015L181.214 8.9583L177.935 14.5511L180.678 20.429Z" fill="#D6690F"/>
<path d="M131.471 40.9252L136.36 41.8338L139.879 38.3285L140.528 43.2521L144.955 45.5124L140.463 47.6518L139.687 52.5704L136.264 48.9547L131.351 49.7336L133.726 45.3577L131.471 40.9252Z" fill="#D6690F"/>
</g>
<defs>
<filter id="filter0_f_645_4074" x="239.341" y="22.8149" width="276" height="276" filterUnits="userSpaceOnUse" color-interpolation-filters="sRGB">
<feFlood flood-opacity="0" result="BackgroundImageFix"/>
<feBlend mode="normal" in="SourceGraphic" in2="BackgroundImageFix" result="shape"/>
<feGaussianBlur stdDeviation="25" result="effect1_foregroundBlur_645_4074"/>
</filter>
<clipPath id="clip0_645_4074">
<rect width="147.02" height="175.5" fill="white" transform="translate(116 79.3628) rotate(-14.2058)"/>
</clipPath>
<clipPath id="clip1_645_4074">
<rect width="103.25" height="65.45" fill="white" transform="translate(128 8.3291) rotate(-4.627)"/>
</clipPath>
</defs>
</svg>
