<svg width="360" height="420" viewBox="0 0 360 420" fill="none" xmlns="http://www.w3.org/2000/svg">
<mask id="mask0_950_2245" style="mask-type:alpha" maskUnits="userSpaceOnUse" x="0" y="0" width="360" height="420">
<rect width="360" height="420" fill="#D9D9D9"/>
</mask>
<g mask="url(#mask0_950_2245)">
<g clip-path="url(#clip0_950_2245)">
<path d="M282.016 163.753C281.475 161.241 279.043 159.615 276.517 160.08L271.276 161.045L168.609 187.202L63.358 199.319L58.117 200.284C55.5911 200.749 53.8885 203.136 54.2873 205.674L73.6947 331.718C74.1032 334.362 76.6039 336.151 79.2433 335.665C97.5396 332.297 162.177 320.369 168.076 319.312C169.546 319.541 172.351 320.912 174.4 322.002C175.798 322.742 177.509 322.525 178.671 321.45C180.925 319.353 185.333 316.145 192.116 314.897C198.899 313.648 204.162 315.085 207.014 316.233C208.482 316.823 210.16 316.427 211.201 315.228C212.727 313.479 214.86 311.199 216.153 310.462C222.041 309.349 286.689 297.478 304.985 294.11C307.615 293.626 309.324 291.061 308.764 288.445L282.025 163.751L282.016 163.753Z" fill="url(#paint0_linear_950_2245)"/>
<path d="M190.937 308.492C190.937 308.492 199.62 307.735 207.78 312.003C207.78 312.003 211.969 301.549 248.181 297.954C284.393 294.36 300.804 286.223 300.804 286.223L288.668 277.307C288.668 277.307 277.159 287.045 239.953 287.898C213.152 288.372 196.266 301.154 190.928 308.494L190.937 308.492Z" fill="url(#paint1_linear_950_2245)"/>
<path d="M300.804 286.223L275.504 164.297L262.71 154.465L288.668 277.307L300.804 286.223Z" fill="#FDF2E8"/>
<path d="M190.937 308.492C190.937 308.492 182.553 310.877 176.448 317.771C176.448 317.771 168.811 309.494 133.693 319.03C98.5723 328.556 80.3415 326.807 80.3415 326.807L88.5071 314.153C88.5071 314.153 102.73 319.155 137.801 306.703C163.013 297.602 183.344 303.532 190.946 308.49L190.937 308.492Z" fill="url(#paint2_linear_950_2245)"/>
<path d="M80.3321 326.808L60.5658 203.863L69.0198 190.12L88.4977 314.155L80.3321 326.808Z" fill="#FDF2E8"/>
<path d="M217.115 163.836C181.464 164.423 168.09 184.432 168.09 184.432L190.929 308.503C190.929 308.503 204.304 288.494 239.955 287.908C275.606 287.321 288.67 277.317 288.67 277.317L262.34 148.684C262.34 148.684 252.766 163.249 217.115 163.836Z" fill="#F3E2D3"/>
<path d="M114.953 182.642C148.476 170.495 168.099 184.43 168.099 184.43L190.939 308.502C190.939 308.502 171.316 294.567 137.793 306.714C104.27 318.861 88.4994 314.164 88.4994 314.164L67.2954 184.578C67.2954 184.578 81.4288 194.78 114.952 182.633L114.953 182.642Z" fill="#F3E2D3"/>
<path d="M209.214 158.053C173.563 158.639 168.088 184.422 168.088 184.422L190.927 308.494C190.927 308.494 196.402 282.711 232.053 282.125C267.704 281.538 280.154 268.194 280.154 268.194L254.448 142.899C254.448 142.899 244.874 157.464 209.223 158.051L209.214 158.053Z" fill="#FCECDE"/>
<path d="M120.277 174.424C153.8 162.277 168.097 184.42 168.097 184.42L190.937 308.492C190.937 308.492 176.64 286.349 143.117 298.496C109.594 310.643 93.2087 302.607 93.2087 302.607L72.6212 176.37C72.6212 176.37 86.7546 186.572 120.277 174.424Z" fill="#FCECDE"/>
<path d="M279.613 265.574C260.611 277.171 244.931 277.905 232.094 277.774C215.974 278.57 205.267 283.632 199.104 287.769C195.821 289.968 191.359 288.148 190.503 284.296L168.18 184.073C168.124 184.298 168.097 184.42 168.097 184.42L190.937 308.492C190.937 308.492 196.412 282.709 232.063 282.123C267.714 281.536 280.163 268.192 280.163 268.192L279.622 265.572L279.613 265.574Z" fill="#F3E2D3"/>
<path d="M160.893 193.764C151.424 189.089 118.526 184.507 88.9652 200.706" stroke="#F3E2D3" stroke-width="3" stroke-linejoin="round"/>
<path d="M163.365 210.435C154.094 205.755 121.903 201.153 93.0079 217.335" stroke="#F3E2D3" stroke-width="3" stroke-linejoin="round"/>
<path d="M167.234 227.065C157.964 222.385 125.772 217.783 96.8772 233.965" stroke="#F3E2D3" stroke-width="3" stroke-linejoin="round"/>
<path d="M169.704 243.652C160.433 238.972 128.242 234.371 99.3468 250.552" stroke="#F3E2D3" stroke-width="3" stroke-linejoin="round"/>
<path d="M172.205 261.42C162.934 256.74 130.743 252.139 101.847 268.32" stroke="#F3E2D3" stroke-width="3" stroke-linejoin="round"/>
<path d="M175.723 279.219C166.452 274.539 134.261 269.938 105.365 286.119" stroke="#F3E2D3" stroke-width="3" stroke-linejoin="round"/>
<path d="M180.699 190.808C187.66 183.109 215.942 167.264 248.492 172.029" stroke="#F3E2D3" stroke-width="3" stroke-linejoin="round"/>
<path d="M184.31 207.269C191.089 199.634 218.722 184.02 250.661 189.003" stroke="#F3E2D3" stroke-width="3" stroke-linejoin="round"/>
<path d="M186.637 224.182C193.416 216.548 221.049 200.934 252.988 205.917" stroke="#F3E2D3" stroke-width="3" stroke-linejoin="round"/>
<path d="M190.221 240.565C197 232.93 224.633 217.316 256.572 222.299" stroke="#F3E2D3" stroke-width="3" stroke-linejoin="round"/>
<path d="M194.192 258.062C200.971 250.428 228.604 234.814 260.543 239.796" stroke="#F3E2D3" stroke-width="3" stroke-linejoin="round"/>
<path d="M197.249 275.946C204.028 268.312 231.66 252.698 263.6 257.68" stroke="#F3E2D3" stroke-width="3" stroke-linejoin="round"/>
</g>
<path d="M176.556 114.394L170.824 112.589C170.631 112.52 170.466 112.369 170.411 112.176L168.606 106.444C168.413 105.852 167.587 105.852 167.394 106.444L165.589 112.176C165.52 112.369 165.369 112.534 165.176 112.589L159.444 114.394C158.852 114.587 158.852 115.413 159.444 115.606L165.176 117.411C165.369 117.48 165.534 117.631 165.589 117.824L167.394 123.556C167.587 124.148 168.413 124.148 168.606 123.556L170.411 117.824C170.48 117.631 170.631 117.466 170.824 117.411L176.556 115.606C177.148 115.413 177.148 114.587 176.556 114.394Z" fill="#974B1A"/>
<path d="M319.185 130.389L308.678 127.08C308.324 126.954 308.021 126.676 307.92 126.322L304.611 115.815C304.258 114.728 302.742 114.728 302.389 115.815L299.08 126.322C298.954 126.676 298.676 126.979 298.322 127.08L287.815 130.389C286.728 130.742 286.728 132.258 287.815 132.611L298.322 135.92C298.676 136.046 298.979 136.324 299.08 136.678L302.389 147.185C302.742 148.272 304.258 148.272 304.611 147.185L307.92 136.678C308.046 136.324 308.324 136.021 308.678 135.92L319.185 132.611C320.272 132.258 320.272 130.742 319.185 130.389Z" fill="#D6690F"/>
<path d="M273.55 56.0467L255.096 50.2161C254.454 50.0121 253.959 49.5165 253.755 48.8751L247.953 30.4212C247.341 28.5263 244.659 28.5263 244.047 30.4212L238.216 48.8751C238.012 49.5165 237.516 50.0121 236.875 50.2161L218.421 56.0467C216.526 56.659 216.526 59.341 218.421 59.9533L236.875 65.7839C237.516 65.9879 238.012 66.4835 238.216 67.1249L244.047 85.5788C244.659 87.4737 247.341 87.4737 247.953 85.5788L253.784 67.1249C253.988 66.4835 254.484 65.9879 255.125 65.7839L273.579 59.9533C275.474 59.341 275.474 56.659 273.579 56.0467H273.55Z" fill="#F3E2D3"/>
</g>
<defs>
<linearGradient id="paint0_linear_950_2245" x1="168.5" y1="181.5" x2="192.947" y2="319.411" gradientUnits="userSpaceOnUse">
<stop stop-color="#D6690F"/>
<stop offset="0.760417" stop-color="#D6690F" stop-opacity="0.5"/>
<stop offset="1" stop-color="#D6690F"/>
</linearGradient>
<linearGradient id="paint1_linear_950_2245" x1="198" y1="309.5" x2="296" y2="285" gradientUnits="userSpaceOnUse">
<stop stop-color="#974B1A"/>
<stop offset="0.291667" stop-color="#974B1A" stop-opacity="0.59"/>
<stop offset="1" stop-color="#974B1A"/>
</linearGradient>
<linearGradient id="paint2_linear_950_2245" x1="86" y1="321" x2="183" y2="312" gradientUnits="userSpaceOnUse">
<stop stop-color="#974B1A"/>
<stop offset="0.807292" stop-color="#974B1A" stop-opacity="0.62"/>
<stop offset="1" stop-color="#974B1A"/>
</linearGradient>
<clipPath id="clip0_950_2245">
<rect width="239.01" height="162.46" fill="white" transform="translate(46 181.271) rotate(-10.4304)"/>
</clipPath>
</defs>
</svg>
